G04 #@! TF.GenerationSoftware,KiCad,Pcbnew,(5.1.12)-1*
G04 #@! TF.CreationDate,2022-01-26T09:33:21+03:00*
G04 #@! TF.ProjectId,d_watch_v2,645f7761-7463-4685-9f76-322e6b696361,rev?*
G04 #@! TF.SameCoordinates,Original*
G04 #@! TF.FileFunction,Paste,Bot*
G04 #@! TF.FilePolarity,Positive*
%FSLAX46Y46*%
G04 Gerber Fmt 4.6, Leading zero omitted, Abs format (unit mm)*
G04 Created by KiCad (PCBNEW (5.1.12)-1) date 2022-01-26 09:33:21*
%MOMM*%
%LPD*%
G01*
G04 APERTURE LIST*
%ADD10R,0.350000X1.600000*%
%ADD11R,1.060000X0.650000*%
%ADD12R,0.650000X1.060000*%
G04 APERTURE END LIST*
D10*
X125150000Y-58750000D03*
X124450000Y-58750000D03*
X123750000Y-58750000D03*
X123050000Y-58750000D03*
X122350000Y-58750000D03*
X121650000Y-58750000D03*
X120950000Y-58750000D03*
X120250000Y-58750000D03*
X119550000Y-58750000D03*
X118850000Y-58750000D03*
X118150000Y-58750000D03*
X117450000Y-58750000D03*
X116750000Y-58750000D03*
X116050000Y-58750000D03*
X115350000Y-58750000D03*
X114650000Y-58750000D03*
X113950000Y-58750000D03*
X113250000Y-58750000D03*
X112550000Y-58750000D03*
X111850000Y-58750000D03*
X111150000Y-58750000D03*
X110450000Y-58750000D03*
X109750000Y-58750000D03*
X109050000Y-58750000D03*
X108350000Y-58750000D03*
X107650000Y-58750000D03*
X106950000Y-58750000D03*
X106250000Y-58750000D03*
X105550000Y-58750000D03*
X104850000Y-58750000D03*
D11*
X105590000Y-34450000D03*
X105590000Y-36350000D03*
X107790000Y-36350000D03*
X107790000Y-35400000D03*
X107790000Y-34450000D03*
D12*
X104600000Y-51640000D03*
X106500000Y-51640000D03*
X106500000Y-49440000D03*
X105550000Y-49440000D03*
X104600000Y-49440000D03*
X103410000Y-38570000D03*
X101510000Y-38570000D03*
X101510000Y-40770000D03*
X102460000Y-40770000D03*
X103410000Y-40770000D03*
G36*
G01*
X125390000Y-45060000D02*
X125390000Y-44560000D01*
G75*
G02*
X125615000Y-44335000I225000J0D01*
G01*
X126065000Y-44335000D01*
G75*
G02*
X126290000Y-44560000I0J-225000D01*
G01*
X126290000Y-45060000D01*
G75*
G02*
X126065000Y-45285000I-225000J0D01*
G01*
X125615000Y-45285000D01*
G75*
G02*
X125390000Y-45060000I0J225000D01*
G01*
G37*
G36*
G01*
X123840000Y-45060000D02*
X123840000Y-44560000D01*
G75*
G02*
X124065000Y-44335000I225000J0D01*
G01*
X124515000Y-44335000D01*
G75*
G02*
X124740000Y-44560000I0J-225000D01*
G01*
X124740000Y-45060000D01*
G75*
G02*
X124515000Y-45285000I-225000J0D01*
G01*
X124065000Y-45285000D01*
G75*
G02*
X123840000Y-45060000I0J225000D01*
G01*
G37*
G36*
G01*
X124290000Y-46940000D02*
X124290000Y-46440000D01*
G75*
G02*
X124515000Y-46215000I225000J0D01*
G01*
X124965000Y-46215000D01*
G75*
G02*
X125190000Y-46440000I0J-225000D01*
G01*
X125190000Y-46940000D01*
G75*
G02*
X124965000Y-47165000I-225000J0D01*
G01*
X124515000Y-47165000D01*
G75*
G02*
X124290000Y-46940000I0J225000D01*
G01*
G37*
G36*
G01*
X122740000Y-46940000D02*
X122740000Y-46440000D01*
G75*
G02*
X122965000Y-46215000I225000J0D01*
G01*
X123415000Y-46215000D01*
G75*
G02*
X123640000Y-46440000I0J-225000D01*
G01*
X123640000Y-46940000D01*
G75*
G02*
X123415000Y-47165000I-225000J0D01*
G01*
X122965000Y-47165000D01*
G75*
G02*
X122740000Y-46940000I0J225000D01*
G01*
G37*
G36*
G01*
X109070000Y-50490000D02*
X109570000Y-50490000D01*
G75*
G02*
X109795000Y-50715000I0J-225000D01*
G01*
X109795000Y-51165000D01*
G75*
G02*
X109570000Y-51390000I-225000J0D01*
G01*
X109070000Y-51390000D01*
G75*
G02*
X108845000Y-51165000I0J225000D01*
G01*
X108845000Y-50715000D01*
G75*
G02*
X109070000Y-50490000I225000J0D01*
G01*
G37*
G36*
G01*
X109070000Y-48940000D02*
X109570000Y-48940000D01*
G75*
G02*
X109795000Y-49165000I0J-225000D01*
G01*
X109795000Y-49615000D01*
G75*
G02*
X109570000Y-49840000I-225000J0D01*
G01*
X109070000Y-49840000D01*
G75*
G02*
X108845000Y-49615000I0J225000D01*
G01*
X108845000Y-49165000D01*
G75*
G02*
X109070000Y-48940000I225000J0D01*
G01*
G37*
G36*
G01*
X103890000Y-35840000D02*
X104390000Y-35840000D01*
G75*
G02*
X104615000Y-36065000I0J-225000D01*
G01*
X104615000Y-36515000D01*
G75*
G02*
X104390000Y-36740000I-225000J0D01*
G01*
X103890000Y-36740000D01*
G75*
G02*
X103665000Y-36515000I0J225000D01*
G01*
X103665000Y-36065000D01*
G75*
G02*
X103890000Y-35840000I225000J0D01*
G01*
G37*
G36*
G01*
X103890000Y-34290000D02*
X104390000Y-34290000D01*
G75*
G02*
X104615000Y-34515000I0J-225000D01*
G01*
X104615000Y-34965000D01*
G75*
G02*
X104390000Y-35190000I-225000J0D01*
G01*
X103890000Y-35190000D01*
G75*
G02*
X103665000Y-34965000I0J225000D01*
G01*
X103665000Y-34515000D01*
G75*
G02*
X103890000Y-34290000I225000J0D01*
G01*
G37*
G36*
G01*
X106850000Y-32090000D02*
X106350000Y-32090000D01*
G75*
G02*
X106125000Y-31865000I0J225000D01*
G01*
X106125000Y-31415000D01*
G75*
G02*
X106350000Y-31190000I225000J0D01*
G01*
X106850000Y-31190000D01*
G75*
G02*
X107075000Y-31415000I0J-225000D01*
G01*
X107075000Y-31865000D01*
G75*
G02*
X106850000Y-32090000I-225000J0D01*
G01*
G37*
G36*
G01*
X106850000Y-33640000D02*
X106350000Y-33640000D01*
G75*
G02*
X106125000Y-33415000I0J225000D01*
G01*
X106125000Y-32965000D01*
G75*
G02*
X106350000Y-32740000I225000J0D01*
G01*
X106850000Y-32740000D01*
G75*
G02*
X107075000Y-32965000I0J-225000D01*
G01*
X107075000Y-33415000D01*
G75*
G02*
X106850000Y-33640000I-225000J0D01*
G01*
G37*
G36*
G01*
X103580000Y-47770000D02*
X103580000Y-48270000D01*
G75*
G02*
X103355000Y-48495000I-225000J0D01*
G01*
X102905000Y-48495000D01*
G75*
G02*
X102680000Y-48270000I0J225000D01*
G01*
X102680000Y-47770000D01*
G75*
G02*
X102905000Y-47545000I225000J0D01*
G01*
X103355000Y-47545000D01*
G75*
G02*
X103580000Y-47770000I0J-225000D01*
G01*
G37*
G36*
G01*
X105130000Y-47770000D02*
X105130000Y-48270000D01*
G75*
G02*
X104905000Y-48495000I-225000J0D01*
G01*
X104455000Y-48495000D01*
G75*
G02*
X104230000Y-48270000I0J225000D01*
G01*
X104230000Y-47770000D01*
G75*
G02*
X104455000Y-47545000I225000J0D01*
G01*
X104905000Y-47545000D01*
G75*
G02*
X105130000Y-47770000I0J-225000D01*
G01*
G37*
G36*
G01*
X105870000Y-43880000D02*
X105870000Y-44380000D01*
G75*
G02*
X105645000Y-44605000I-225000J0D01*
G01*
X105195000Y-44605000D01*
G75*
G02*
X104970000Y-44380000I0J225000D01*
G01*
X104970000Y-43880000D01*
G75*
G02*
X105195000Y-43655000I225000J0D01*
G01*
X105645000Y-43655000D01*
G75*
G02*
X105870000Y-43880000I0J-225000D01*
G01*
G37*
G36*
G01*
X107420000Y-43880000D02*
X107420000Y-44380000D01*
G75*
G02*
X107195000Y-44605000I-225000J0D01*
G01*
X106745000Y-44605000D01*
G75*
G02*
X106520000Y-44380000I0J225000D01*
G01*
X106520000Y-43880000D01*
G75*
G02*
X106745000Y-43655000I225000J0D01*
G01*
X107195000Y-43655000D01*
G75*
G02*
X107420000Y-43880000I0J-225000D01*
G01*
G37*
G36*
G01*
X104610000Y-39490000D02*
X105110000Y-39490000D01*
G75*
G02*
X105335000Y-39715000I0J-225000D01*
G01*
X105335000Y-40165000D01*
G75*
G02*
X105110000Y-40390000I-225000J0D01*
G01*
X104610000Y-40390000D01*
G75*
G02*
X104385000Y-40165000I0J225000D01*
G01*
X104385000Y-39715000D01*
G75*
G02*
X104610000Y-39490000I225000J0D01*
G01*
G37*
G36*
G01*
X104610000Y-37940000D02*
X105110000Y-37940000D01*
G75*
G02*
X105335000Y-38165000I0J-225000D01*
G01*
X105335000Y-38615000D01*
G75*
G02*
X105110000Y-38840000I-225000J0D01*
G01*
X104610000Y-38840000D01*
G75*
G02*
X104385000Y-38615000I0J225000D01*
G01*
X104385000Y-38165000D01*
G75*
G02*
X104610000Y-37940000I225000J0D01*
G01*
G37*
G36*
G01*
X104520000Y-42280000D02*
X104520000Y-41780000D01*
G75*
G02*
X104745000Y-41555000I225000J0D01*
G01*
X105195000Y-41555000D01*
G75*
G02*
X105420000Y-41780000I0J-225000D01*
G01*
X105420000Y-42280000D01*
G75*
G02*
X105195000Y-42505000I-225000J0D01*
G01*
X104745000Y-42505000D01*
G75*
G02*
X104520000Y-42280000I0J225000D01*
G01*
G37*
G36*
G01*
X102970000Y-42280000D02*
X102970000Y-41780000D01*
G75*
G02*
X103195000Y-41555000I225000J0D01*
G01*
X103645000Y-41555000D01*
G75*
G02*
X103870000Y-41780000I0J-225000D01*
G01*
X103870000Y-42280000D01*
G75*
G02*
X103645000Y-42505000I-225000J0D01*
G01*
X103195000Y-42505000D01*
G75*
G02*
X102970000Y-42280000I0J225000D01*
G01*
G37*
G36*
G01*
X101515000Y-58395000D02*
X102065000Y-58395000D01*
G75*
G02*
X102265000Y-58595000I0J-200000D01*
G01*
X102265000Y-58995000D01*
G75*
G02*
X102065000Y-59195000I-200000J0D01*
G01*
X101515000Y-59195000D01*
G75*
G02*
X101315000Y-58995000I0J200000D01*
G01*
X101315000Y-58595000D01*
G75*
G02*
X101515000Y-58395000I200000J0D01*
G01*
G37*
G36*
G01*
X101515000Y-56745000D02*
X102065000Y-56745000D01*
G75*
G02*
X102265000Y-56945000I0J-200000D01*
G01*
X102265000Y-57345000D01*
G75*
G02*
X102065000Y-57545000I-200000J0D01*
G01*
X101515000Y-57545000D01*
G75*
G02*
X101315000Y-57345000I0J200000D01*
G01*
X101315000Y-56945000D01*
G75*
G02*
X101515000Y-56745000I200000J0D01*
G01*
G37*
G36*
G01*
X121675000Y-55290000D02*
X121125000Y-55290000D01*
G75*
G02*
X120925000Y-55090000I0J200000D01*
G01*
X120925000Y-54690000D01*
G75*
G02*
X121125000Y-54490000I200000J0D01*
G01*
X121675000Y-54490000D01*
G75*
G02*
X121875000Y-54690000I0J-200000D01*
G01*
X121875000Y-55090000D01*
G75*
G02*
X121675000Y-55290000I-200000J0D01*
G01*
G37*
G36*
G01*
X121675000Y-56940000D02*
X121125000Y-56940000D01*
G75*
G02*
X120925000Y-56740000I0J200000D01*
G01*
X120925000Y-56340000D01*
G75*
G02*
X121125000Y-56140000I200000J0D01*
G01*
X121675000Y-56140000D01*
G75*
G02*
X121875000Y-56340000I0J-200000D01*
G01*
X121875000Y-56740000D01*
G75*
G02*
X121675000Y-56940000I-200000J0D01*
G01*
G37*
G36*
G01*
X113635000Y-54900000D02*
X113085000Y-54900000D01*
G75*
G02*
X112885000Y-54700000I0J200000D01*
G01*
X112885000Y-54300000D01*
G75*
G02*
X113085000Y-54100000I200000J0D01*
G01*
X113635000Y-54100000D01*
G75*
G02*
X113835000Y-54300000I0J-200000D01*
G01*
X113835000Y-54700000D01*
G75*
G02*
X113635000Y-54900000I-200000J0D01*
G01*
G37*
G36*
G01*
X113635000Y-56550000D02*
X113085000Y-56550000D01*
G75*
G02*
X112885000Y-56350000I0J200000D01*
G01*
X112885000Y-55950000D01*
G75*
G02*
X113085000Y-55750000I200000J0D01*
G01*
X113635000Y-55750000D01*
G75*
G02*
X113835000Y-55950000I0J-200000D01*
G01*
X113835000Y-56350000D01*
G75*
G02*
X113635000Y-56550000I-200000J0D01*
G01*
G37*
G36*
G01*
X115165000Y-54900000D02*
X114615000Y-54900000D01*
G75*
G02*
X114415000Y-54700000I0J200000D01*
G01*
X114415000Y-54300000D01*
G75*
G02*
X114615000Y-54100000I200000J0D01*
G01*
X115165000Y-54100000D01*
G75*
G02*
X115365000Y-54300000I0J-200000D01*
G01*
X115365000Y-54700000D01*
G75*
G02*
X115165000Y-54900000I-200000J0D01*
G01*
G37*
G36*
G01*
X115165000Y-56550000D02*
X114615000Y-56550000D01*
G75*
G02*
X114415000Y-56350000I0J200000D01*
G01*
X114415000Y-55950000D01*
G75*
G02*
X114615000Y-55750000I200000J0D01*
G01*
X115165000Y-55750000D01*
G75*
G02*
X115365000Y-55950000I0J-200000D01*
G01*
X115365000Y-56350000D01*
G75*
G02*
X115165000Y-56550000I-200000J0D01*
G01*
G37*
G36*
G01*
X116090000Y-53245000D02*
X116090000Y-52695000D01*
G75*
G02*
X116290000Y-52495000I200000J0D01*
G01*
X116690000Y-52495000D01*
G75*
G02*
X116890000Y-52695000I0J-200000D01*
G01*
X116890000Y-53245000D01*
G75*
G02*
X116690000Y-53445000I-200000J0D01*
G01*
X116290000Y-53445000D01*
G75*
G02*
X116090000Y-53245000I0J200000D01*
G01*
G37*
G36*
G01*
X114440000Y-53245000D02*
X114440000Y-52695000D01*
G75*
G02*
X114640000Y-52495000I200000J0D01*
G01*
X115040000Y-52495000D01*
G75*
G02*
X115240000Y-52695000I0J-200000D01*
G01*
X115240000Y-53245000D01*
G75*
G02*
X115040000Y-53445000I-200000J0D01*
G01*
X114640000Y-53445000D01*
G75*
G02*
X114440000Y-53245000I0J200000D01*
G01*
G37*
G36*
G01*
X116695000Y-54900000D02*
X116145000Y-54900000D01*
G75*
G02*
X115945000Y-54700000I0J200000D01*
G01*
X115945000Y-54300000D01*
G75*
G02*
X116145000Y-54100000I200000J0D01*
G01*
X116695000Y-54100000D01*
G75*
G02*
X116895000Y-54300000I0J-200000D01*
G01*
X116895000Y-54700000D01*
G75*
G02*
X116695000Y-54900000I-200000J0D01*
G01*
G37*
G36*
G01*
X116695000Y-56550000D02*
X116145000Y-56550000D01*
G75*
G02*
X115945000Y-56350000I0J200000D01*
G01*
X115945000Y-55950000D01*
G75*
G02*
X116145000Y-55750000I200000J0D01*
G01*
X116695000Y-55750000D01*
G75*
G02*
X116895000Y-55950000I0J-200000D01*
G01*
X116895000Y-56350000D01*
G75*
G02*
X116695000Y-56550000I-200000J0D01*
G01*
G37*
G36*
G01*
X112175000Y-48455000D02*
X112175000Y-49005000D01*
G75*
G02*
X111975000Y-49205000I-200000J0D01*
G01*
X111575000Y-49205000D01*
G75*
G02*
X111375000Y-49005000I0J200000D01*
G01*
X111375000Y-48455000D01*
G75*
G02*
X111575000Y-48255000I200000J0D01*
G01*
X111975000Y-48255000D01*
G75*
G02*
X112175000Y-48455000I0J-200000D01*
G01*
G37*
G36*
G01*
X113825000Y-48455000D02*
X113825000Y-49005000D01*
G75*
G02*
X113625000Y-49205000I-200000J0D01*
G01*
X113225000Y-49205000D01*
G75*
G02*
X113025000Y-49005000I0J200000D01*
G01*
X113025000Y-48455000D01*
G75*
G02*
X113225000Y-48255000I200000J0D01*
G01*
X113625000Y-48255000D01*
G75*
G02*
X113825000Y-48455000I0J-200000D01*
G01*
G37*
G36*
G01*
X122585000Y-50145000D02*
X122585000Y-49595000D01*
G75*
G02*
X122785000Y-49395000I200000J0D01*
G01*
X123185000Y-49395000D01*
G75*
G02*
X123385000Y-49595000I0J-200000D01*
G01*
X123385000Y-50145000D01*
G75*
G02*
X123185000Y-50345000I-200000J0D01*
G01*
X122785000Y-50345000D01*
G75*
G02*
X122585000Y-50145000I0J200000D01*
G01*
G37*
G36*
G01*
X120935000Y-50145000D02*
X120935000Y-49595000D01*
G75*
G02*
X121135000Y-49395000I200000J0D01*
G01*
X121535000Y-49395000D01*
G75*
G02*
X121735000Y-49595000I0J-200000D01*
G01*
X121735000Y-50145000D01*
G75*
G02*
X121535000Y-50345000I-200000J0D01*
G01*
X121135000Y-50345000D01*
G75*
G02*
X120935000Y-50145000I0J200000D01*
G01*
G37*
G36*
G01*
X106795000Y-41300000D02*
X106245000Y-41300000D01*
G75*
G02*
X106045000Y-41100000I0J200000D01*
G01*
X106045000Y-40700000D01*
G75*
G02*
X106245000Y-40500000I200000J0D01*
G01*
X106795000Y-40500000D01*
G75*
G02*
X106995000Y-40700000I0J-200000D01*
G01*
X106995000Y-41100000D01*
G75*
G02*
X106795000Y-41300000I-200000J0D01*
G01*
G37*
G36*
G01*
X106795000Y-42950000D02*
X106245000Y-42950000D01*
G75*
G02*
X106045000Y-42750000I0J200000D01*
G01*
X106045000Y-42350000D01*
G75*
G02*
X106245000Y-42150000I200000J0D01*
G01*
X106795000Y-42150000D01*
G75*
G02*
X106995000Y-42350000I0J-200000D01*
G01*
X106995000Y-42750000D01*
G75*
G02*
X106795000Y-42950000I-200000J0D01*
G01*
G37*
G36*
G01*
X108933750Y-41892500D02*
X109446250Y-41892500D01*
G75*
G02*
X109665000Y-42111250I0J-218750D01*
G01*
X109665000Y-42548750D01*
G75*
G02*
X109446250Y-42767500I-218750J0D01*
G01*
X108933750Y-42767500D01*
G75*
G02*
X108715000Y-42548750I0J218750D01*
G01*
X108715000Y-42111250D01*
G75*
G02*
X108933750Y-41892500I218750J0D01*
G01*
G37*
G36*
G01*
X108933750Y-40317500D02*
X109446250Y-40317500D01*
G75*
G02*
X109665000Y-40536250I0J-218750D01*
G01*
X109665000Y-40973750D01*
G75*
G02*
X109446250Y-41192500I-218750J0D01*
G01*
X108933750Y-41192500D01*
G75*
G02*
X108715000Y-40973750I0J218750D01*
G01*
X108715000Y-40536250D01*
G75*
G02*
X108933750Y-40317500I218750J0D01*
G01*
G37*
G36*
G01*
X117327500Y-42043750D02*
X117327500Y-42556250D01*
G75*
G02*
X117108750Y-42775000I-218750J0D01*
G01*
X116671250Y-42775000D01*
G75*
G02*
X116452500Y-42556250I0J218750D01*
G01*
X116452500Y-42043750D01*
G75*
G02*
X116671250Y-41825000I218750J0D01*
G01*
X117108750Y-41825000D01*
G75*
G02*
X117327500Y-42043750I0J-218750D01*
G01*
G37*
G36*
G01*
X118902500Y-42043750D02*
X118902500Y-42556250D01*
G75*
G02*
X118683750Y-42775000I-218750J0D01*
G01*
X118246250Y-42775000D01*
G75*
G02*
X118027500Y-42556250I0J218750D01*
G01*
X118027500Y-42043750D01*
G75*
G02*
X118246250Y-41825000I218750J0D01*
G01*
X118683750Y-41825000D01*
G75*
G02*
X118902500Y-42043750I0J-218750D01*
G01*
G37*
G36*
G01*
X118032500Y-41006250D02*
X118032500Y-40493750D01*
G75*
G02*
X118251250Y-40275000I218750J0D01*
G01*
X118688750Y-40275000D01*
G75*
G02*
X118907500Y-40493750I0J-218750D01*
G01*
X118907500Y-41006250D01*
G75*
G02*
X118688750Y-41225000I-218750J0D01*
G01*
X118251250Y-41225000D01*
G75*
G02*
X118032500Y-41006250I0J218750D01*
G01*
G37*
G36*
G01*
X116457500Y-41006250D02*
X116457500Y-40493750D01*
G75*
G02*
X116676250Y-40275000I218750J0D01*
G01*
X117113750Y-40275000D01*
G75*
G02*
X117332500Y-40493750I0J-218750D01*
G01*
X117332500Y-41006250D01*
G75*
G02*
X117113750Y-41225000I-218750J0D01*
G01*
X116676250Y-41225000D01*
G75*
G02*
X116457500Y-41006250I0J218750D01*
G01*
G37*
G36*
G01*
X123190000Y-55400000D02*
X122690000Y-55400000D01*
G75*
G02*
X122465000Y-55175000I0J225000D01*
G01*
X122465000Y-54725000D01*
G75*
G02*
X122690000Y-54500000I225000J0D01*
G01*
X123190000Y-54500000D01*
G75*
G02*
X123415000Y-54725000I0J-225000D01*
G01*
X123415000Y-55175000D01*
G75*
G02*
X123190000Y-55400000I-225000J0D01*
G01*
G37*
G36*
G01*
X123190000Y-56950000D02*
X122690000Y-56950000D01*
G75*
G02*
X122465000Y-56725000I0J225000D01*
G01*
X122465000Y-56275000D01*
G75*
G02*
X122690000Y-56050000I225000J0D01*
G01*
X123190000Y-56050000D01*
G75*
G02*
X123415000Y-56275000I0J-225000D01*
G01*
X123415000Y-56725000D01*
G75*
G02*
X123190000Y-56950000I-225000J0D01*
G01*
G37*
G36*
G01*
X111500000Y-55040000D02*
X111000000Y-55040000D01*
G75*
G02*
X110775000Y-54815000I0J225000D01*
G01*
X110775000Y-54365000D01*
G75*
G02*
X111000000Y-54140000I225000J0D01*
G01*
X111500000Y-54140000D01*
G75*
G02*
X111725000Y-54365000I0J-225000D01*
G01*
X111725000Y-54815000D01*
G75*
G02*
X111500000Y-55040000I-225000J0D01*
G01*
G37*
G36*
G01*
X111500000Y-56590000D02*
X111000000Y-56590000D01*
G75*
G02*
X110775000Y-56365000I0J225000D01*
G01*
X110775000Y-55915000D01*
G75*
G02*
X111000000Y-55690000I225000J0D01*
G01*
X111500000Y-55690000D01*
G75*
G02*
X111725000Y-55915000I0J-225000D01*
G01*
X111725000Y-56365000D01*
G75*
G02*
X111500000Y-56590000I-225000J0D01*
G01*
G37*
G36*
G01*
X109530000Y-55030000D02*
X109030000Y-55030000D01*
G75*
G02*
X108805000Y-54805000I0J225000D01*
G01*
X108805000Y-54355000D01*
G75*
G02*
X109030000Y-54130000I225000J0D01*
G01*
X109530000Y-54130000D01*
G75*
G02*
X109755000Y-54355000I0J-225000D01*
G01*
X109755000Y-54805000D01*
G75*
G02*
X109530000Y-55030000I-225000J0D01*
G01*
G37*
G36*
G01*
X109530000Y-56580000D02*
X109030000Y-56580000D01*
G75*
G02*
X108805000Y-56355000I0J225000D01*
G01*
X108805000Y-55905000D01*
G75*
G02*
X109030000Y-55680000I225000J0D01*
G01*
X109530000Y-55680000D01*
G75*
G02*
X109755000Y-55905000I0J-225000D01*
G01*
X109755000Y-56355000D01*
G75*
G02*
X109530000Y-56580000I-225000J0D01*
G01*
G37*
G36*
G01*
X107410000Y-55310000D02*
X106910000Y-55310000D01*
G75*
G02*
X106685000Y-55085000I0J225000D01*
G01*
X106685000Y-54635000D01*
G75*
G02*
X106910000Y-54410000I225000J0D01*
G01*
X107410000Y-54410000D01*
G75*
G02*
X107635000Y-54635000I0J-225000D01*
G01*
X107635000Y-55085000D01*
G75*
G02*
X107410000Y-55310000I-225000J0D01*
G01*
G37*
G36*
G01*
X107410000Y-56860000D02*
X106910000Y-56860000D01*
G75*
G02*
X106685000Y-56635000I0J225000D01*
G01*
X106685000Y-56185000D01*
G75*
G02*
X106910000Y-55960000I225000J0D01*
G01*
X107410000Y-55960000D01*
G75*
G02*
X107635000Y-56185000I0J-225000D01*
G01*
X107635000Y-56635000D01*
G75*
G02*
X107410000Y-56860000I-225000J0D01*
G01*
G37*
G36*
G01*
X105210000Y-56630000D02*
X105210000Y-56130000D01*
G75*
G02*
X105435000Y-55905000I225000J0D01*
G01*
X105885000Y-55905000D01*
G75*
G02*
X106110000Y-56130000I0J-225000D01*
G01*
X106110000Y-56630000D01*
G75*
G02*
X105885000Y-56855000I-225000J0D01*
G01*
X105435000Y-56855000D01*
G75*
G02*
X105210000Y-56630000I0J225000D01*
G01*
G37*
G36*
G01*
X103660000Y-56630000D02*
X103660000Y-56130000D01*
G75*
G02*
X103885000Y-55905000I225000J0D01*
G01*
X104335000Y-55905000D01*
G75*
G02*
X104560000Y-56130000I0J-225000D01*
G01*
X104560000Y-56630000D01*
G75*
G02*
X104335000Y-56855000I-225000J0D01*
G01*
X103885000Y-56855000D01*
G75*
G02*
X103660000Y-56630000I0J225000D01*
G01*
G37*
G36*
G01*
X124720000Y-55400000D02*
X124220000Y-55400000D01*
G75*
G02*
X123995000Y-55175000I0J225000D01*
G01*
X123995000Y-54725000D01*
G75*
G02*
X124220000Y-54500000I225000J0D01*
G01*
X124720000Y-54500000D01*
G75*
G02*
X124945000Y-54725000I0J-225000D01*
G01*
X124945000Y-55175000D01*
G75*
G02*
X124720000Y-55400000I-225000J0D01*
G01*
G37*
G36*
G01*
X124720000Y-56950000D02*
X124220000Y-56950000D01*
G75*
G02*
X123995000Y-56725000I0J225000D01*
G01*
X123995000Y-56275000D01*
G75*
G02*
X124220000Y-56050000I225000J0D01*
G01*
X124720000Y-56050000D01*
G75*
G02*
X124945000Y-56275000I0J-225000D01*
G01*
X124945000Y-56725000D01*
G75*
G02*
X124720000Y-56950000I-225000J0D01*
G01*
G37*
G36*
G01*
X108950000Y-44925000D02*
X109450000Y-44925000D01*
G75*
G02*
X109675000Y-45150000I0J-225000D01*
G01*
X109675000Y-45600000D01*
G75*
G02*
X109450000Y-45825000I-225000J0D01*
G01*
X108950000Y-45825000D01*
G75*
G02*
X108725000Y-45600000I0J225000D01*
G01*
X108725000Y-45150000D01*
G75*
G02*
X108950000Y-44925000I225000J0D01*
G01*
G37*
G36*
G01*
X108950000Y-43375000D02*
X109450000Y-43375000D01*
G75*
G02*
X109675000Y-43600000I0J-225000D01*
G01*
X109675000Y-44050000D01*
G75*
G02*
X109450000Y-44275000I-225000J0D01*
G01*
X108950000Y-44275000D01*
G75*
G02*
X108725000Y-44050000I0J225000D01*
G01*
X108725000Y-43600000D01*
G75*
G02*
X108950000Y-43375000I225000J0D01*
G01*
G37*
G36*
G01*
X116500000Y-35365000D02*
X116000000Y-35365000D01*
G75*
G02*
X115775000Y-35140000I0J225000D01*
G01*
X115775000Y-34690000D01*
G75*
G02*
X116000000Y-34465000I225000J0D01*
G01*
X116500000Y-34465000D01*
G75*
G02*
X116725000Y-34690000I0J-225000D01*
G01*
X116725000Y-35140000D01*
G75*
G02*
X116500000Y-35365000I-225000J0D01*
G01*
G37*
G36*
G01*
X116500000Y-36915000D02*
X116000000Y-36915000D01*
G75*
G02*
X115775000Y-36690000I0J225000D01*
G01*
X115775000Y-36240000D01*
G75*
G02*
X116000000Y-36015000I225000J0D01*
G01*
X116500000Y-36015000D01*
G75*
G02*
X116725000Y-36240000I0J-225000D01*
G01*
X116725000Y-36690000D01*
G75*
G02*
X116500000Y-36915000I-225000J0D01*
G01*
G37*
G36*
G01*
X103960000Y-52880000D02*
X103960000Y-53380000D01*
G75*
G02*
X103735000Y-53605000I-225000J0D01*
G01*
X103285000Y-53605000D01*
G75*
G02*
X103060000Y-53380000I0J225000D01*
G01*
X103060000Y-52880000D01*
G75*
G02*
X103285000Y-52655000I225000J0D01*
G01*
X103735000Y-52655000D01*
G75*
G02*
X103960000Y-52880000I0J-225000D01*
G01*
G37*
G36*
G01*
X105510000Y-52880000D02*
X105510000Y-53380000D01*
G75*
G02*
X105285000Y-53605000I-225000J0D01*
G01*
X104835000Y-53605000D01*
G75*
G02*
X104610000Y-53380000I0J225000D01*
G01*
X104610000Y-52880000D01*
G75*
G02*
X104835000Y-52655000I225000J0D01*
G01*
X105285000Y-52655000D01*
G75*
G02*
X105510000Y-52880000I0J-225000D01*
G01*
G37*
G36*
G01*
X122420000Y-42650000D02*
X122420000Y-42150000D01*
G75*
G02*
X122645000Y-41925000I225000J0D01*
G01*
X123095000Y-41925000D01*
G75*
G02*
X123320000Y-42150000I0J-225000D01*
G01*
X123320000Y-42650000D01*
G75*
G02*
X123095000Y-42875000I-225000J0D01*
G01*
X122645000Y-42875000D01*
G75*
G02*
X122420000Y-42650000I0J225000D01*
G01*
G37*
G36*
G01*
X120870000Y-42650000D02*
X120870000Y-42150000D01*
G75*
G02*
X121095000Y-41925000I225000J0D01*
G01*
X121545000Y-41925000D01*
G75*
G02*
X121770000Y-42150000I0J-225000D01*
G01*
X121770000Y-42650000D01*
G75*
G02*
X121545000Y-42875000I-225000J0D01*
G01*
X121095000Y-42875000D01*
G75*
G02*
X120870000Y-42650000I0J225000D01*
G01*
G37*
G36*
G01*
X122420000Y-41110000D02*
X122420000Y-40610000D01*
G75*
G02*
X122645000Y-40385000I225000J0D01*
G01*
X123095000Y-40385000D01*
G75*
G02*
X123320000Y-40610000I0J-225000D01*
G01*
X123320000Y-41110000D01*
G75*
G02*
X123095000Y-41335000I-225000J0D01*
G01*
X122645000Y-41335000D01*
G75*
G02*
X122420000Y-41110000I0J225000D01*
G01*
G37*
G36*
G01*
X120870000Y-41110000D02*
X120870000Y-40610000D01*
G75*
G02*
X121095000Y-40385000I225000J0D01*
G01*
X121545000Y-40385000D01*
G75*
G02*
X121770000Y-40610000I0J-225000D01*
G01*
X121770000Y-41110000D01*
G75*
G02*
X121545000Y-41335000I-225000J0D01*
G01*
X121095000Y-41335000D01*
G75*
G02*
X120870000Y-41110000I0J225000D01*
G01*
G37*
G36*
G01*
X119190000Y-48430000D02*
X119690000Y-48430000D01*
G75*
G02*
X119915000Y-48655000I0J-225000D01*
G01*
X119915000Y-49105000D01*
G75*
G02*
X119690000Y-49330000I-225000J0D01*
G01*
X119190000Y-49330000D01*
G75*
G02*
X118965000Y-49105000I0J225000D01*
G01*
X118965000Y-48655000D01*
G75*
G02*
X119190000Y-48430000I225000J0D01*
G01*
G37*
G36*
G01*
X119190000Y-46880000D02*
X119690000Y-46880000D01*
G75*
G02*
X119915000Y-47105000I0J-225000D01*
G01*
X119915000Y-47555000D01*
G75*
G02*
X119690000Y-47780000I-225000J0D01*
G01*
X119190000Y-47780000D01*
G75*
G02*
X118965000Y-47555000I0J225000D01*
G01*
X118965000Y-47105000D01*
G75*
G02*
X119190000Y-46880000I225000J0D01*
G01*
G37*
G36*
G01*
X117350000Y-43580000D02*
X117350000Y-44080000D01*
G75*
G02*
X117125000Y-44305000I-225000J0D01*
G01*
X116675000Y-44305000D01*
G75*
G02*
X116450000Y-44080000I0J225000D01*
G01*
X116450000Y-43580000D01*
G75*
G02*
X116675000Y-43355000I225000J0D01*
G01*
X117125000Y-43355000D01*
G75*
G02*
X117350000Y-43580000I0J-225000D01*
G01*
G37*
G36*
G01*
X118900000Y-43580000D02*
X118900000Y-44080000D01*
G75*
G02*
X118675000Y-44305000I-225000J0D01*
G01*
X118225000Y-44305000D01*
G75*
G02*
X118000000Y-44080000I0J225000D01*
G01*
X118000000Y-43580000D01*
G75*
G02*
X118225000Y-43355000I225000J0D01*
G01*
X118675000Y-43355000D01*
G75*
G02*
X118900000Y-43580000I0J-225000D01*
G01*
G37*
G36*
G01*
X117620000Y-48420000D02*
X118120000Y-48420000D01*
G75*
G02*
X118345000Y-48645000I0J-225000D01*
G01*
X118345000Y-49095000D01*
G75*
G02*
X118120000Y-49320000I-225000J0D01*
G01*
X117620000Y-49320000D01*
G75*
G02*
X117395000Y-49095000I0J225000D01*
G01*
X117395000Y-48645000D01*
G75*
G02*
X117620000Y-48420000I225000J0D01*
G01*
G37*
G36*
G01*
X117620000Y-46870000D02*
X118120000Y-46870000D01*
G75*
G02*
X118345000Y-47095000I0J-225000D01*
G01*
X118345000Y-47545000D01*
G75*
G02*
X118120000Y-47770000I-225000J0D01*
G01*
X117620000Y-47770000D01*
G75*
G02*
X117395000Y-47545000I0J225000D01*
G01*
X117395000Y-47095000D01*
G75*
G02*
X117620000Y-46870000I225000J0D01*
G01*
G37*
G36*
G01*
X114900000Y-48440000D02*
X115400000Y-48440000D01*
G75*
G02*
X115625000Y-48665000I0J-225000D01*
G01*
X115625000Y-49115000D01*
G75*
G02*
X115400000Y-49340000I-225000J0D01*
G01*
X114900000Y-49340000D01*
G75*
G02*
X114675000Y-49115000I0J225000D01*
G01*
X114675000Y-48665000D01*
G75*
G02*
X114900000Y-48440000I225000J0D01*
G01*
G37*
G36*
G01*
X114900000Y-46890000D02*
X115400000Y-46890000D01*
G75*
G02*
X115625000Y-47115000I0J-225000D01*
G01*
X115625000Y-47565000D01*
G75*
G02*
X115400000Y-47790000I-225000J0D01*
G01*
X114900000Y-47790000D01*
G75*
G02*
X114675000Y-47565000I0J225000D01*
G01*
X114675000Y-47115000D01*
G75*
G02*
X114900000Y-46890000I225000J0D01*
G01*
G37*
G36*
G01*
X122400000Y-39530000D02*
X122400000Y-39030000D01*
G75*
G02*
X122625000Y-38805000I225000J0D01*
G01*
X123075000Y-38805000D01*
G75*
G02*
X123300000Y-39030000I0J-225000D01*
G01*
X123300000Y-39530000D01*
G75*
G02*
X123075000Y-39755000I-225000J0D01*
G01*
X122625000Y-39755000D01*
G75*
G02*
X122400000Y-39530000I0J225000D01*
G01*
G37*
G36*
G01*
X120850000Y-39530000D02*
X120850000Y-39030000D01*
G75*
G02*
X121075000Y-38805000I225000J0D01*
G01*
X121525000Y-38805000D01*
G75*
G02*
X121750000Y-39030000I0J-225000D01*
G01*
X121750000Y-39530000D01*
G75*
G02*
X121525000Y-39755000I-225000J0D01*
G01*
X121075000Y-39755000D01*
G75*
G02*
X120850000Y-39530000I0J225000D01*
G01*
G37*
G36*
G01*
X112500000Y-35390000D02*
X112000000Y-35390000D01*
G75*
G02*
X111775000Y-35165000I0J225000D01*
G01*
X111775000Y-34715000D01*
G75*
G02*
X112000000Y-34490000I225000J0D01*
G01*
X112500000Y-34490000D01*
G75*
G02*
X112725000Y-34715000I0J-225000D01*
G01*
X112725000Y-35165000D01*
G75*
G02*
X112500000Y-35390000I-225000J0D01*
G01*
G37*
G36*
G01*
X112500000Y-36940000D02*
X112000000Y-36940000D01*
G75*
G02*
X111775000Y-36715000I0J225000D01*
G01*
X111775000Y-36265000D01*
G75*
G02*
X112000000Y-36040000I225000J0D01*
G01*
X112500000Y-36040000D01*
G75*
G02*
X112725000Y-36265000I0J-225000D01*
G01*
X112725000Y-36715000D01*
G75*
G02*
X112500000Y-36940000I-225000J0D01*
G01*
G37*
G36*
G01*
X108120000Y-38930000D02*
X108120000Y-39430000D01*
G75*
G02*
X107895000Y-39655000I-225000J0D01*
G01*
X107445000Y-39655000D01*
G75*
G02*
X107220000Y-39430000I0J225000D01*
G01*
X107220000Y-38930000D01*
G75*
G02*
X107445000Y-38705000I225000J0D01*
G01*
X107895000Y-38705000D01*
G75*
G02*
X108120000Y-38930000I0J-225000D01*
G01*
G37*
G36*
G01*
X109670000Y-38930000D02*
X109670000Y-39430000D01*
G75*
G02*
X109445000Y-39655000I-225000J0D01*
G01*
X108995000Y-39655000D01*
G75*
G02*
X108770000Y-39430000I0J225000D01*
G01*
X108770000Y-38930000D01*
G75*
G02*
X108995000Y-38705000I225000J0D01*
G01*
X109445000Y-38705000D01*
G75*
G02*
X109670000Y-38930000I0J-225000D01*
G01*
G37*
M02*
