%FSLAX45Y45*%
G04 Gerber Fmt 4.5, Leading zero omitted, Abs format (unit mm)*
G04 Created by KiCad (PCBNEW (5.1.12)-1) date 2022-01-26 09:34:38*
%MOMM*%
%LPD*%
G01*
G04 APERTURE LIST*
%TA.AperFunction,Profile*%
%ADD10C,0.038100*%
%TD*%
%ADD11C,0.200000*%
%ADD12C,0.300000*%
G04 APERTURE END LIST*
D10*
X10000000Y-6000000D02*
X10000000Y-3000000D01*
X10000000Y-6000000D02*
X13000000Y-6000000D01*
X13000000Y-3000000D02*
X13000000Y-6000000D01*
X10000000Y-3000000D02*
X13000000Y-3000000D01*
D11*
X10047000Y-3990000D02*
X10077000Y-4020000D01*
X10077000Y-3990000D02*
X10047000Y-4020000D01*
X10048000Y-3843000D02*
X10078000Y-3873000D01*
X10078000Y-3843000D02*
X10048000Y-3873000D01*
X10163000Y-5576000D02*
X10193000Y-5606000D01*
X10193000Y-5576000D02*
X10163000Y-5606000D01*
X10201000Y-3961000D02*
X10231000Y-3991000D01*
X10231000Y-3961000D02*
X10201000Y-3991000D01*
X10265000Y-3563000D02*
X10295000Y-3593000D01*
X10295000Y-3563000D02*
X10265000Y-3593000D01*
X10301000Y-5933000D02*
X10331000Y-5963000D01*
X10331000Y-5933000D02*
X10301000Y-5963000D01*
X10342000Y-5380000D02*
X10372000Y-5410000D01*
X10372000Y-5380000D02*
X10342000Y-5410000D01*
X10388000Y-5757000D02*
X10418000Y-5787000D01*
X10418000Y-5757000D02*
X10388000Y-5787000D01*
X10391000Y-3844000D02*
X10421000Y-3874000D01*
X10421000Y-3844000D02*
X10391000Y-3874000D01*
X10401000Y-5862000D02*
X10431000Y-5892000D01*
X10431000Y-5862000D02*
X10401000Y-5892000D01*
X10406000Y-3360000D02*
X10436000Y-3390000D01*
X10436000Y-3360000D02*
X10406000Y-3390000D01*
X10410000Y-4423000D02*
X10440000Y-4453000D01*
X10440000Y-4423000D02*
X10410000Y-4453000D01*
X10474000Y-4504000D02*
X10504000Y-4534000D01*
X10504000Y-4504000D02*
X10474000Y-4534000D01*
X10535000Y-4076000D02*
X10565000Y-4106000D01*
X10565000Y-4076000D02*
X10535000Y-4106000D01*
X10607000Y-5438000D02*
X10637000Y-5468000D01*
X10637000Y-5438000D02*
X10607000Y-5468000D01*
X10716000Y-4761000D02*
X10746000Y-4791000D01*
X10746000Y-4761000D02*
X10716000Y-4791000D01*
X10734000Y-3083000D02*
X10764000Y-3113000D01*
X10764000Y-3083000D02*
X10734000Y-3113000D01*
X10769000Y-4240000D02*
X10799000Y-4270000D01*
X10799000Y-4240000D02*
X10769000Y-4270000D01*
X10779000Y-4524000D02*
X10809000Y-4554000D01*
X10809000Y-4524000D02*
X10779000Y-4554000D01*
X10783000Y-3706000D02*
X10813000Y-3736000D01*
X10813000Y-3706000D02*
X10783000Y-3736000D01*
X10797000Y-4411000D02*
X10827000Y-4441000D01*
X10827000Y-4411000D02*
X10797000Y-4441000D01*
X10853000Y-4812000D02*
X10883000Y-4842000D01*
X10883000Y-4812000D02*
X10853000Y-4842000D01*
X10867000Y-3250000D02*
X10897000Y-3280000D01*
X10897000Y-3250000D02*
X10867000Y-3280000D01*
X10899000Y-3430000D02*
X10929000Y-3460000D01*
X10929000Y-3430000D02*
X10899000Y-3460000D01*
X10912000Y-3073000D02*
X10942000Y-3103000D01*
X10942000Y-3073000D02*
X10912000Y-3103000D01*
X10926000Y-5206000D02*
X10956000Y-5236000D01*
X10956000Y-5206000D02*
X10926000Y-5236000D01*
X10927000Y-4656000D02*
X10957000Y-4686000D01*
X10957000Y-4656000D02*
X10927000Y-4686000D01*
X11014000Y-5499000D02*
X11044000Y-5529000D01*
X11044000Y-5499000D02*
X11014000Y-5529000D01*
X11023000Y-4266000D02*
X11053000Y-4296000D01*
X11053000Y-4266000D02*
X11023000Y-4296000D01*
X11026000Y-3903000D02*
X11056000Y-3933000D01*
X11056000Y-3903000D02*
X11026000Y-3933000D01*
X11029000Y-4355000D02*
X11059000Y-4385000D01*
X11059000Y-4355000D02*
X11029000Y-4385000D01*
X11058000Y-5122000D02*
X11088000Y-5152000D01*
X11088000Y-5122000D02*
X11058000Y-5152000D01*
X11119000Y-5719000D02*
X11149000Y-5749000D01*
X11149000Y-5719000D02*
X11119000Y-5749000D01*
X11124000Y-3554000D02*
X11154000Y-3584000D01*
X11154000Y-3554000D02*
X11124000Y-3584000D01*
X11201000Y-4975000D02*
X11231000Y-5005000D01*
X11231000Y-4975000D02*
X11201000Y-5005000D01*
X11202000Y-3732000D02*
X11232000Y-3762000D01*
X11232000Y-3732000D02*
X11202000Y-3762000D01*
X11222000Y-3370000D02*
X11252000Y-3400000D01*
X11252000Y-3370000D02*
X11222000Y-3400000D01*
X11240000Y-5719000D02*
X11270000Y-5749000D01*
X11270000Y-5719000D02*
X11240000Y-5749000D01*
X11423000Y-4639000D02*
X11453000Y-4669000D01*
X11453000Y-4639000D02*
X11423000Y-4669000D01*
X11426000Y-3407000D02*
X11456000Y-3437000D01*
X11456000Y-3407000D02*
X11426000Y-3437000D01*
X11485000Y-3715000D02*
X11515000Y-3745000D01*
X11515000Y-3715000D02*
X11485000Y-3745000D01*
X11515000Y-4616000D02*
X11545000Y-4646000D01*
X11545000Y-4616000D02*
X11515000Y-4646000D01*
X11598000Y-4847000D02*
X11628000Y-4877000D01*
X11628000Y-4847000D02*
X11598000Y-4877000D01*
X11610000Y-3736000D02*
X11640000Y-3766000D01*
X11640000Y-3736000D02*
X11610000Y-3766000D01*
X11711000Y-5163000D02*
X11741000Y-5193000D01*
X11741000Y-5163000D02*
X11711000Y-5193000D01*
X11712000Y-4614000D02*
X11742000Y-4644000D01*
X11742000Y-4614000D02*
X11712000Y-4644000D01*
X11748000Y-3360000D02*
X11778000Y-3390000D01*
X11778000Y-3360000D02*
X11748000Y-3390000D01*
X11779000Y-3453000D02*
X11809000Y-3483000D01*
X11809000Y-3453000D02*
X11779000Y-3483000D01*
X11812000Y-5741000D02*
X11842000Y-5771000D01*
X11842000Y-5741000D02*
X11812000Y-5771000D01*
X11842000Y-4636000D02*
X11872000Y-4666000D01*
X11872000Y-4636000D02*
X11842000Y-4666000D01*
X11860000Y-3806000D02*
X11890000Y-3836000D01*
X11890000Y-3806000D02*
X11860000Y-3836000D01*
X11876000Y-4979000D02*
X11906000Y-5009000D01*
X11906000Y-4979000D02*
X11876000Y-5009000D01*
X11889000Y-5117000D02*
X11919000Y-5147000D01*
X11919000Y-5117000D02*
X11889000Y-5147000D01*
X11933000Y-4514000D02*
X11963000Y-4544000D01*
X11963000Y-4514000D02*
X11933000Y-4544000D01*
X11954000Y-4059200D02*
X11984000Y-4089200D01*
X11984000Y-4059200D02*
X11954000Y-4089200D01*
X11974000Y-5510000D02*
X12004000Y-5540000D01*
X12004000Y-5510000D02*
X11974000Y-5540000D01*
X11980000Y-4263000D02*
X12010000Y-4293000D01*
X12010000Y-4263000D02*
X11980000Y-4293000D01*
X11991000Y-3914000D02*
X12021000Y-3944000D01*
X12021000Y-3914000D02*
X11991000Y-3944000D01*
X12013000Y-3996000D02*
X12043000Y-4026000D01*
X12043000Y-3996000D02*
X12013000Y-4026000D01*
X12014000Y-3658000D02*
X12044000Y-3688000D01*
X12044000Y-3658000D02*
X12014000Y-3688000D01*
X12044000Y-3545000D02*
X12074000Y-3575000D01*
X12074000Y-3545000D02*
X12044000Y-3575000D01*
X12140000Y-3544000D02*
X12170000Y-3574000D01*
X12170000Y-3544000D02*
X12140000Y-3574000D01*
X12195000Y-4669000D02*
X12225000Y-4699000D01*
X12225000Y-4669000D02*
X12195000Y-4699000D01*
X12203000Y-5047000D02*
X12233000Y-5077000D01*
X12233000Y-5047000D02*
X12203000Y-5077000D01*
X12214000Y-5198000D02*
X12244000Y-5228000D01*
X12244000Y-5198000D02*
X12214000Y-5228000D01*
X12227000Y-5368000D02*
X12257000Y-5398000D01*
X12257000Y-5368000D02*
X12227000Y-5398000D01*
X12232000Y-3513000D02*
X12262000Y-3543000D01*
X12262000Y-3513000D02*
X12232000Y-3543000D01*
X12273000Y-3648000D02*
X12303000Y-3678000D01*
X12303000Y-3648000D02*
X12273000Y-3678000D01*
X12291000Y-4474000D02*
X12321000Y-4504000D01*
X12321000Y-4474000D02*
X12291000Y-4504000D01*
X12387000Y-4997000D02*
X12417000Y-5027000D01*
X12417000Y-4997000D02*
X12387000Y-5027000D01*
X12394000Y-4799000D02*
X12424000Y-4829000D01*
X12424000Y-4799000D02*
X12394000Y-4829000D01*
X12423000Y-5197000D02*
X12453000Y-5227000D01*
X12453000Y-5197000D02*
X12423000Y-5227000D01*
X12427000Y-4113000D02*
X12457000Y-4143000D01*
X12457000Y-4113000D02*
X12427000Y-4143000D01*
X12458000Y-3863000D02*
X12488000Y-3893000D01*
X12488000Y-3863000D02*
X12458000Y-3893000D01*
X12525000Y-5493000D02*
X12555000Y-5523000D01*
X12555000Y-5493000D02*
X12525000Y-5523000D01*
X12535000Y-3712000D02*
X12565000Y-3742000D01*
X12565000Y-3712000D02*
X12535000Y-3742000D01*
X12548000Y-4319000D02*
X12578000Y-4349000D01*
X12578000Y-4319000D02*
X12548000Y-4349000D01*
X12572000Y-5595000D02*
X12602000Y-5625000D01*
X12602000Y-5595000D02*
X12572000Y-5625000D01*
X12572000Y-5856000D02*
X12602000Y-5886000D01*
X12602000Y-5856000D02*
X12572000Y-5886000D01*
X12585000Y-4238000D02*
X12615000Y-4268000D01*
X12615000Y-4238000D02*
X12585000Y-4268000D01*
X12609000Y-3996000D02*
X12639000Y-4026000D01*
X12639000Y-3996000D02*
X12609000Y-4026000D01*
X12624000Y-3051000D02*
X12654000Y-3081000D01*
X12654000Y-3051000D02*
X12624000Y-3081000D01*
X12756000Y-4738000D02*
X12786000Y-4768000D01*
X12786000Y-4738000D02*
X12756000Y-4768000D01*
X12820000Y-4844000D02*
X12850000Y-4874000D01*
X12850000Y-4844000D02*
X12820000Y-4874000D01*
X12856000Y-4467000D02*
X12886000Y-4497000D01*
X12886000Y-4467000D02*
X12856000Y-4497000D01*
X12874000Y-4276000D02*
X12904000Y-4306000D01*
X12904000Y-4276000D02*
X12874000Y-4306000D01*
X12909000Y-4096000D02*
X12939000Y-4126000D01*
X12939000Y-4096000D02*
X12909000Y-4126000D01*
X12926000Y-4340000D02*
X12956000Y-4370000D01*
X12956000Y-4340000D02*
X12926000Y-4370000D01*
X10212000Y-5461000D02*
G75*
G03*
X10212000Y-5461000I-25000J0D01*
G01*
X10312000Y-5461000D02*
G75*
G03*
X10312000Y-5461000I-25000J0D01*
G01*
X10194000Y-4755000D02*
X10194000Y-4815000D01*
X10164000Y-4785000D02*
X10224000Y-4785000D01*
X12018982Y-4133917D02*
X12018982Y-4193917D01*
X11988982Y-4163917D02*
X12048982Y-4163917D01*
X12135000Y-5305000D02*
X12135000Y-5365000D01*
X12105000Y-5335000D02*
X12165000Y-5335000D01*
X10177356Y-3484356D02*
X10177356Y-3413644D01*
X10106644Y-3413644D01*
X10106644Y-3484356D01*
X10177356Y-3484356D01*
X10177356Y-3738356D02*
X10177356Y-3667644D01*
X10106644Y-3667644D01*
X10106644Y-3738356D01*
X10177356Y-3738356D01*
X10229356Y-4381356D02*
X10229356Y-4310644D01*
X10158644Y-4310644D01*
X10158644Y-4381356D01*
X10229356Y-4381356D01*
X10229356Y-4635356D02*
X10229356Y-4564644D01*
X10158644Y-4564644D01*
X10158644Y-4635356D01*
X10229356Y-4635356D01*
X10229356Y-5011356D02*
X10229356Y-4940644D01*
X10158644Y-4940644D01*
X10158644Y-5011356D01*
X10229356Y-5011356D01*
X10229356Y-5265356D02*
X10229356Y-5194644D01*
X10158644Y-5194644D01*
X10158644Y-5265356D01*
X10229356Y-5265356D01*
X12177356Y-3229356D02*
X12177356Y-3158644D01*
X12106644Y-3158644D01*
X12106644Y-3229356D01*
X12177356Y-3229356D01*
X12431356Y-3229356D02*
X12431356Y-3158644D01*
X12360644Y-3158644D01*
X12360644Y-3229356D01*
X12431356Y-3229356D01*
X12845356Y-3681356D02*
X12845356Y-3610644D01*
X12774644Y-3610644D01*
X12774644Y-3681356D01*
X12845356Y-3681356D01*
X12845356Y-3935356D02*
X12845356Y-3864644D01*
X12774644Y-3864644D01*
X12774644Y-3935356D01*
X12845356Y-3935356D01*
D12*
X10284523Y-6467619D02*
X10284523Y-6167619D01*
X10355952Y-6167619D01*
X10398809Y-6181905D01*
X10427381Y-6210476D01*
X10441666Y-6239048D01*
X10455952Y-6296191D01*
X10455952Y-6339048D01*
X10441666Y-6396191D01*
X10427381Y-6424762D01*
X10398809Y-6453334D01*
X10355952Y-6467619D01*
X10284523Y-6467619D01*
X10584523Y-6467619D02*
X10584523Y-6267619D01*
X10584523Y-6324762D02*
X10598809Y-6296191D01*
X10613095Y-6281905D01*
X10641666Y-6267619D01*
X10670238Y-6267619D01*
X10770238Y-6467619D02*
X10770238Y-6267619D01*
X10770238Y-6167619D02*
X10755952Y-6181905D01*
X10770238Y-6196191D01*
X10784523Y-6181905D01*
X10770238Y-6167619D01*
X10770238Y-6196191D01*
X10955952Y-6467619D02*
X10927381Y-6453334D01*
X10913095Y-6424762D01*
X10913095Y-6167619D01*
X11113095Y-6467619D02*
X11084523Y-6453334D01*
X11070238Y-6424762D01*
X11070238Y-6167619D01*
X11455952Y-6467619D02*
X11455952Y-6167619D01*
X11555952Y-6381905D01*
X11655952Y-6167619D01*
X11655952Y-6467619D01*
X11927381Y-6467619D02*
X11927381Y-6310476D01*
X11913095Y-6281905D01*
X11884523Y-6267619D01*
X11827381Y-6267619D01*
X11798809Y-6281905D01*
X11927381Y-6453334D02*
X11898809Y-6467619D01*
X11827381Y-6467619D01*
X11798809Y-6453334D01*
X11784523Y-6424762D01*
X11784523Y-6396191D01*
X11798809Y-6367619D01*
X11827381Y-6353334D01*
X11898809Y-6353334D01*
X11927381Y-6339048D01*
X12070238Y-6267619D02*
X12070238Y-6567619D01*
X12070238Y-6281905D02*
X12098809Y-6267619D01*
X12155952Y-6267619D01*
X12184523Y-6281905D01*
X12198809Y-6296191D01*
X12213095Y-6324762D01*
X12213095Y-6410476D01*
X12198809Y-6439048D01*
X12184523Y-6453334D01*
X12155952Y-6467619D01*
X12098809Y-6467619D01*
X12070238Y-6453334D01*
X12341666Y-6439048D02*
X12355952Y-6453334D01*
X12341666Y-6467619D01*
X12327381Y-6453334D01*
X12341666Y-6439048D01*
X12341666Y-6467619D01*
X12341666Y-6281905D02*
X12355952Y-6296191D01*
X12341666Y-6310476D01*
X12327381Y-6296191D01*
X12341666Y-6281905D01*
X12341666Y-6310476D01*
X9968095Y-6946905D02*
X9998095Y-6976905D01*
X9998095Y-6946905D02*
X9968095Y-6976905D01*
X10341666Y-6797619D02*
X10370238Y-6797619D01*
X10398809Y-6811905D01*
X10413095Y-6826191D01*
X10427381Y-6854762D01*
X10441666Y-6911905D01*
X10441666Y-6983334D01*
X10427381Y-7040476D01*
X10413095Y-7069048D01*
X10398809Y-7083334D01*
X10370238Y-7097619D01*
X10341666Y-7097619D01*
X10313095Y-7083334D01*
X10298809Y-7069048D01*
X10284523Y-7040476D01*
X10270238Y-6983334D01*
X10270238Y-6911905D01*
X10284523Y-6854762D01*
X10298809Y-6826191D01*
X10313095Y-6811905D01*
X10341666Y-6797619D01*
X10570238Y-7069048D02*
X10584523Y-7083334D01*
X10570238Y-7097619D01*
X10555952Y-7083334D01*
X10570238Y-7069048D01*
X10570238Y-7097619D01*
X10684523Y-6797619D02*
X10870238Y-6797619D01*
X10770238Y-6911905D01*
X10813095Y-6911905D01*
X10841666Y-6926191D01*
X10855952Y-6940476D01*
X10870238Y-6969048D01*
X10870238Y-7040476D01*
X10855952Y-7069048D01*
X10841666Y-7083334D01*
X10813095Y-7097619D01*
X10727381Y-7097619D01*
X10698809Y-7083334D01*
X10684523Y-7069048D01*
X11055952Y-6797619D02*
X11084523Y-6797619D01*
X11113095Y-6811905D01*
X11127381Y-6826191D01*
X11141666Y-6854762D01*
X11155952Y-6911905D01*
X11155952Y-6983334D01*
X11141666Y-7040476D01*
X11127381Y-7069048D01*
X11113095Y-7083334D01*
X11084523Y-7097619D01*
X11055952Y-7097619D01*
X11027381Y-7083334D01*
X11013095Y-7069048D01*
X10998809Y-7040476D01*
X10984523Y-6983334D01*
X10984523Y-6911905D01*
X10998809Y-6854762D01*
X11013095Y-6826191D01*
X11027381Y-6811905D01*
X11055952Y-6797619D01*
X11341666Y-6797619D02*
X11370238Y-6797619D01*
X11398809Y-6811905D01*
X11413095Y-6826191D01*
X11427381Y-6854762D01*
X11441666Y-6911905D01*
X11441666Y-6983334D01*
X11427381Y-7040476D01*
X11413095Y-7069048D01*
X11398809Y-7083334D01*
X11370238Y-7097619D01*
X11341666Y-7097619D01*
X11313095Y-7083334D01*
X11298809Y-7069048D01*
X11284523Y-7040476D01*
X11270238Y-6983334D01*
X11270238Y-6911905D01*
X11284523Y-6854762D01*
X11298809Y-6826191D01*
X11313095Y-6811905D01*
X11341666Y-6797619D01*
X11570238Y-7097619D02*
X11570238Y-6897619D01*
X11570238Y-6926191D02*
X11584523Y-6911905D01*
X11613095Y-6897619D01*
X11655952Y-6897619D01*
X11684523Y-6911905D01*
X11698809Y-6940476D01*
X11698809Y-7097619D01*
X11698809Y-6940476D02*
X11713095Y-6911905D01*
X11741666Y-6897619D01*
X11784523Y-6897619D01*
X11813095Y-6911905D01*
X11827381Y-6940476D01*
X11827381Y-7097619D01*
X11970238Y-7097619D02*
X11970238Y-6897619D01*
X11970238Y-6926191D02*
X11984523Y-6911905D01*
X12013095Y-6897619D01*
X12055952Y-6897619D01*
X12084523Y-6911905D01*
X12098809Y-6940476D01*
X12098809Y-7097619D01*
X12098809Y-6940476D02*
X12113095Y-6911905D01*
X12141666Y-6897619D01*
X12184523Y-6897619D01*
X12213095Y-6911905D01*
X12227381Y-6940476D01*
X12227381Y-7097619D01*
X12813095Y-6783334D02*
X12555952Y-7169048D01*
X13198809Y-6797619D02*
X13227381Y-6797619D01*
X13255952Y-6811905D01*
X13270238Y-6826191D01*
X13284523Y-6854762D01*
X13298809Y-6911905D01*
X13298809Y-6983334D01*
X13284523Y-7040476D01*
X13270238Y-7069048D01*
X13255952Y-7083334D01*
X13227381Y-7097619D01*
X13198809Y-7097619D01*
X13170238Y-7083334D01*
X13155952Y-7069048D01*
X13141666Y-7040476D01*
X13127381Y-6983334D01*
X13127381Y-6911905D01*
X13141666Y-6854762D01*
X13155952Y-6826191D01*
X13170238Y-6811905D01*
X13198809Y-6797619D01*
X13427381Y-7069048D02*
X13441666Y-7083334D01*
X13427381Y-7097619D01*
X13413095Y-7083334D01*
X13427381Y-7069048D01*
X13427381Y-7097619D01*
X13627381Y-6797619D02*
X13655952Y-6797619D01*
X13684523Y-6811905D01*
X13698809Y-6826191D01*
X13713095Y-6854762D01*
X13727381Y-6911905D01*
X13727381Y-6983334D01*
X13713095Y-7040476D01*
X13698809Y-7069048D01*
X13684523Y-7083334D01*
X13655952Y-7097619D01*
X13627381Y-7097619D01*
X13598809Y-7083334D01*
X13584523Y-7069048D01*
X13570238Y-7040476D01*
X13555952Y-6983334D01*
X13555952Y-6911905D01*
X13570238Y-6854762D01*
X13584523Y-6826191D01*
X13598809Y-6811905D01*
X13627381Y-6797619D01*
X14013095Y-7097619D02*
X13841666Y-7097619D01*
X13927381Y-7097619D02*
X13927381Y-6797619D01*
X13898809Y-6840476D01*
X13870238Y-6869048D01*
X13841666Y-6883334D01*
X14298809Y-7097619D02*
X14127381Y-7097619D01*
X14213095Y-7097619D02*
X14213095Y-6797619D01*
X14184523Y-6840476D01*
X14155952Y-6869048D01*
X14127381Y-6883334D01*
X14470238Y-6926191D02*
X14441666Y-6911905D01*
X14427381Y-6897619D01*
X14413095Y-6869048D01*
X14413095Y-6854762D01*
X14427381Y-6826191D01*
X14441666Y-6811905D01*
X14470238Y-6797619D01*
X14527381Y-6797619D01*
X14555952Y-6811905D01*
X14570238Y-6826191D01*
X14584523Y-6854762D01*
X14584523Y-6869048D01*
X14570238Y-6897619D01*
X14555952Y-6911905D01*
X14527381Y-6926191D01*
X14470238Y-6926191D01*
X14441666Y-6940476D01*
X14427381Y-6954762D01*
X14413095Y-6983334D01*
X14413095Y-7040476D01*
X14427381Y-7069048D01*
X14441666Y-7083334D01*
X14470238Y-7097619D01*
X14527381Y-7097619D01*
X14555952Y-7083334D01*
X14570238Y-7069048D01*
X14584523Y-7040476D01*
X14584523Y-6983334D01*
X14570238Y-6954762D01*
X14555952Y-6940476D01*
X14527381Y-6926191D01*
X14698809Y-6797619D02*
X14698809Y-6854762D01*
X14813095Y-6797619D02*
X14813095Y-6854762D01*
X15255952Y-7211905D02*
X15241666Y-7197619D01*
X15213095Y-7154762D01*
X15198809Y-7126191D01*
X15184523Y-7083334D01*
X15170238Y-7011905D01*
X15170238Y-6954762D01*
X15184523Y-6883334D01*
X15198809Y-6840476D01*
X15213095Y-6811905D01*
X15241666Y-6769048D01*
X15255952Y-6754762D01*
X15413095Y-6926191D02*
X15384523Y-6911905D01*
X15370238Y-6897619D01*
X15355952Y-6869048D01*
X15355952Y-6854762D01*
X15370238Y-6826191D01*
X15384523Y-6811905D01*
X15413095Y-6797619D01*
X15470238Y-6797619D01*
X15498809Y-6811905D01*
X15513095Y-6826191D01*
X15527381Y-6854762D01*
X15527381Y-6869048D01*
X15513095Y-6897619D01*
X15498809Y-6911905D01*
X15470238Y-6926191D01*
X15413095Y-6926191D01*
X15384523Y-6940476D01*
X15370238Y-6954762D01*
X15355952Y-6983334D01*
X15355952Y-7040476D01*
X15370238Y-7069048D01*
X15384523Y-7083334D01*
X15413095Y-7097619D01*
X15470238Y-7097619D01*
X15498809Y-7083334D01*
X15513095Y-7069048D01*
X15527381Y-7040476D01*
X15527381Y-6983334D01*
X15513095Y-6954762D01*
X15498809Y-6940476D01*
X15470238Y-6926191D01*
X15698809Y-6926191D02*
X15670238Y-6911905D01*
X15655952Y-6897619D01*
X15641666Y-6869048D01*
X15641666Y-6854762D01*
X15655952Y-6826191D01*
X15670238Y-6811905D01*
X15698809Y-6797619D01*
X15755952Y-6797619D01*
X15784523Y-6811905D01*
X15798809Y-6826191D01*
X15813095Y-6854762D01*
X15813095Y-6869048D01*
X15798809Y-6897619D01*
X15784523Y-6911905D01*
X15755952Y-6926191D01*
X15698809Y-6926191D01*
X15670238Y-6940476D01*
X15655952Y-6954762D01*
X15641666Y-6983334D01*
X15641666Y-7040476D01*
X15655952Y-7069048D01*
X15670238Y-7083334D01*
X15698809Y-7097619D01*
X15755952Y-7097619D01*
X15784523Y-7083334D01*
X15798809Y-7069048D01*
X15813095Y-7040476D01*
X15813095Y-6983334D01*
X15798809Y-6954762D01*
X15784523Y-6940476D01*
X15755952Y-6926191D01*
X16170238Y-7097619D02*
X16170238Y-6797619D01*
X16298809Y-7097619D02*
X16298809Y-6940476D01*
X16284523Y-6911905D01*
X16255952Y-6897619D01*
X16213095Y-6897619D01*
X16184523Y-6911905D01*
X16170238Y-6926191D01*
X16484523Y-7097619D02*
X16455952Y-7083334D01*
X16441666Y-7069048D01*
X16427381Y-7040476D01*
X16427381Y-6954762D01*
X16441666Y-6926191D01*
X16455952Y-6911905D01*
X16484523Y-6897619D01*
X16527381Y-6897619D01*
X16555952Y-6911905D01*
X16570238Y-6926191D01*
X16584523Y-6954762D01*
X16584523Y-7040476D01*
X16570238Y-7069048D01*
X16555952Y-7083334D01*
X16527381Y-7097619D01*
X16484523Y-7097619D01*
X16755952Y-7097619D02*
X16727381Y-7083334D01*
X16713095Y-7054762D01*
X16713095Y-6797619D01*
X16984523Y-7083334D02*
X16955952Y-7097619D01*
X16898809Y-7097619D01*
X16870238Y-7083334D01*
X16855952Y-7054762D01*
X16855952Y-6940476D01*
X16870238Y-6911905D01*
X16898809Y-6897619D01*
X16955952Y-6897619D01*
X16984523Y-6911905D01*
X16998809Y-6940476D01*
X16998809Y-6969048D01*
X16855952Y-6997619D01*
X17113095Y-7083334D02*
X17141666Y-7097619D01*
X17198809Y-7097619D01*
X17227381Y-7083334D01*
X17241666Y-7054762D01*
X17241666Y-7040476D01*
X17227381Y-7011905D01*
X17198809Y-6997619D01*
X17155952Y-6997619D01*
X17127381Y-6983334D01*
X17113095Y-6954762D01*
X17113095Y-6940476D01*
X17127381Y-6911905D01*
X17155952Y-6897619D01*
X17198809Y-6897619D01*
X17227381Y-6911905D01*
X17341666Y-7211905D02*
X17355952Y-7197619D01*
X17384523Y-7154762D01*
X17398809Y-7126191D01*
X17413095Y-7083334D01*
X17427381Y-7011905D01*
X17427381Y-6954762D01*
X17413095Y-6883334D01*
X17398809Y-6840476D01*
X17384523Y-6811905D01*
X17355952Y-6769048D01*
X17341666Y-6754762D01*
X9998095Y-7357905D02*
G75*
G03*
X9998095Y-7357905I-25000J0D01*
G01*
X10341666Y-7193619D02*
X10370238Y-7193619D01*
X10398809Y-7207905D01*
X10413095Y-7222191D01*
X10427381Y-7250762D01*
X10441666Y-7307905D01*
X10441666Y-7379334D01*
X10427381Y-7436476D01*
X10413095Y-7465048D01*
X10398809Y-7479334D01*
X10370238Y-7493619D01*
X10341666Y-7493619D01*
X10313095Y-7479334D01*
X10298809Y-7465048D01*
X10284523Y-7436476D01*
X10270238Y-7379334D01*
X10270238Y-7307905D01*
X10284523Y-7250762D01*
X10298809Y-7222191D01*
X10313095Y-7207905D01*
X10341666Y-7193619D01*
X10570238Y-7465048D02*
X10584523Y-7479334D01*
X10570238Y-7493619D01*
X10555952Y-7479334D01*
X10570238Y-7465048D01*
X10570238Y-7493619D01*
X10855952Y-7193619D02*
X10713095Y-7193619D01*
X10698809Y-7336476D01*
X10713095Y-7322191D01*
X10741666Y-7307905D01*
X10813095Y-7307905D01*
X10841666Y-7322191D01*
X10855952Y-7336476D01*
X10870238Y-7365048D01*
X10870238Y-7436476D01*
X10855952Y-7465048D01*
X10841666Y-7479334D01*
X10813095Y-7493619D01*
X10741666Y-7493619D01*
X10713095Y-7479334D01*
X10698809Y-7465048D01*
X11055952Y-7193619D02*
X11084523Y-7193619D01*
X11113095Y-7207905D01*
X11127381Y-7222191D01*
X11141666Y-7250762D01*
X11155952Y-7307905D01*
X11155952Y-7379334D01*
X11141666Y-7436476D01*
X11127381Y-7465048D01*
X11113095Y-7479334D01*
X11084523Y-7493619D01*
X11055952Y-7493619D01*
X11027381Y-7479334D01*
X11013095Y-7465048D01*
X10998809Y-7436476D01*
X10984523Y-7379334D01*
X10984523Y-7307905D01*
X10998809Y-7250762D01*
X11013095Y-7222191D01*
X11027381Y-7207905D01*
X11055952Y-7193619D01*
X11341666Y-7193619D02*
X11370238Y-7193619D01*
X11398809Y-7207905D01*
X11413095Y-7222191D01*
X11427381Y-7250762D01*
X11441666Y-7307905D01*
X11441666Y-7379334D01*
X11427381Y-7436476D01*
X11413095Y-7465048D01*
X11398809Y-7479334D01*
X11370238Y-7493619D01*
X11341666Y-7493619D01*
X11313095Y-7479334D01*
X11298809Y-7465048D01*
X11284523Y-7436476D01*
X11270238Y-7379334D01*
X11270238Y-7307905D01*
X11284523Y-7250762D01*
X11298809Y-7222191D01*
X11313095Y-7207905D01*
X11341666Y-7193619D01*
X11570238Y-7493619D02*
X11570238Y-7293619D01*
X11570238Y-7322191D02*
X11584523Y-7307905D01*
X11613095Y-7293619D01*
X11655952Y-7293619D01*
X11684523Y-7307905D01*
X11698809Y-7336476D01*
X11698809Y-7493619D01*
X11698809Y-7336476D02*
X11713095Y-7307905D01*
X11741666Y-7293619D01*
X11784523Y-7293619D01*
X11813095Y-7307905D01*
X11827381Y-7336476D01*
X11827381Y-7493619D01*
X11970238Y-7493619D02*
X11970238Y-7293619D01*
X11970238Y-7322191D02*
X11984523Y-7307905D01*
X12013095Y-7293619D01*
X12055952Y-7293619D01*
X12084523Y-7307905D01*
X12098809Y-7336476D01*
X12098809Y-7493619D01*
X12098809Y-7336476D02*
X12113095Y-7307905D01*
X12141666Y-7293619D01*
X12184523Y-7293619D01*
X12213095Y-7307905D01*
X12227381Y-7336476D01*
X12227381Y-7493619D01*
X12813095Y-7179334D02*
X12555952Y-7565048D01*
X13198809Y-7193619D02*
X13227381Y-7193619D01*
X13255952Y-7207905D01*
X13270238Y-7222191D01*
X13284523Y-7250762D01*
X13298809Y-7307905D01*
X13298809Y-7379334D01*
X13284523Y-7436476D01*
X13270238Y-7465048D01*
X13255952Y-7479334D01*
X13227381Y-7493619D01*
X13198809Y-7493619D01*
X13170238Y-7479334D01*
X13155952Y-7465048D01*
X13141666Y-7436476D01*
X13127381Y-7379334D01*
X13127381Y-7307905D01*
X13141666Y-7250762D01*
X13155952Y-7222191D01*
X13170238Y-7207905D01*
X13198809Y-7193619D01*
X13427381Y-7465048D02*
X13441666Y-7479334D01*
X13427381Y-7493619D01*
X13413095Y-7479334D01*
X13427381Y-7465048D01*
X13427381Y-7493619D01*
X13627381Y-7193619D02*
X13655952Y-7193619D01*
X13684523Y-7207905D01*
X13698809Y-7222191D01*
X13713095Y-7250762D01*
X13727381Y-7307905D01*
X13727381Y-7379334D01*
X13713095Y-7436476D01*
X13698809Y-7465048D01*
X13684523Y-7479334D01*
X13655952Y-7493619D01*
X13627381Y-7493619D01*
X13598809Y-7479334D01*
X13584523Y-7465048D01*
X13570238Y-7436476D01*
X13555952Y-7379334D01*
X13555952Y-7307905D01*
X13570238Y-7250762D01*
X13584523Y-7222191D01*
X13598809Y-7207905D01*
X13627381Y-7193619D01*
X14013095Y-7493619D02*
X13841666Y-7493619D01*
X13927381Y-7493619D02*
X13927381Y-7193619D01*
X13898809Y-7236476D01*
X13870238Y-7265048D01*
X13841666Y-7279334D01*
X14155952Y-7493619D02*
X14213095Y-7493619D01*
X14241666Y-7479334D01*
X14255952Y-7465048D01*
X14284523Y-7422191D01*
X14298809Y-7365048D01*
X14298809Y-7250762D01*
X14284523Y-7222191D01*
X14270238Y-7207905D01*
X14241666Y-7193619D01*
X14184523Y-7193619D01*
X14155952Y-7207905D01*
X14141666Y-7222191D01*
X14127381Y-7250762D01*
X14127381Y-7322191D01*
X14141666Y-7350762D01*
X14155952Y-7365048D01*
X14184523Y-7379334D01*
X14241666Y-7379334D01*
X14270238Y-7365048D01*
X14284523Y-7350762D01*
X14298809Y-7322191D01*
X14398809Y-7193619D02*
X14598809Y-7193619D01*
X14470238Y-7493619D01*
X14698809Y-7193619D02*
X14698809Y-7250762D01*
X14813095Y-7193619D02*
X14813095Y-7250762D01*
X15255952Y-7607905D02*
X15241666Y-7593619D01*
X15213095Y-7550762D01*
X15198809Y-7522191D01*
X15184523Y-7479334D01*
X15170238Y-7407905D01*
X15170238Y-7350762D01*
X15184523Y-7279334D01*
X15198809Y-7236476D01*
X15213095Y-7207905D01*
X15241666Y-7165048D01*
X15255952Y-7150762D01*
X15355952Y-7222191D02*
X15370238Y-7207905D01*
X15398809Y-7193619D01*
X15470238Y-7193619D01*
X15498809Y-7207905D01*
X15513095Y-7222191D01*
X15527381Y-7250762D01*
X15527381Y-7279334D01*
X15513095Y-7322191D01*
X15341666Y-7493619D01*
X15527381Y-7493619D01*
X15884523Y-7493619D02*
X15884523Y-7193619D01*
X16013095Y-7493619D02*
X16013095Y-7336476D01*
X15998809Y-7307905D01*
X15970238Y-7293619D01*
X15927381Y-7293619D01*
X15898809Y-7307905D01*
X15884523Y-7322191D01*
X16198809Y-7493619D02*
X16170238Y-7479334D01*
X16155952Y-7465048D01*
X16141666Y-7436476D01*
X16141666Y-7350762D01*
X16155952Y-7322191D01*
X16170238Y-7307905D01*
X16198809Y-7293619D01*
X16241666Y-7293619D01*
X16270238Y-7307905D01*
X16284523Y-7322191D01*
X16298809Y-7350762D01*
X16298809Y-7436476D01*
X16284523Y-7465048D01*
X16270238Y-7479334D01*
X16241666Y-7493619D01*
X16198809Y-7493619D01*
X16470238Y-7493619D02*
X16441666Y-7479334D01*
X16427381Y-7450762D01*
X16427381Y-7193619D01*
X16698809Y-7479334D02*
X16670238Y-7493619D01*
X16613095Y-7493619D01*
X16584523Y-7479334D01*
X16570238Y-7450762D01*
X16570238Y-7336476D01*
X16584523Y-7307905D01*
X16613095Y-7293619D01*
X16670238Y-7293619D01*
X16698809Y-7307905D01*
X16713095Y-7336476D01*
X16713095Y-7365048D01*
X16570238Y-7393619D01*
X16827381Y-7479334D02*
X16855952Y-7493619D01*
X16913095Y-7493619D01*
X16941666Y-7479334D01*
X16955952Y-7450762D01*
X16955952Y-7436476D01*
X16941666Y-7407905D01*
X16913095Y-7393619D01*
X16870238Y-7393619D01*
X16841666Y-7379334D01*
X16827381Y-7350762D01*
X16827381Y-7336476D01*
X16841666Y-7307905D01*
X16870238Y-7293619D01*
X16913095Y-7293619D01*
X16941666Y-7307905D01*
X17055952Y-7607905D02*
X17070238Y-7593619D01*
X17098809Y-7550762D01*
X17113095Y-7522191D01*
X17127381Y-7479334D01*
X17141666Y-7407905D01*
X17141666Y-7350762D01*
X17127381Y-7279334D01*
X17113095Y-7236476D01*
X17098809Y-7207905D01*
X17070238Y-7165048D01*
X17055952Y-7150762D01*
X9968095Y-7723905D02*
X9968095Y-7783905D01*
X9938095Y-7753905D02*
X9998095Y-7753905D01*
X10341666Y-7589619D02*
X10370238Y-7589619D01*
X10398809Y-7603905D01*
X10413095Y-7618191D01*
X10427381Y-7646762D01*
X10441666Y-7703905D01*
X10441666Y-7775334D01*
X10427381Y-7832476D01*
X10413095Y-7861048D01*
X10398809Y-7875334D01*
X10370238Y-7889619D01*
X10341666Y-7889619D01*
X10313095Y-7875334D01*
X10298809Y-7861048D01*
X10284523Y-7832476D01*
X10270238Y-7775334D01*
X10270238Y-7703905D01*
X10284523Y-7646762D01*
X10298809Y-7618191D01*
X10313095Y-7603905D01*
X10341666Y-7589619D01*
X10570238Y-7861048D02*
X10584523Y-7875334D01*
X10570238Y-7889619D01*
X10555952Y-7875334D01*
X10570238Y-7861048D01*
X10570238Y-7889619D01*
X10841666Y-7589619D02*
X10784523Y-7589619D01*
X10755952Y-7603905D01*
X10741666Y-7618191D01*
X10713095Y-7661048D01*
X10698809Y-7718191D01*
X10698809Y-7832476D01*
X10713095Y-7861048D01*
X10727381Y-7875334D01*
X10755952Y-7889619D01*
X10813095Y-7889619D01*
X10841666Y-7875334D01*
X10855952Y-7861048D01*
X10870238Y-7832476D01*
X10870238Y-7761048D01*
X10855952Y-7732476D01*
X10841666Y-7718191D01*
X10813095Y-7703905D01*
X10755952Y-7703905D01*
X10727381Y-7718191D01*
X10713095Y-7732476D01*
X10698809Y-7761048D01*
X11055952Y-7589619D02*
X11084523Y-7589619D01*
X11113095Y-7603905D01*
X11127381Y-7618191D01*
X11141666Y-7646762D01*
X11155952Y-7703905D01*
X11155952Y-7775334D01*
X11141666Y-7832476D01*
X11127381Y-7861048D01*
X11113095Y-7875334D01*
X11084523Y-7889619D01*
X11055952Y-7889619D01*
X11027381Y-7875334D01*
X11013095Y-7861048D01*
X10998809Y-7832476D01*
X10984523Y-7775334D01*
X10984523Y-7703905D01*
X10998809Y-7646762D01*
X11013095Y-7618191D01*
X11027381Y-7603905D01*
X11055952Y-7589619D01*
X11341666Y-7589619D02*
X11370238Y-7589619D01*
X11398809Y-7603905D01*
X11413095Y-7618191D01*
X11427381Y-7646762D01*
X11441666Y-7703905D01*
X11441666Y-7775334D01*
X11427381Y-7832476D01*
X11413095Y-7861048D01*
X11398809Y-7875334D01*
X11370238Y-7889619D01*
X11341666Y-7889619D01*
X11313095Y-7875334D01*
X11298809Y-7861048D01*
X11284523Y-7832476D01*
X11270238Y-7775334D01*
X11270238Y-7703905D01*
X11284523Y-7646762D01*
X11298809Y-7618191D01*
X11313095Y-7603905D01*
X11341666Y-7589619D01*
X11570238Y-7889619D02*
X11570238Y-7689619D01*
X11570238Y-7718191D02*
X11584523Y-7703905D01*
X11613095Y-7689619D01*
X11655952Y-7689619D01*
X11684523Y-7703905D01*
X11698809Y-7732476D01*
X11698809Y-7889619D01*
X11698809Y-7732476D02*
X11713095Y-7703905D01*
X11741666Y-7689619D01*
X11784523Y-7689619D01*
X11813095Y-7703905D01*
X11827381Y-7732476D01*
X11827381Y-7889619D01*
X11970238Y-7889619D02*
X11970238Y-7689619D01*
X11970238Y-7718191D02*
X11984523Y-7703905D01*
X12013095Y-7689619D01*
X12055952Y-7689619D01*
X12084523Y-7703905D01*
X12098809Y-7732476D01*
X12098809Y-7889619D01*
X12098809Y-7732476D02*
X12113095Y-7703905D01*
X12141666Y-7689619D01*
X12184523Y-7689619D01*
X12213095Y-7703905D01*
X12227381Y-7732476D01*
X12227381Y-7889619D01*
X12813095Y-7575334D02*
X12555952Y-7961048D01*
X13198809Y-7589619D02*
X13227381Y-7589619D01*
X13255952Y-7603905D01*
X13270238Y-7618191D01*
X13284523Y-7646762D01*
X13298809Y-7703905D01*
X13298809Y-7775334D01*
X13284523Y-7832476D01*
X13270238Y-7861048D01*
X13255952Y-7875334D01*
X13227381Y-7889619D01*
X13198809Y-7889619D01*
X13170238Y-7875334D01*
X13155952Y-7861048D01*
X13141666Y-7832476D01*
X13127381Y-7775334D01*
X13127381Y-7703905D01*
X13141666Y-7646762D01*
X13155952Y-7618191D01*
X13170238Y-7603905D01*
X13198809Y-7589619D01*
X13427381Y-7861048D02*
X13441666Y-7875334D01*
X13427381Y-7889619D01*
X13413095Y-7875334D01*
X13427381Y-7861048D01*
X13427381Y-7889619D01*
X13627381Y-7589619D02*
X13655952Y-7589619D01*
X13684523Y-7603905D01*
X13698809Y-7618191D01*
X13713095Y-7646762D01*
X13727381Y-7703905D01*
X13727381Y-7775334D01*
X13713095Y-7832476D01*
X13698809Y-7861048D01*
X13684523Y-7875334D01*
X13655952Y-7889619D01*
X13627381Y-7889619D01*
X13598809Y-7875334D01*
X13584523Y-7861048D01*
X13570238Y-7832476D01*
X13555952Y-7775334D01*
X13555952Y-7703905D01*
X13570238Y-7646762D01*
X13584523Y-7618191D01*
X13598809Y-7603905D01*
X13627381Y-7589619D01*
X13841666Y-7618191D02*
X13855952Y-7603905D01*
X13884523Y-7589619D01*
X13955952Y-7589619D01*
X13984523Y-7603905D01*
X13998809Y-7618191D01*
X14013095Y-7646762D01*
X14013095Y-7675334D01*
X13998809Y-7718191D01*
X13827381Y-7889619D01*
X14013095Y-7889619D01*
X14113095Y-7589619D02*
X14298809Y-7589619D01*
X14198809Y-7703905D01*
X14241666Y-7703905D01*
X14270238Y-7718191D01*
X14284523Y-7732476D01*
X14298809Y-7761048D01*
X14298809Y-7832476D01*
X14284523Y-7861048D01*
X14270238Y-7875334D01*
X14241666Y-7889619D01*
X14155952Y-7889619D01*
X14127381Y-7875334D01*
X14113095Y-7861048D01*
X14555952Y-7589619D02*
X14498809Y-7589619D01*
X14470238Y-7603905D01*
X14455952Y-7618191D01*
X14427381Y-7661048D01*
X14413095Y-7718191D01*
X14413095Y-7832476D01*
X14427381Y-7861048D01*
X14441666Y-7875334D01*
X14470238Y-7889619D01*
X14527381Y-7889619D01*
X14555952Y-7875334D01*
X14570238Y-7861048D01*
X14584523Y-7832476D01*
X14584523Y-7761048D01*
X14570238Y-7732476D01*
X14555952Y-7718191D01*
X14527381Y-7703905D01*
X14470238Y-7703905D01*
X14441666Y-7718191D01*
X14427381Y-7732476D01*
X14413095Y-7761048D01*
X14698809Y-7589619D02*
X14698809Y-7646762D01*
X14813095Y-7589619D02*
X14813095Y-7646762D01*
X15255952Y-8003905D02*
X15241666Y-7989619D01*
X15213095Y-7946762D01*
X15198809Y-7918191D01*
X15184523Y-7875334D01*
X15170238Y-7803905D01*
X15170238Y-7746762D01*
X15184523Y-7675334D01*
X15198809Y-7632476D01*
X15213095Y-7603905D01*
X15241666Y-7561048D01*
X15255952Y-7546762D01*
X15341666Y-7589619D02*
X15527381Y-7589619D01*
X15427381Y-7703905D01*
X15470238Y-7703905D01*
X15498809Y-7718191D01*
X15513095Y-7732476D01*
X15527381Y-7761048D01*
X15527381Y-7832476D01*
X15513095Y-7861048D01*
X15498809Y-7875334D01*
X15470238Y-7889619D01*
X15384523Y-7889619D01*
X15355952Y-7875334D01*
X15341666Y-7861048D01*
X15884523Y-7889619D02*
X15884523Y-7589619D01*
X16013095Y-7889619D02*
X16013095Y-7732476D01*
X15998809Y-7703905D01*
X15970238Y-7689619D01*
X15927381Y-7689619D01*
X15898809Y-7703905D01*
X15884523Y-7718191D01*
X16198809Y-7889619D02*
X16170238Y-7875334D01*
X16155952Y-7861048D01*
X16141666Y-7832476D01*
X16141666Y-7746762D01*
X16155952Y-7718191D01*
X16170238Y-7703905D01*
X16198809Y-7689619D01*
X16241666Y-7689619D01*
X16270238Y-7703905D01*
X16284523Y-7718191D01*
X16298809Y-7746762D01*
X16298809Y-7832476D01*
X16284523Y-7861048D01*
X16270238Y-7875334D01*
X16241666Y-7889619D01*
X16198809Y-7889619D01*
X16470238Y-7889619D02*
X16441666Y-7875334D01*
X16427381Y-7846762D01*
X16427381Y-7589619D01*
X16698809Y-7875334D02*
X16670238Y-7889619D01*
X16613095Y-7889619D01*
X16584523Y-7875334D01*
X16570238Y-7846762D01*
X16570238Y-7732476D01*
X16584523Y-7703905D01*
X16613095Y-7689619D01*
X16670238Y-7689619D01*
X16698809Y-7703905D01*
X16713095Y-7732476D01*
X16713095Y-7761048D01*
X16570238Y-7789619D01*
X16827381Y-7875334D02*
X16855952Y-7889619D01*
X16913095Y-7889619D01*
X16941666Y-7875334D01*
X16955952Y-7846762D01*
X16955952Y-7832476D01*
X16941666Y-7803905D01*
X16913095Y-7789619D01*
X16870238Y-7789619D01*
X16841666Y-7775334D01*
X16827381Y-7746762D01*
X16827381Y-7732476D01*
X16841666Y-7703905D01*
X16870238Y-7689619D01*
X16913095Y-7689619D01*
X16941666Y-7703905D01*
X17055952Y-8003905D02*
X17070238Y-7989619D01*
X17098809Y-7946762D01*
X17113095Y-7918191D01*
X17127381Y-7875334D01*
X17141666Y-7803905D01*
X17141666Y-7746762D01*
X17127381Y-7675334D01*
X17113095Y-7632476D01*
X17098809Y-7603905D01*
X17070238Y-7561048D01*
X17055952Y-7546762D01*
X9983451Y-8185261D02*
X9983451Y-8114549D01*
X9912739Y-8114549D01*
X9912739Y-8185261D01*
X9983451Y-8185261D01*
X10441666Y-8285619D02*
X10270238Y-8285619D01*
X10355952Y-8285619D02*
X10355952Y-7985619D01*
X10327381Y-8028476D01*
X10298809Y-8057048D01*
X10270238Y-8071334D01*
X10570238Y-8257048D02*
X10584523Y-8271334D01*
X10570238Y-8285619D01*
X10555952Y-8271334D01*
X10570238Y-8257048D01*
X10570238Y-8285619D01*
X10770238Y-7985619D02*
X10798809Y-7985619D01*
X10827381Y-7999905D01*
X10841666Y-8014191D01*
X10855952Y-8042762D01*
X10870238Y-8099905D01*
X10870238Y-8171334D01*
X10855952Y-8228476D01*
X10841666Y-8257048D01*
X10827381Y-8271334D01*
X10798809Y-8285619D01*
X10770238Y-8285619D01*
X10741666Y-8271334D01*
X10727381Y-8257048D01*
X10713095Y-8228476D01*
X10698809Y-8171334D01*
X10698809Y-8099905D01*
X10713095Y-8042762D01*
X10727381Y-8014191D01*
X10741666Y-7999905D01*
X10770238Y-7985619D01*
X11055952Y-7985619D02*
X11084523Y-7985619D01*
X11113095Y-7999905D01*
X11127381Y-8014191D01*
X11141666Y-8042762D01*
X11155952Y-8099905D01*
X11155952Y-8171334D01*
X11141666Y-8228476D01*
X11127381Y-8257048D01*
X11113095Y-8271334D01*
X11084523Y-8285619D01*
X11055952Y-8285619D01*
X11027381Y-8271334D01*
X11013095Y-8257048D01*
X10998809Y-8228476D01*
X10984523Y-8171334D01*
X10984523Y-8099905D01*
X10998809Y-8042762D01*
X11013095Y-8014191D01*
X11027381Y-7999905D01*
X11055952Y-7985619D01*
X11341666Y-7985619D02*
X11370238Y-7985619D01*
X11398809Y-7999905D01*
X11413095Y-8014191D01*
X11427381Y-8042762D01*
X11441666Y-8099905D01*
X11441666Y-8171334D01*
X11427381Y-8228476D01*
X11413095Y-8257048D01*
X11398809Y-8271334D01*
X11370238Y-8285619D01*
X11341666Y-8285619D01*
X11313095Y-8271334D01*
X11298809Y-8257048D01*
X11284523Y-8228476D01*
X11270238Y-8171334D01*
X11270238Y-8099905D01*
X11284523Y-8042762D01*
X11298809Y-8014191D01*
X11313095Y-7999905D01*
X11341666Y-7985619D01*
X11570238Y-8285619D02*
X11570238Y-8085619D01*
X11570238Y-8114191D02*
X11584523Y-8099905D01*
X11613095Y-8085619D01*
X11655952Y-8085619D01*
X11684523Y-8099905D01*
X11698809Y-8128476D01*
X11698809Y-8285619D01*
X11698809Y-8128476D02*
X11713095Y-8099905D01*
X11741666Y-8085619D01*
X11784523Y-8085619D01*
X11813095Y-8099905D01*
X11827381Y-8128476D01*
X11827381Y-8285619D01*
X11970238Y-8285619D02*
X11970238Y-8085619D01*
X11970238Y-8114191D02*
X11984523Y-8099905D01*
X12013095Y-8085619D01*
X12055952Y-8085619D01*
X12084523Y-8099905D01*
X12098809Y-8128476D01*
X12098809Y-8285619D01*
X12098809Y-8128476D02*
X12113095Y-8099905D01*
X12141666Y-8085619D01*
X12184523Y-8085619D01*
X12213095Y-8099905D01*
X12227381Y-8128476D01*
X12227381Y-8285619D01*
X12813095Y-7971334D02*
X12555952Y-8357048D01*
X13198809Y-7985619D02*
X13227381Y-7985619D01*
X13255952Y-7999905D01*
X13270238Y-8014191D01*
X13284523Y-8042762D01*
X13298809Y-8099905D01*
X13298809Y-8171334D01*
X13284523Y-8228476D01*
X13270238Y-8257048D01*
X13255952Y-8271334D01*
X13227381Y-8285619D01*
X13198809Y-8285619D01*
X13170238Y-8271334D01*
X13155952Y-8257048D01*
X13141666Y-8228476D01*
X13127381Y-8171334D01*
X13127381Y-8099905D01*
X13141666Y-8042762D01*
X13155952Y-8014191D01*
X13170238Y-7999905D01*
X13198809Y-7985619D01*
X13427381Y-8257048D02*
X13441666Y-8271334D01*
X13427381Y-8285619D01*
X13413095Y-8271334D01*
X13427381Y-8257048D01*
X13427381Y-8285619D01*
X13627381Y-7985619D02*
X13655952Y-7985619D01*
X13684523Y-7999905D01*
X13698809Y-8014191D01*
X13713095Y-8042762D01*
X13727381Y-8099905D01*
X13727381Y-8171334D01*
X13713095Y-8228476D01*
X13698809Y-8257048D01*
X13684523Y-8271334D01*
X13655952Y-8285619D01*
X13627381Y-8285619D01*
X13598809Y-8271334D01*
X13584523Y-8257048D01*
X13570238Y-8228476D01*
X13555952Y-8171334D01*
X13555952Y-8099905D01*
X13570238Y-8042762D01*
X13584523Y-8014191D01*
X13598809Y-7999905D01*
X13627381Y-7985619D01*
X13827381Y-7985619D02*
X14013095Y-7985619D01*
X13913095Y-8099905D01*
X13955952Y-8099905D01*
X13984523Y-8114191D01*
X13998809Y-8128476D01*
X14013095Y-8157048D01*
X14013095Y-8228476D01*
X13998809Y-8257048D01*
X13984523Y-8271334D01*
X13955952Y-8285619D01*
X13870238Y-8285619D01*
X13841666Y-8271334D01*
X13827381Y-8257048D01*
X14155952Y-8285619D02*
X14213095Y-8285619D01*
X14241666Y-8271334D01*
X14255952Y-8257048D01*
X14284523Y-8214191D01*
X14298809Y-8157048D01*
X14298809Y-8042762D01*
X14284523Y-8014191D01*
X14270238Y-7999905D01*
X14241666Y-7985619D01*
X14184523Y-7985619D01*
X14155952Y-7999905D01*
X14141666Y-8014191D01*
X14127381Y-8042762D01*
X14127381Y-8114191D01*
X14141666Y-8142762D01*
X14155952Y-8157048D01*
X14184523Y-8171334D01*
X14241666Y-8171334D01*
X14270238Y-8157048D01*
X14284523Y-8142762D01*
X14298809Y-8114191D01*
X14555952Y-8085619D02*
X14555952Y-8285619D01*
X14484523Y-7971334D02*
X14413095Y-8185619D01*
X14598809Y-8185619D01*
X14698809Y-7985619D02*
X14698809Y-8042762D01*
X14813095Y-7985619D02*
X14813095Y-8042762D01*
X15255952Y-8399905D02*
X15241666Y-8385619D01*
X15213095Y-8342762D01*
X15198809Y-8314191D01*
X15184523Y-8271334D01*
X15170238Y-8199905D01*
X15170238Y-8142762D01*
X15184523Y-8071334D01*
X15198809Y-8028476D01*
X15213095Y-7999905D01*
X15241666Y-7957048D01*
X15255952Y-7942762D01*
X15527381Y-8285619D02*
X15355952Y-8285619D01*
X15441666Y-8285619D02*
X15441666Y-7985619D01*
X15413095Y-8028476D01*
X15384523Y-8057048D01*
X15355952Y-8071334D01*
X15713095Y-7985619D02*
X15741666Y-7985619D01*
X15770238Y-7999905D01*
X15784523Y-8014191D01*
X15798809Y-8042762D01*
X15813095Y-8099905D01*
X15813095Y-8171334D01*
X15798809Y-8228476D01*
X15784523Y-8257048D01*
X15770238Y-8271334D01*
X15741666Y-8285619D01*
X15713095Y-8285619D01*
X15684523Y-8271334D01*
X15670238Y-8257048D01*
X15655952Y-8228476D01*
X15641666Y-8171334D01*
X15641666Y-8099905D01*
X15655952Y-8042762D01*
X15670238Y-8014191D01*
X15684523Y-7999905D01*
X15713095Y-7985619D01*
X16170238Y-8285619D02*
X16170238Y-7985619D01*
X16298809Y-8285619D02*
X16298809Y-8128476D01*
X16284523Y-8099905D01*
X16255952Y-8085619D01*
X16213095Y-8085619D01*
X16184523Y-8099905D01*
X16170238Y-8114191D01*
X16484523Y-8285619D02*
X16455952Y-8271334D01*
X16441666Y-8257048D01*
X16427381Y-8228476D01*
X16427381Y-8142762D01*
X16441666Y-8114191D01*
X16455952Y-8099905D01*
X16484523Y-8085619D01*
X16527381Y-8085619D01*
X16555952Y-8099905D01*
X16570238Y-8114191D01*
X16584523Y-8142762D01*
X16584523Y-8228476D01*
X16570238Y-8257048D01*
X16555952Y-8271334D01*
X16527381Y-8285619D01*
X16484523Y-8285619D01*
X16755952Y-8285619D02*
X16727381Y-8271334D01*
X16713095Y-8242762D01*
X16713095Y-7985619D01*
X16984523Y-8271334D02*
X16955952Y-8285619D01*
X16898809Y-8285619D01*
X16870238Y-8271334D01*
X16855952Y-8242762D01*
X16855952Y-8128476D01*
X16870238Y-8099905D01*
X16898809Y-8085619D01*
X16955952Y-8085619D01*
X16984523Y-8099905D01*
X16998809Y-8128476D01*
X16998809Y-8157048D01*
X16855952Y-8185619D01*
X17113095Y-8271334D02*
X17141666Y-8285619D01*
X17198809Y-8285619D01*
X17227381Y-8271334D01*
X17241666Y-8242762D01*
X17241666Y-8228476D01*
X17227381Y-8199905D01*
X17198809Y-8185619D01*
X17155952Y-8185619D01*
X17127381Y-8171334D01*
X17113095Y-8142762D01*
X17113095Y-8128476D01*
X17127381Y-8099905D01*
X17155952Y-8085619D01*
X17198809Y-8085619D01*
X17227381Y-8099905D01*
X17341666Y-8399905D02*
X17355952Y-8385619D01*
X17384523Y-8342762D01*
X17398809Y-8314191D01*
X17413095Y-8271334D01*
X17427381Y-8199905D01*
X17427381Y-8142762D01*
X17413095Y-8071334D01*
X17398809Y-8028476D01*
X17384523Y-7999905D01*
X17355952Y-7957048D01*
X17341666Y-7942762D01*
M02*
