G04 #@! TF.GenerationSoftware,KiCad,Pcbnew,(5.1.12)-1*
G04 #@! TF.CreationDate,2022-01-26T09:33:20+03:00*
G04 #@! TF.ProjectId,d_watch_v2,645f7761-7463-4685-9f76-322e6b696361,rev?*
G04 #@! TF.SameCoordinates,Original*
G04 #@! TF.FileFunction,Paste,Top*
G04 #@! TF.FilePolarity,Positive*
%FSLAX46Y46*%
G04 Gerber Fmt 4.6, Leading zero omitted, Abs format (unit mm)*
G04 Created by KiCad (PCBNEW (5.1.12)-1) date 2022-01-26 09:33:20*
%MOMM*%
%LPD*%
G01*
G04 APERTURE LIST*
%ADD10R,1.000000X1.800000*%
%ADD11O,0.250000X0.900000*%
%ADD12O,0.900000X0.250000*%
%ADD13R,1.300000X1.000000*%
%ADD14R,1.000000X0.350000*%
%ADD15R,1.300000X1.300000*%
%ADD16R,0.900000X0.800000*%
%ADD17R,0.450000X0.600000*%
%ADD18C,3.000000*%
%ADD19R,0.350000X0.375000*%
%ADD20R,0.375000X0.350000*%
%ADD21R,0.650000X1.060000*%
G04 APERTURE END LIST*
D10*
X108880000Y-36040000D03*
X106380000Y-36040000D03*
G36*
G01*
X121593600Y-45550000D02*
X122286400Y-45550000D01*
G75*
G02*
X122370000Y-45633600I0J-83600D01*
G01*
X122370000Y-46226400D01*
G75*
G02*
X122286400Y-46310000I-83600J0D01*
G01*
X121593600Y-46310000D01*
G75*
G02*
X121510000Y-46226400I0J83600D01*
G01*
X121510000Y-45633600D01*
G75*
G02*
X121593600Y-45550000I83600J0D01*
G01*
G37*
G36*
G01*
X120143600Y-45550000D02*
X120836400Y-45550000D01*
G75*
G02*
X120920000Y-45633600I0J-83600D01*
G01*
X120920000Y-46226400D01*
G75*
G02*
X120836400Y-46310000I-83600J0D01*
G01*
X120143600Y-46310000D01*
G75*
G02*
X120060000Y-46226400I0J83600D01*
G01*
X120060000Y-45633600D01*
G75*
G02*
X120143600Y-45550000I83600J0D01*
G01*
G37*
G36*
G01*
X120143600Y-44400000D02*
X120836400Y-44400000D01*
G75*
G02*
X120920000Y-44483600I0J-83600D01*
G01*
X120920000Y-45076400D01*
G75*
G02*
X120836400Y-45160000I-83600J0D01*
G01*
X120143600Y-45160000D01*
G75*
G02*
X120060000Y-45076400I0J83600D01*
G01*
X120060000Y-44483600D01*
G75*
G02*
X120143600Y-44400000I83600J0D01*
G01*
G37*
G36*
G01*
X121593600Y-44400000D02*
X122286400Y-44400000D01*
G75*
G02*
X122370000Y-44483600I0J-83600D01*
G01*
X122370000Y-45076400D01*
G75*
G02*
X122286400Y-45160000I-83600J0D01*
G01*
X121593600Y-45160000D01*
G75*
G02*
X121510000Y-45076400I0J83600D01*
G01*
X121510000Y-44483600D01*
G75*
G02*
X121593600Y-44400000I83600J0D01*
G01*
G37*
D11*
X125210000Y-41450000D03*
X125610000Y-41450000D03*
X126010000Y-41450000D03*
X126410000Y-41450000D03*
X126810000Y-41450000D03*
D12*
X127460000Y-42100000D03*
X127460000Y-42500000D03*
X127460000Y-42900000D03*
X127460000Y-43300000D03*
X127460000Y-43700000D03*
D11*
X126810000Y-44350000D03*
X126410000Y-44350000D03*
X126010000Y-44350000D03*
X125610000Y-44350000D03*
X125210000Y-44350000D03*
D12*
X124560000Y-43700000D03*
X124560000Y-43300000D03*
X124560000Y-42900000D03*
X124560000Y-42500000D03*
X124560000Y-42100000D03*
D13*
X124100000Y-49040000D03*
X124100000Y-47240000D03*
D14*
X125300000Y-48140000D03*
X122900000Y-48140000D03*
G36*
G01*
X125786000Y-52740000D02*
X127054000Y-52740000D01*
G75*
G02*
X127330000Y-53016000I0J-276000D01*
G01*
X127330000Y-53664000D01*
G75*
G02*
X127054000Y-53940000I-276000J0D01*
G01*
X125786000Y-53940000D01*
G75*
G02*
X125510000Y-53664000I0J276000D01*
G01*
X125510000Y-53016000D01*
G75*
G02*
X125786000Y-52740000I276000J0D01*
G01*
G37*
G36*
G01*
X125786000Y-49820000D02*
X127054000Y-49820000D01*
G75*
G02*
X127330000Y-50096000I0J-276000D01*
G01*
X127330000Y-50744000D01*
G75*
G02*
X127054000Y-51020000I-276000J0D01*
G01*
X125786000Y-51020000D01*
G75*
G02*
X125510000Y-50744000I0J276000D01*
G01*
X125510000Y-50096000D01*
G75*
G02*
X125786000Y-49820000I276000J0D01*
G01*
G37*
D15*
X116000000Y-31100000D03*
X116000000Y-33100000D03*
X114000000Y-33100000D03*
X114000000Y-31100000D03*
D16*
X106440000Y-56100000D03*
X108440000Y-55150000D03*
X108440000Y-57050000D03*
D17*
X104840000Y-57070000D03*
X104840000Y-54970000D03*
G36*
G01*
X110185000Y-53830000D02*
X110735000Y-53830000D01*
G75*
G02*
X110935000Y-54030000I0J-200000D01*
G01*
X110935000Y-54430000D01*
G75*
G02*
X110735000Y-54630000I-200000J0D01*
G01*
X110185000Y-54630000D01*
G75*
G02*
X109985000Y-54430000I0J200000D01*
G01*
X109985000Y-54030000D01*
G75*
G02*
X110185000Y-53830000I200000J0D01*
G01*
G37*
G36*
G01*
X110185000Y-52180000D02*
X110735000Y-52180000D01*
G75*
G02*
X110935000Y-52380000I0J-200000D01*
G01*
X110935000Y-52780000D01*
G75*
G02*
X110735000Y-52980000I-200000J0D01*
G01*
X110185000Y-52980000D01*
G75*
G02*
X109985000Y-52780000I0J200000D01*
G01*
X109985000Y-52380000D01*
G75*
G02*
X110185000Y-52180000I200000J0D01*
G01*
G37*
G36*
G01*
X109965000Y-57260000D02*
X110515000Y-57260000D01*
G75*
G02*
X110715000Y-57460000I0J-200000D01*
G01*
X110715000Y-57860000D01*
G75*
G02*
X110515000Y-58060000I-200000J0D01*
G01*
X109965000Y-58060000D01*
G75*
G02*
X109765000Y-57860000I0J200000D01*
G01*
X109765000Y-57460000D01*
G75*
G02*
X109965000Y-57260000I200000J0D01*
G01*
G37*
G36*
G01*
X109965000Y-55610000D02*
X110515000Y-55610000D01*
G75*
G02*
X110715000Y-55810000I0J-200000D01*
G01*
X110715000Y-56210000D01*
G75*
G02*
X110515000Y-56410000I-200000J0D01*
G01*
X109965000Y-56410000D01*
G75*
G02*
X109765000Y-56210000I0J200000D01*
G01*
X109765000Y-55810000D01*
G75*
G02*
X109965000Y-55610000I200000J0D01*
G01*
G37*
D18*
X101770000Y-58080000D03*
X127950000Y-31950000D03*
X127980000Y-57900000D03*
X101750000Y-31740000D03*
G36*
G01*
X110195000Y-32490000D02*
X110745000Y-32490000D01*
G75*
G02*
X110945000Y-32690000I0J-200000D01*
G01*
X110945000Y-33090000D01*
G75*
G02*
X110745000Y-33290000I-200000J0D01*
G01*
X110195000Y-33290000D01*
G75*
G02*
X109995000Y-33090000I0J200000D01*
G01*
X109995000Y-32690000D01*
G75*
G02*
X110195000Y-32490000I200000J0D01*
G01*
G37*
G36*
G01*
X110195000Y-30840000D02*
X110745000Y-30840000D01*
G75*
G02*
X110945000Y-31040000I0J-200000D01*
G01*
X110945000Y-31440000D01*
G75*
G02*
X110745000Y-31640000I-200000J0D01*
G01*
X110195000Y-31640000D01*
G75*
G02*
X109995000Y-31440000I0J200000D01*
G01*
X109995000Y-31040000D01*
G75*
G02*
X110195000Y-30840000I200000J0D01*
G01*
G37*
G36*
G01*
X114360000Y-35190000D02*
X113860000Y-35190000D01*
G75*
G02*
X113635000Y-34965000I0J225000D01*
G01*
X113635000Y-34515000D01*
G75*
G02*
X113860000Y-34290000I225000J0D01*
G01*
X114360000Y-34290000D01*
G75*
G02*
X114585000Y-34515000I0J-225000D01*
G01*
X114585000Y-34965000D01*
G75*
G02*
X114360000Y-35190000I-225000J0D01*
G01*
G37*
G36*
G01*
X114360000Y-36740000D02*
X113860000Y-36740000D01*
G75*
G02*
X113635000Y-36515000I0J225000D01*
G01*
X113635000Y-36065000D01*
G75*
G02*
X113860000Y-35840000I225000J0D01*
G01*
X114360000Y-35840000D01*
G75*
G02*
X114585000Y-36065000I0J-225000D01*
G01*
X114585000Y-36515000D01*
G75*
G02*
X114360000Y-36740000I-225000J0D01*
G01*
G37*
G36*
G01*
X121090000Y-49240000D02*
X121590000Y-49240000D01*
G75*
G02*
X121815000Y-49465000I0J-225000D01*
G01*
X121815000Y-49915000D01*
G75*
G02*
X121590000Y-50140000I-225000J0D01*
G01*
X121090000Y-50140000D01*
G75*
G02*
X120865000Y-49915000I0J225000D01*
G01*
X120865000Y-49465000D01*
G75*
G02*
X121090000Y-49240000I225000J0D01*
G01*
G37*
G36*
G01*
X121090000Y-47690000D02*
X121590000Y-47690000D01*
G75*
G02*
X121815000Y-47915000I0J-225000D01*
G01*
X121815000Y-48365000D01*
G75*
G02*
X121590000Y-48590000I-225000J0D01*
G01*
X121090000Y-48590000D01*
G75*
G02*
X120865000Y-48365000I0J225000D01*
G01*
X120865000Y-47915000D01*
G75*
G02*
X121090000Y-47690000I225000J0D01*
G01*
G37*
G36*
G01*
X119427500Y-48286250D02*
X119427500Y-47773750D01*
G75*
G02*
X119646250Y-47555000I218750J0D01*
G01*
X120083750Y-47555000D01*
G75*
G02*
X120302500Y-47773750I0J-218750D01*
G01*
X120302500Y-48286250D01*
G75*
G02*
X120083750Y-48505000I-218750J0D01*
G01*
X119646250Y-48505000D01*
G75*
G02*
X119427500Y-48286250I0J218750D01*
G01*
G37*
G36*
G01*
X117852500Y-48286250D02*
X117852500Y-47773750D01*
G75*
G02*
X118071250Y-47555000I218750J0D01*
G01*
X118508750Y-47555000D01*
G75*
G02*
X118727500Y-47773750I0J-218750D01*
G01*
X118727500Y-48286250D01*
G75*
G02*
X118508750Y-48505000I-218750J0D01*
G01*
X118071250Y-48505000D01*
G75*
G02*
X117852500Y-48286250I0J218750D01*
G01*
G37*
G36*
G01*
X120860000Y-57800000D02*
X120860000Y-57300000D01*
G75*
G02*
X121085000Y-57075000I225000J0D01*
G01*
X121535000Y-57075000D01*
G75*
G02*
X121760000Y-57300000I0J-225000D01*
G01*
X121760000Y-57800000D01*
G75*
G02*
X121535000Y-58025000I-225000J0D01*
G01*
X121085000Y-58025000D01*
G75*
G02*
X120860000Y-57800000I0J225000D01*
G01*
G37*
G36*
G01*
X119310000Y-57800000D02*
X119310000Y-57300000D01*
G75*
G02*
X119535000Y-57075000I225000J0D01*
G01*
X119985000Y-57075000D01*
G75*
G02*
X120210000Y-57300000I0J-225000D01*
G01*
X120210000Y-57800000D01*
G75*
G02*
X119985000Y-58025000I-225000J0D01*
G01*
X119535000Y-58025000D01*
G75*
G02*
X119310000Y-57800000I0J225000D01*
G01*
G37*
D19*
X116492500Y-54407500D03*
X116992500Y-54407500D03*
X116992500Y-55932500D03*
X116492500Y-55932500D03*
D20*
X117505000Y-54420000D03*
X115980000Y-54420000D03*
X117505000Y-55920000D03*
X115980000Y-55920000D03*
X117505000Y-55420000D03*
X117505000Y-54920000D03*
X115980000Y-55420000D03*
X115980000Y-54920000D03*
D21*
X106650000Y-51420000D03*
X104750000Y-51420000D03*
X104750000Y-49220000D03*
X105700000Y-49220000D03*
X106650000Y-49220000D03*
G36*
G01*
X116490000Y-44280000D02*
X116490000Y-43680000D01*
G75*
G02*
X116740000Y-43430000I250000J0D01*
G01*
X117340000Y-43430000D01*
G75*
G02*
X117590000Y-43680000I0J-250000D01*
G01*
X117590000Y-44280000D01*
G75*
G02*
X117340000Y-44530000I-250000J0D01*
G01*
X116740000Y-44530000D01*
G75*
G02*
X116490000Y-44280000I0J250000D01*
G01*
G37*
G36*
G01*
X116490000Y-42920000D02*
X116490000Y-42320000D01*
G75*
G02*
X116740000Y-42070000I250000J0D01*
G01*
X117340000Y-42070000D01*
G75*
G02*
X117590000Y-42320000I0J-250000D01*
G01*
X117590000Y-42920000D01*
G75*
G02*
X117340000Y-43170000I-250000J0D01*
G01*
X116740000Y-43170000D01*
G75*
G02*
X116490000Y-42920000I0J250000D01*
G01*
G37*
G36*
G01*
X116490000Y-41560000D02*
X116490000Y-40960000D01*
G75*
G02*
X116740000Y-40710000I250000J0D01*
G01*
X117340000Y-40710000D01*
G75*
G02*
X117590000Y-40960000I0J-250000D01*
G01*
X117590000Y-41560000D01*
G75*
G02*
X117340000Y-41810000I-250000J0D01*
G01*
X116740000Y-41810000D01*
G75*
G02*
X116490000Y-41560000I0J250000D01*
G01*
G37*
G36*
G01*
X116490000Y-40200000D02*
X116490000Y-39600000D01*
G75*
G02*
X116740000Y-39350000I250000J0D01*
G01*
X117340000Y-39350000D01*
G75*
G02*
X117590000Y-39600000I0J-250000D01*
G01*
X117590000Y-40200000D01*
G75*
G02*
X117340000Y-40450000I-250000J0D01*
G01*
X116740000Y-40450000D01*
G75*
G02*
X116490000Y-40200000I0J250000D01*
G01*
G37*
G36*
G01*
X115130000Y-44280000D02*
X115130000Y-43680000D01*
G75*
G02*
X115380000Y-43430000I250000J0D01*
G01*
X115980000Y-43430000D01*
G75*
G02*
X116230000Y-43680000I0J-250000D01*
G01*
X116230000Y-44280000D01*
G75*
G02*
X115980000Y-44530000I-250000J0D01*
G01*
X115380000Y-44530000D01*
G75*
G02*
X115130000Y-44280000I0J250000D01*
G01*
G37*
G36*
G01*
X115130000Y-42920000D02*
X115130000Y-42320000D01*
G75*
G02*
X115380000Y-42070000I250000J0D01*
G01*
X115980000Y-42070000D01*
G75*
G02*
X116230000Y-42320000I0J-250000D01*
G01*
X116230000Y-42920000D01*
G75*
G02*
X115980000Y-43170000I-250000J0D01*
G01*
X115380000Y-43170000D01*
G75*
G02*
X115130000Y-42920000I0J250000D01*
G01*
G37*
G36*
G01*
X115130000Y-41560000D02*
X115130000Y-40960000D01*
G75*
G02*
X115380000Y-40710000I250000J0D01*
G01*
X115980000Y-40710000D01*
G75*
G02*
X116230000Y-40960000I0J-250000D01*
G01*
X116230000Y-41560000D01*
G75*
G02*
X115980000Y-41810000I-250000J0D01*
G01*
X115380000Y-41810000D01*
G75*
G02*
X115130000Y-41560000I0J250000D01*
G01*
G37*
G36*
G01*
X115130000Y-40200000D02*
X115130000Y-39600000D01*
G75*
G02*
X115380000Y-39350000I250000J0D01*
G01*
X115980000Y-39350000D01*
G75*
G02*
X116230000Y-39600000I0J-250000D01*
G01*
X116230000Y-40200000D01*
G75*
G02*
X115980000Y-40450000I-250000J0D01*
G01*
X115380000Y-40450000D01*
G75*
G02*
X115130000Y-40200000I0J250000D01*
G01*
G37*
G36*
G01*
X113770000Y-44280000D02*
X113770000Y-43680000D01*
G75*
G02*
X114020000Y-43430000I250000J0D01*
G01*
X114620000Y-43430000D01*
G75*
G02*
X114870000Y-43680000I0J-250000D01*
G01*
X114870000Y-44280000D01*
G75*
G02*
X114620000Y-44530000I-250000J0D01*
G01*
X114020000Y-44530000D01*
G75*
G02*
X113770000Y-44280000I0J250000D01*
G01*
G37*
G36*
G01*
X113770000Y-42920000D02*
X113770000Y-42320000D01*
G75*
G02*
X114020000Y-42070000I250000J0D01*
G01*
X114620000Y-42070000D01*
G75*
G02*
X114870000Y-42320000I0J-250000D01*
G01*
X114870000Y-42920000D01*
G75*
G02*
X114620000Y-43170000I-250000J0D01*
G01*
X114020000Y-43170000D01*
G75*
G02*
X113770000Y-42920000I0J250000D01*
G01*
G37*
G36*
G01*
X113770000Y-41560000D02*
X113770000Y-40960000D01*
G75*
G02*
X114020000Y-40710000I250000J0D01*
G01*
X114620000Y-40710000D01*
G75*
G02*
X114870000Y-40960000I0J-250000D01*
G01*
X114870000Y-41560000D01*
G75*
G02*
X114620000Y-41810000I-250000J0D01*
G01*
X114020000Y-41810000D01*
G75*
G02*
X113770000Y-41560000I0J250000D01*
G01*
G37*
G36*
G01*
X113770000Y-40200000D02*
X113770000Y-39600000D01*
G75*
G02*
X114020000Y-39350000I250000J0D01*
G01*
X114620000Y-39350000D01*
G75*
G02*
X114870000Y-39600000I0J-250000D01*
G01*
X114870000Y-40200000D01*
G75*
G02*
X114620000Y-40450000I-250000J0D01*
G01*
X114020000Y-40450000D01*
G75*
G02*
X113770000Y-40200000I0J250000D01*
G01*
G37*
G36*
G01*
X112410000Y-44280000D02*
X112410000Y-43680000D01*
G75*
G02*
X112660000Y-43430000I250000J0D01*
G01*
X113260000Y-43430000D01*
G75*
G02*
X113510000Y-43680000I0J-250000D01*
G01*
X113510000Y-44280000D01*
G75*
G02*
X113260000Y-44530000I-250000J0D01*
G01*
X112660000Y-44530000D01*
G75*
G02*
X112410000Y-44280000I0J250000D01*
G01*
G37*
G36*
G01*
X112410000Y-42920000D02*
X112410000Y-42320000D01*
G75*
G02*
X112660000Y-42070000I250000J0D01*
G01*
X113260000Y-42070000D01*
G75*
G02*
X113510000Y-42320000I0J-250000D01*
G01*
X113510000Y-42920000D01*
G75*
G02*
X113260000Y-43170000I-250000J0D01*
G01*
X112660000Y-43170000D01*
G75*
G02*
X112410000Y-42920000I0J250000D01*
G01*
G37*
G36*
G01*
X112410000Y-41560000D02*
X112410000Y-40960000D01*
G75*
G02*
X112660000Y-40710000I250000J0D01*
G01*
X113260000Y-40710000D01*
G75*
G02*
X113510000Y-40960000I0J-250000D01*
G01*
X113510000Y-41560000D01*
G75*
G02*
X113260000Y-41810000I-250000J0D01*
G01*
X112660000Y-41810000D01*
G75*
G02*
X112410000Y-41560000I0J250000D01*
G01*
G37*
G36*
G01*
X112410000Y-40200000D02*
X112410000Y-39600000D01*
G75*
G02*
X112660000Y-39350000I250000J0D01*
G01*
X113260000Y-39350000D01*
G75*
G02*
X113510000Y-39600000I0J-250000D01*
G01*
X113510000Y-40200000D01*
G75*
G02*
X113260000Y-40450000I-250000J0D01*
G01*
X112660000Y-40450000D01*
G75*
G02*
X112410000Y-40200000I0J250000D01*
G01*
G37*
G36*
G01*
X112125000Y-38852500D02*
X112125000Y-38127500D01*
G75*
G02*
X112187500Y-38065000I62500J0D01*
G01*
X112312500Y-38065000D01*
G75*
G02*
X112375000Y-38127500I0J-62500D01*
G01*
X112375000Y-38852500D01*
G75*
G02*
X112312500Y-38915000I-62500J0D01*
G01*
X112187500Y-38915000D01*
G75*
G02*
X112125000Y-38852500I0J62500D01*
G01*
G37*
G36*
G01*
X112625000Y-38852500D02*
X112625000Y-38127500D01*
G75*
G02*
X112687500Y-38065000I62500J0D01*
G01*
X112812500Y-38065000D01*
G75*
G02*
X112875000Y-38127500I0J-62500D01*
G01*
X112875000Y-38852500D01*
G75*
G02*
X112812500Y-38915000I-62500J0D01*
G01*
X112687500Y-38915000D01*
G75*
G02*
X112625000Y-38852500I0J62500D01*
G01*
G37*
G36*
G01*
X113125000Y-38852500D02*
X113125000Y-38127500D01*
G75*
G02*
X113187500Y-38065000I62500J0D01*
G01*
X113312500Y-38065000D01*
G75*
G02*
X113375000Y-38127500I0J-62500D01*
G01*
X113375000Y-38852500D01*
G75*
G02*
X113312500Y-38915000I-62500J0D01*
G01*
X113187500Y-38915000D01*
G75*
G02*
X113125000Y-38852500I0J62500D01*
G01*
G37*
G36*
G01*
X113625000Y-38852500D02*
X113625000Y-38127500D01*
G75*
G02*
X113687500Y-38065000I62500J0D01*
G01*
X113812500Y-38065000D01*
G75*
G02*
X113875000Y-38127500I0J-62500D01*
G01*
X113875000Y-38852500D01*
G75*
G02*
X113812500Y-38915000I-62500J0D01*
G01*
X113687500Y-38915000D01*
G75*
G02*
X113625000Y-38852500I0J62500D01*
G01*
G37*
G36*
G01*
X114125000Y-38852500D02*
X114125000Y-38127500D01*
G75*
G02*
X114187500Y-38065000I62500J0D01*
G01*
X114312500Y-38065000D01*
G75*
G02*
X114375000Y-38127500I0J-62500D01*
G01*
X114375000Y-38852500D01*
G75*
G02*
X114312500Y-38915000I-62500J0D01*
G01*
X114187500Y-38915000D01*
G75*
G02*
X114125000Y-38852500I0J62500D01*
G01*
G37*
G36*
G01*
X114625000Y-38852500D02*
X114625000Y-38127500D01*
G75*
G02*
X114687500Y-38065000I62500J0D01*
G01*
X114812500Y-38065000D01*
G75*
G02*
X114875000Y-38127500I0J-62500D01*
G01*
X114875000Y-38852500D01*
G75*
G02*
X114812500Y-38915000I-62500J0D01*
G01*
X114687500Y-38915000D01*
G75*
G02*
X114625000Y-38852500I0J62500D01*
G01*
G37*
G36*
G01*
X115125000Y-38852500D02*
X115125000Y-38127500D01*
G75*
G02*
X115187500Y-38065000I62500J0D01*
G01*
X115312500Y-38065000D01*
G75*
G02*
X115375000Y-38127500I0J-62500D01*
G01*
X115375000Y-38852500D01*
G75*
G02*
X115312500Y-38915000I-62500J0D01*
G01*
X115187500Y-38915000D01*
G75*
G02*
X115125000Y-38852500I0J62500D01*
G01*
G37*
G36*
G01*
X115625000Y-38852500D02*
X115625000Y-38127500D01*
G75*
G02*
X115687500Y-38065000I62500J0D01*
G01*
X115812500Y-38065000D01*
G75*
G02*
X115875000Y-38127500I0J-62500D01*
G01*
X115875000Y-38852500D01*
G75*
G02*
X115812500Y-38915000I-62500J0D01*
G01*
X115687500Y-38915000D01*
G75*
G02*
X115625000Y-38852500I0J62500D01*
G01*
G37*
G36*
G01*
X116125000Y-38852500D02*
X116125000Y-38127500D01*
G75*
G02*
X116187500Y-38065000I62500J0D01*
G01*
X116312500Y-38065000D01*
G75*
G02*
X116375000Y-38127500I0J-62500D01*
G01*
X116375000Y-38852500D01*
G75*
G02*
X116312500Y-38915000I-62500J0D01*
G01*
X116187500Y-38915000D01*
G75*
G02*
X116125000Y-38852500I0J62500D01*
G01*
G37*
G36*
G01*
X116625000Y-38852500D02*
X116625000Y-38127500D01*
G75*
G02*
X116687500Y-38065000I62500J0D01*
G01*
X116812500Y-38065000D01*
G75*
G02*
X116875000Y-38127500I0J-62500D01*
G01*
X116875000Y-38852500D01*
G75*
G02*
X116812500Y-38915000I-62500J0D01*
G01*
X116687500Y-38915000D01*
G75*
G02*
X116625000Y-38852500I0J62500D01*
G01*
G37*
G36*
G01*
X117125000Y-38852500D02*
X117125000Y-38127500D01*
G75*
G02*
X117187500Y-38065000I62500J0D01*
G01*
X117312500Y-38065000D01*
G75*
G02*
X117375000Y-38127500I0J-62500D01*
G01*
X117375000Y-38852500D01*
G75*
G02*
X117312500Y-38915000I-62500J0D01*
G01*
X117187500Y-38915000D01*
G75*
G02*
X117125000Y-38852500I0J62500D01*
G01*
G37*
G36*
G01*
X117625000Y-38852500D02*
X117625000Y-38127500D01*
G75*
G02*
X117687500Y-38065000I62500J0D01*
G01*
X117812500Y-38065000D01*
G75*
G02*
X117875000Y-38127500I0J-62500D01*
G01*
X117875000Y-38852500D01*
G75*
G02*
X117812500Y-38915000I-62500J0D01*
G01*
X117687500Y-38915000D01*
G75*
G02*
X117625000Y-38852500I0J62500D01*
G01*
G37*
G36*
G01*
X118025000Y-39252500D02*
X118025000Y-39127500D01*
G75*
G02*
X118087500Y-39065000I62500J0D01*
G01*
X118812500Y-39065000D01*
G75*
G02*
X118875000Y-39127500I0J-62500D01*
G01*
X118875000Y-39252500D01*
G75*
G02*
X118812500Y-39315000I-62500J0D01*
G01*
X118087500Y-39315000D01*
G75*
G02*
X118025000Y-39252500I0J62500D01*
G01*
G37*
G36*
G01*
X118025000Y-39752500D02*
X118025000Y-39627500D01*
G75*
G02*
X118087500Y-39565000I62500J0D01*
G01*
X118812500Y-39565000D01*
G75*
G02*
X118875000Y-39627500I0J-62500D01*
G01*
X118875000Y-39752500D01*
G75*
G02*
X118812500Y-39815000I-62500J0D01*
G01*
X118087500Y-39815000D01*
G75*
G02*
X118025000Y-39752500I0J62500D01*
G01*
G37*
G36*
G01*
X118025000Y-40252500D02*
X118025000Y-40127500D01*
G75*
G02*
X118087500Y-40065000I62500J0D01*
G01*
X118812500Y-40065000D01*
G75*
G02*
X118875000Y-40127500I0J-62500D01*
G01*
X118875000Y-40252500D01*
G75*
G02*
X118812500Y-40315000I-62500J0D01*
G01*
X118087500Y-40315000D01*
G75*
G02*
X118025000Y-40252500I0J62500D01*
G01*
G37*
G36*
G01*
X118025000Y-40752500D02*
X118025000Y-40627500D01*
G75*
G02*
X118087500Y-40565000I62500J0D01*
G01*
X118812500Y-40565000D01*
G75*
G02*
X118875000Y-40627500I0J-62500D01*
G01*
X118875000Y-40752500D01*
G75*
G02*
X118812500Y-40815000I-62500J0D01*
G01*
X118087500Y-40815000D01*
G75*
G02*
X118025000Y-40752500I0J62500D01*
G01*
G37*
G36*
G01*
X118025000Y-41252500D02*
X118025000Y-41127500D01*
G75*
G02*
X118087500Y-41065000I62500J0D01*
G01*
X118812500Y-41065000D01*
G75*
G02*
X118875000Y-41127500I0J-62500D01*
G01*
X118875000Y-41252500D01*
G75*
G02*
X118812500Y-41315000I-62500J0D01*
G01*
X118087500Y-41315000D01*
G75*
G02*
X118025000Y-41252500I0J62500D01*
G01*
G37*
G36*
G01*
X118025000Y-41752500D02*
X118025000Y-41627500D01*
G75*
G02*
X118087500Y-41565000I62500J0D01*
G01*
X118812500Y-41565000D01*
G75*
G02*
X118875000Y-41627500I0J-62500D01*
G01*
X118875000Y-41752500D01*
G75*
G02*
X118812500Y-41815000I-62500J0D01*
G01*
X118087500Y-41815000D01*
G75*
G02*
X118025000Y-41752500I0J62500D01*
G01*
G37*
G36*
G01*
X118025000Y-42252500D02*
X118025000Y-42127500D01*
G75*
G02*
X118087500Y-42065000I62500J0D01*
G01*
X118812500Y-42065000D01*
G75*
G02*
X118875000Y-42127500I0J-62500D01*
G01*
X118875000Y-42252500D01*
G75*
G02*
X118812500Y-42315000I-62500J0D01*
G01*
X118087500Y-42315000D01*
G75*
G02*
X118025000Y-42252500I0J62500D01*
G01*
G37*
G36*
G01*
X118025000Y-42752500D02*
X118025000Y-42627500D01*
G75*
G02*
X118087500Y-42565000I62500J0D01*
G01*
X118812500Y-42565000D01*
G75*
G02*
X118875000Y-42627500I0J-62500D01*
G01*
X118875000Y-42752500D01*
G75*
G02*
X118812500Y-42815000I-62500J0D01*
G01*
X118087500Y-42815000D01*
G75*
G02*
X118025000Y-42752500I0J62500D01*
G01*
G37*
G36*
G01*
X118025000Y-43252500D02*
X118025000Y-43127500D01*
G75*
G02*
X118087500Y-43065000I62500J0D01*
G01*
X118812500Y-43065000D01*
G75*
G02*
X118875000Y-43127500I0J-62500D01*
G01*
X118875000Y-43252500D01*
G75*
G02*
X118812500Y-43315000I-62500J0D01*
G01*
X118087500Y-43315000D01*
G75*
G02*
X118025000Y-43252500I0J62500D01*
G01*
G37*
G36*
G01*
X118025000Y-43752500D02*
X118025000Y-43627500D01*
G75*
G02*
X118087500Y-43565000I62500J0D01*
G01*
X118812500Y-43565000D01*
G75*
G02*
X118875000Y-43627500I0J-62500D01*
G01*
X118875000Y-43752500D01*
G75*
G02*
X118812500Y-43815000I-62500J0D01*
G01*
X118087500Y-43815000D01*
G75*
G02*
X118025000Y-43752500I0J62500D01*
G01*
G37*
G36*
G01*
X118025000Y-44252500D02*
X118025000Y-44127500D01*
G75*
G02*
X118087500Y-44065000I62500J0D01*
G01*
X118812500Y-44065000D01*
G75*
G02*
X118875000Y-44127500I0J-62500D01*
G01*
X118875000Y-44252500D01*
G75*
G02*
X118812500Y-44315000I-62500J0D01*
G01*
X118087500Y-44315000D01*
G75*
G02*
X118025000Y-44252500I0J62500D01*
G01*
G37*
G36*
G01*
X118025000Y-44752500D02*
X118025000Y-44627500D01*
G75*
G02*
X118087500Y-44565000I62500J0D01*
G01*
X118812500Y-44565000D01*
G75*
G02*
X118875000Y-44627500I0J-62500D01*
G01*
X118875000Y-44752500D01*
G75*
G02*
X118812500Y-44815000I-62500J0D01*
G01*
X118087500Y-44815000D01*
G75*
G02*
X118025000Y-44752500I0J62500D01*
G01*
G37*
G36*
G01*
X117625000Y-45752500D02*
X117625000Y-45027500D01*
G75*
G02*
X117687500Y-44965000I62500J0D01*
G01*
X117812500Y-44965000D01*
G75*
G02*
X117875000Y-45027500I0J-62500D01*
G01*
X117875000Y-45752500D01*
G75*
G02*
X117812500Y-45815000I-62500J0D01*
G01*
X117687500Y-45815000D01*
G75*
G02*
X117625000Y-45752500I0J62500D01*
G01*
G37*
G36*
G01*
X117125000Y-45752500D02*
X117125000Y-45027500D01*
G75*
G02*
X117187500Y-44965000I62500J0D01*
G01*
X117312500Y-44965000D01*
G75*
G02*
X117375000Y-45027500I0J-62500D01*
G01*
X117375000Y-45752500D01*
G75*
G02*
X117312500Y-45815000I-62500J0D01*
G01*
X117187500Y-45815000D01*
G75*
G02*
X117125000Y-45752500I0J62500D01*
G01*
G37*
G36*
G01*
X116625000Y-45752500D02*
X116625000Y-45027500D01*
G75*
G02*
X116687500Y-44965000I62500J0D01*
G01*
X116812500Y-44965000D01*
G75*
G02*
X116875000Y-45027500I0J-62500D01*
G01*
X116875000Y-45752500D01*
G75*
G02*
X116812500Y-45815000I-62500J0D01*
G01*
X116687500Y-45815000D01*
G75*
G02*
X116625000Y-45752500I0J62500D01*
G01*
G37*
G36*
G01*
X116125000Y-45752500D02*
X116125000Y-45027500D01*
G75*
G02*
X116187500Y-44965000I62500J0D01*
G01*
X116312500Y-44965000D01*
G75*
G02*
X116375000Y-45027500I0J-62500D01*
G01*
X116375000Y-45752500D01*
G75*
G02*
X116312500Y-45815000I-62500J0D01*
G01*
X116187500Y-45815000D01*
G75*
G02*
X116125000Y-45752500I0J62500D01*
G01*
G37*
G36*
G01*
X115625000Y-45752500D02*
X115625000Y-45027500D01*
G75*
G02*
X115687500Y-44965000I62500J0D01*
G01*
X115812500Y-44965000D01*
G75*
G02*
X115875000Y-45027500I0J-62500D01*
G01*
X115875000Y-45752500D01*
G75*
G02*
X115812500Y-45815000I-62500J0D01*
G01*
X115687500Y-45815000D01*
G75*
G02*
X115625000Y-45752500I0J62500D01*
G01*
G37*
G36*
G01*
X115125000Y-45752500D02*
X115125000Y-45027500D01*
G75*
G02*
X115187500Y-44965000I62500J0D01*
G01*
X115312500Y-44965000D01*
G75*
G02*
X115375000Y-45027500I0J-62500D01*
G01*
X115375000Y-45752500D01*
G75*
G02*
X115312500Y-45815000I-62500J0D01*
G01*
X115187500Y-45815000D01*
G75*
G02*
X115125000Y-45752500I0J62500D01*
G01*
G37*
G36*
G01*
X114625000Y-45752500D02*
X114625000Y-45027500D01*
G75*
G02*
X114687500Y-44965000I62500J0D01*
G01*
X114812500Y-44965000D01*
G75*
G02*
X114875000Y-45027500I0J-62500D01*
G01*
X114875000Y-45752500D01*
G75*
G02*
X114812500Y-45815000I-62500J0D01*
G01*
X114687500Y-45815000D01*
G75*
G02*
X114625000Y-45752500I0J62500D01*
G01*
G37*
G36*
G01*
X114125000Y-45752500D02*
X114125000Y-45027500D01*
G75*
G02*
X114187500Y-44965000I62500J0D01*
G01*
X114312500Y-44965000D01*
G75*
G02*
X114375000Y-45027500I0J-62500D01*
G01*
X114375000Y-45752500D01*
G75*
G02*
X114312500Y-45815000I-62500J0D01*
G01*
X114187500Y-45815000D01*
G75*
G02*
X114125000Y-45752500I0J62500D01*
G01*
G37*
G36*
G01*
X113625000Y-45752500D02*
X113625000Y-45027500D01*
G75*
G02*
X113687500Y-44965000I62500J0D01*
G01*
X113812500Y-44965000D01*
G75*
G02*
X113875000Y-45027500I0J-62500D01*
G01*
X113875000Y-45752500D01*
G75*
G02*
X113812500Y-45815000I-62500J0D01*
G01*
X113687500Y-45815000D01*
G75*
G02*
X113625000Y-45752500I0J62500D01*
G01*
G37*
G36*
G01*
X113125000Y-45752500D02*
X113125000Y-45027500D01*
G75*
G02*
X113187500Y-44965000I62500J0D01*
G01*
X113312500Y-44965000D01*
G75*
G02*
X113375000Y-45027500I0J-62500D01*
G01*
X113375000Y-45752500D01*
G75*
G02*
X113312500Y-45815000I-62500J0D01*
G01*
X113187500Y-45815000D01*
G75*
G02*
X113125000Y-45752500I0J62500D01*
G01*
G37*
G36*
G01*
X112625000Y-45752500D02*
X112625000Y-45027500D01*
G75*
G02*
X112687500Y-44965000I62500J0D01*
G01*
X112812500Y-44965000D01*
G75*
G02*
X112875000Y-45027500I0J-62500D01*
G01*
X112875000Y-45752500D01*
G75*
G02*
X112812500Y-45815000I-62500J0D01*
G01*
X112687500Y-45815000D01*
G75*
G02*
X112625000Y-45752500I0J62500D01*
G01*
G37*
G36*
G01*
X112125000Y-45752500D02*
X112125000Y-45027500D01*
G75*
G02*
X112187500Y-44965000I62500J0D01*
G01*
X112312500Y-44965000D01*
G75*
G02*
X112375000Y-45027500I0J-62500D01*
G01*
X112375000Y-45752500D01*
G75*
G02*
X112312500Y-45815000I-62500J0D01*
G01*
X112187500Y-45815000D01*
G75*
G02*
X112125000Y-45752500I0J62500D01*
G01*
G37*
G36*
G01*
X111125000Y-44752500D02*
X111125000Y-44627500D01*
G75*
G02*
X111187500Y-44565000I62500J0D01*
G01*
X111912500Y-44565000D01*
G75*
G02*
X111975000Y-44627500I0J-62500D01*
G01*
X111975000Y-44752500D01*
G75*
G02*
X111912500Y-44815000I-62500J0D01*
G01*
X111187500Y-44815000D01*
G75*
G02*
X111125000Y-44752500I0J62500D01*
G01*
G37*
G36*
G01*
X111125000Y-44252500D02*
X111125000Y-44127500D01*
G75*
G02*
X111187500Y-44065000I62500J0D01*
G01*
X111912500Y-44065000D01*
G75*
G02*
X111975000Y-44127500I0J-62500D01*
G01*
X111975000Y-44252500D01*
G75*
G02*
X111912500Y-44315000I-62500J0D01*
G01*
X111187500Y-44315000D01*
G75*
G02*
X111125000Y-44252500I0J62500D01*
G01*
G37*
G36*
G01*
X111125000Y-43752500D02*
X111125000Y-43627500D01*
G75*
G02*
X111187500Y-43565000I62500J0D01*
G01*
X111912500Y-43565000D01*
G75*
G02*
X111975000Y-43627500I0J-62500D01*
G01*
X111975000Y-43752500D01*
G75*
G02*
X111912500Y-43815000I-62500J0D01*
G01*
X111187500Y-43815000D01*
G75*
G02*
X111125000Y-43752500I0J62500D01*
G01*
G37*
G36*
G01*
X111125000Y-43252500D02*
X111125000Y-43127500D01*
G75*
G02*
X111187500Y-43065000I62500J0D01*
G01*
X111912500Y-43065000D01*
G75*
G02*
X111975000Y-43127500I0J-62500D01*
G01*
X111975000Y-43252500D01*
G75*
G02*
X111912500Y-43315000I-62500J0D01*
G01*
X111187500Y-43315000D01*
G75*
G02*
X111125000Y-43252500I0J62500D01*
G01*
G37*
G36*
G01*
X111125000Y-42752500D02*
X111125000Y-42627500D01*
G75*
G02*
X111187500Y-42565000I62500J0D01*
G01*
X111912500Y-42565000D01*
G75*
G02*
X111975000Y-42627500I0J-62500D01*
G01*
X111975000Y-42752500D01*
G75*
G02*
X111912500Y-42815000I-62500J0D01*
G01*
X111187500Y-42815000D01*
G75*
G02*
X111125000Y-42752500I0J62500D01*
G01*
G37*
G36*
G01*
X111125000Y-42252500D02*
X111125000Y-42127500D01*
G75*
G02*
X111187500Y-42065000I62500J0D01*
G01*
X111912500Y-42065000D01*
G75*
G02*
X111975000Y-42127500I0J-62500D01*
G01*
X111975000Y-42252500D01*
G75*
G02*
X111912500Y-42315000I-62500J0D01*
G01*
X111187500Y-42315000D01*
G75*
G02*
X111125000Y-42252500I0J62500D01*
G01*
G37*
G36*
G01*
X111125000Y-41752500D02*
X111125000Y-41627500D01*
G75*
G02*
X111187500Y-41565000I62500J0D01*
G01*
X111912500Y-41565000D01*
G75*
G02*
X111975000Y-41627500I0J-62500D01*
G01*
X111975000Y-41752500D01*
G75*
G02*
X111912500Y-41815000I-62500J0D01*
G01*
X111187500Y-41815000D01*
G75*
G02*
X111125000Y-41752500I0J62500D01*
G01*
G37*
G36*
G01*
X111125000Y-41252500D02*
X111125000Y-41127500D01*
G75*
G02*
X111187500Y-41065000I62500J0D01*
G01*
X111912500Y-41065000D01*
G75*
G02*
X111975000Y-41127500I0J-62500D01*
G01*
X111975000Y-41252500D01*
G75*
G02*
X111912500Y-41315000I-62500J0D01*
G01*
X111187500Y-41315000D01*
G75*
G02*
X111125000Y-41252500I0J62500D01*
G01*
G37*
G36*
G01*
X111125000Y-40752500D02*
X111125000Y-40627500D01*
G75*
G02*
X111187500Y-40565000I62500J0D01*
G01*
X111912500Y-40565000D01*
G75*
G02*
X111975000Y-40627500I0J-62500D01*
G01*
X111975000Y-40752500D01*
G75*
G02*
X111912500Y-40815000I-62500J0D01*
G01*
X111187500Y-40815000D01*
G75*
G02*
X111125000Y-40752500I0J62500D01*
G01*
G37*
G36*
G01*
X111125000Y-40252500D02*
X111125000Y-40127500D01*
G75*
G02*
X111187500Y-40065000I62500J0D01*
G01*
X111912500Y-40065000D01*
G75*
G02*
X111975000Y-40127500I0J-62500D01*
G01*
X111975000Y-40252500D01*
G75*
G02*
X111912500Y-40315000I-62500J0D01*
G01*
X111187500Y-40315000D01*
G75*
G02*
X111125000Y-40252500I0J62500D01*
G01*
G37*
G36*
G01*
X111125000Y-39752500D02*
X111125000Y-39627500D01*
G75*
G02*
X111187500Y-39565000I62500J0D01*
G01*
X111912500Y-39565000D01*
G75*
G02*
X111975000Y-39627500I0J-62500D01*
G01*
X111975000Y-39752500D01*
G75*
G02*
X111912500Y-39815000I-62500J0D01*
G01*
X111187500Y-39815000D01*
G75*
G02*
X111125000Y-39752500I0J62500D01*
G01*
G37*
G36*
G01*
X111125000Y-39252500D02*
X111125000Y-39127500D01*
G75*
G02*
X111187500Y-39065000I62500J0D01*
G01*
X111912500Y-39065000D01*
G75*
G02*
X111975000Y-39127500I0J-62500D01*
G01*
X111975000Y-39252500D01*
G75*
G02*
X111912500Y-39315000I-62500J0D01*
G01*
X111187500Y-39315000D01*
G75*
G02*
X111125000Y-39252500I0J62500D01*
G01*
G37*
G36*
G01*
X115470000Y-53295000D02*
X115470000Y-52745000D01*
G75*
G02*
X115670000Y-52545000I200000J0D01*
G01*
X116070000Y-52545000D01*
G75*
G02*
X116270000Y-52745000I0J-200000D01*
G01*
X116270000Y-53295000D01*
G75*
G02*
X116070000Y-53495000I-200000J0D01*
G01*
X115670000Y-53495000D01*
G75*
G02*
X115470000Y-53295000I0J200000D01*
G01*
G37*
G36*
G01*
X113820000Y-53295000D02*
X113820000Y-52745000D01*
G75*
G02*
X114020000Y-52545000I200000J0D01*
G01*
X114420000Y-52545000D01*
G75*
G02*
X114620000Y-52745000I0J-200000D01*
G01*
X114620000Y-53295000D01*
G75*
G02*
X114420000Y-53495000I-200000J0D01*
G01*
X114020000Y-53495000D01*
G75*
G02*
X113820000Y-53295000I0J200000D01*
G01*
G37*
G36*
G01*
X115440000Y-51675000D02*
X115440000Y-51125000D01*
G75*
G02*
X115640000Y-50925000I200000J0D01*
G01*
X116040000Y-50925000D01*
G75*
G02*
X116240000Y-51125000I0J-200000D01*
G01*
X116240000Y-51675000D01*
G75*
G02*
X116040000Y-51875000I-200000J0D01*
G01*
X115640000Y-51875000D01*
G75*
G02*
X115440000Y-51675000I0J200000D01*
G01*
G37*
G36*
G01*
X113790000Y-51675000D02*
X113790000Y-51125000D01*
G75*
G02*
X113990000Y-50925000I200000J0D01*
G01*
X114390000Y-50925000D01*
G75*
G02*
X114590000Y-51125000I0J-200000D01*
G01*
X114590000Y-51675000D01*
G75*
G02*
X114390000Y-51875000I-200000J0D01*
G01*
X113990000Y-51875000D01*
G75*
G02*
X113790000Y-51675000I0J200000D01*
G01*
G37*
G36*
G01*
X111900000Y-47345000D02*
X111900000Y-46795000D01*
G75*
G02*
X112100000Y-46595000I200000J0D01*
G01*
X112500000Y-46595000D01*
G75*
G02*
X112700000Y-46795000I0J-200000D01*
G01*
X112700000Y-47345000D01*
G75*
G02*
X112500000Y-47545000I-200000J0D01*
G01*
X112100000Y-47545000D01*
G75*
G02*
X111900000Y-47345000I0J200000D01*
G01*
G37*
G36*
G01*
X110250000Y-47345000D02*
X110250000Y-46795000D01*
G75*
G02*
X110450000Y-46595000I200000J0D01*
G01*
X110850000Y-46595000D01*
G75*
G02*
X111050000Y-46795000I0J-200000D01*
G01*
X111050000Y-47345000D01*
G75*
G02*
X110850000Y-47545000I-200000J0D01*
G01*
X110450000Y-47545000D01*
G75*
G02*
X110250000Y-47345000I0J200000D01*
G01*
G37*
G36*
G01*
X123145000Y-52550000D02*
X123695000Y-52550000D01*
G75*
G02*
X123895000Y-52750000I0J-200000D01*
G01*
X123895000Y-53150000D01*
G75*
G02*
X123695000Y-53350000I-200000J0D01*
G01*
X123145000Y-53350000D01*
G75*
G02*
X122945000Y-53150000I0J200000D01*
G01*
X122945000Y-52750000D01*
G75*
G02*
X123145000Y-52550000I200000J0D01*
G01*
G37*
G36*
G01*
X123145000Y-50900000D02*
X123695000Y-50900000D01*
G75*
G02*
X123895000Y-51100000I0J-200000D01*
G01*
X123895000Y-51500000D01*
G75*
G02*
X123695000Y-51700000I-200000J0D01*
G01*
X123145000Y-51700000D01*
G75*
G02*
X122945000Y-51500000I0J200000D01*
G01*
X122945000Y-51100000D01*
G75*
G02*
X123145000Y-50900000I200000J0D01*
G01*
G37*
G36*
G01*
X125890000Y-34345000D02*
X125890000Y-34895000D01*
G75*
G02*
X125690000Y-35095000I-200000J0D01*
G01*
X125290000Y-35095000D01*
G75*
G02*
X125090000Y-34895000I0J200000D01*
G01*
X125090000Y-34345000D01*
G75*
G02*
X125290000Y-34145000I200000J0D01*
G01*
X125690000Y-34145000D01*
G75*
G02*
X125890000Y-34345000I0J-200000D01*
G01*
G37*
G36*
G01*
X127540000Y-34345000D02*
X127540000Y-34895000D01*
G75*
G02*
X127340000Y-35095000I-200000J0D01*
G01*
X126940000Y-35095000D01*
G75*
G02*
X126740000Y-34895000I0J200000D01*
G01*
X126740000Y-34345000D01*
G75*
G02*
X126940000Y-34145000I200000J0D01*
G01*
X127340000Y-34145000D01*
G75*
G02*
X127540000Y-34345000I0J-200000D01*
G01*
G37*
G36*
G01*
X105790000Y-31475000D02*
X105790000Y-30925000D01*
G75*
G02*
X105990000Y-30725000I200000J0D01*
G01*
X106390000Y-30725000D01*
G75*
G02*
X106590000Y-30925000I0J-200000D01*
G01*
X106590000Y-31475000D01*
G75*
G02*
X106390000Y-31675000I-200000J0D01*
G01*
X105990000Y-31675000D01*
G75*
G02*
X105790000Y-31475000I0J200000D01*
G01*
G37*
G36*
G01*
X104140000Y-31475000D02*
X104140000Y-30925000D01*
G75*
G02*
X104340000Y-30725000I200000J0D01*
G01*
X104740000Y-30725000D01*
G75*
G02*
X104940000Y-30925000I0J-200000D01*
G01*
X104940000Y-31475000D01*
G75*
G02*
X104740000Y-31675000I-200000J0D01*
G01*
X104340000Y-31675000D01*
G75*
G02*
X104140000Y-31475000I0J200000D01*
G01*
G37*
G36*
G01*
X127290000Y-45935000D02*
X127290000Y-46485000D01*
G75*
G02*
X127090000Y-46685000I-200000J0D01*
G01*
X126690000Y-46685000D01*
G75*
G02*
X126490000Y-46485000I0J200000D01*
G01*
X126490000Y-45935000D01*
G75*
G02*
X126690000Y-45735000I200000J0D01*
G01*
X127090000Y-45735000D01*
G75*
G02*
X127290000Y-45935000I0J-200000D01*
G01*
G37*
G36*
G01*
X128940000Y-45935000D02*
X128940000Y-46485000D01*
G75*
G02*
X128740000Y-46685000I-200000J0D01*
G01*
X128340000Y-46685000D01*
G75*
G02*
X128140000Y-46485000I0J200000D01*
G01*
X128140000Y-45935000D01*
G75*
G02*
X128340000Y-45735000I200000J0D01*
G01*
X128740000Y-45735000D01*
G75*
G02*
X128940000Y-45935000I0J-200000D01*
G01*
G37*
G36*
G01*
X106270000Y-40735000D02*
X106270000Y-40185000D01*
G75*
G02*
X106470000Y-39985000I200000J0D01*
G01*
X106870000Y-39985000D01*
G75*
G02*
X107070000Y-40185000I0J-200000D01*
G01*
X107070000Y-40735000D01*
G75*
G02*
X106870000Y-40935000I-200000J0D01*
G01*
X106470000Y-40935000D01*
G75*
G02*
X106270000Y-40735000I0J200000D01*
G01*
G37*
G36*
G01*
X104620000Y-40735000D02*
X104620000Y-40185000D01*
G75*
G02*
X104820000Y-39985000I200000J0D01*
G01*
X105220000Y-39985000D01*
G75*
G02*
X105420000Y-40185000I0J-200000D01*
G01*
X105420000Y-40735000D01*
G75*
G02*
X105220000Y-40935000I-200000J0D01*
G01*
X104820000Y-40935000D01*
G75*
G02*
X104620000Y-40735000I0J200000D01*
G01*
G37*
G36*
G01*
X105410000Y-38655000D02*
X105410000Y-39205000D01*
G75*
G02*
X105210000Y-39405000I-200000J0D01*
G01*
X104810000Y-39405000D01*
G75*
G02*
X104610000Y-39205000I0J200000D01*
G01*
X104610000Y-38655000D01*
G75*
G02*
X104810000Y-38455000I200000J0D01*
G01*
X105210000Y-38455000D01*
G75*
G02*
X105410000Y-38655000I0J-200000D01*
G01*
G37*
G36*
G01*
X107060000Y-38655000D02*
X107060000Y-39205000D01*
G75*
G02*
X106860000Y-39405000I-200000J0D01*
G01*
X106460000Y-39405000D01*
G75*
G02*
X106260000Y-39205000I0J200000D01*
G01*
X106260000Y-38655000D01*
G75*
G02*
X106460000Y-38455000I200000J0D01*
G01*
X106860000Y-38455000D01*
G75*
G02*
X107060000Y-38655000I0J-200000D01*
G01*
G37*
G36*
G01*
X105050000Y-42205000D02*
X105050000Y-41655000D01*
G75*
G02*
X105250000Y-41455000I200000J0D01*
G01*
X105650000Y-41455000D01*
G75*
G02*
X105850000Y-41655000I0J-200000D01*
G01*
X105850000Y-42205000D01*
G75*
G02*
X105650000Y-42405000I-200000J0D01*
G01*
X105250000Y-42405000D01*
G75*
G02*
X105050000Y-42205000I0J200000D01*
G01*
G37*
G36*
G01*
X103400000Y-42205000D02*
X103400000Y-41655000D01*
G75*
G02*
X103600000Y-41455000I200000J0D01*
G01*
X104000000Y-41455000D01*
G75*
G02*
X104200000Y-41655000I0J-200000D01*
G01*
X104200000Y-42205000D01*
G75*
G02*
X104000000Y-42405000I-200000J0D01*
G01*
X103600000Y-42405000D01*
G75*
G02*
X103400000Y-42205000I0J200000D01*
G01*
G37*
G36*
G01*
X105790000Y-33005000D02*
X105790000Y-32455000D01*
G75*
G02*
X105990000Y-32255000I200000J0D01*
G01*
X106390000Y-32255000D01*
G75*
G02*
X106590000Y-32455000I0J-200000D01*
G01*
X106590000Y-33005000D01*
G75*
G02*
X106390000Y-33205000I-200000J0D01*
G01*
X105990000Y-33205000D01*
G75*
G02*
X105790000Y-33005000I0J200000D01*
G01*
G37*
G36*
G01*
X104140000Y-33005000D02*
X104140000Y-32455000D01*
G75*
G02*
X104340000Y-32255000I200000J0D01*
G01*
X104740000Y-32255000D01*
G75*
G02*
X104940000Y-32455000I0J-200000D01*
G01*
X104940000Y-33005000D01*
G75*
G02*
X104740000Y-33205000I-200000J0D01*
G01*
X104340000Y-33205000D01*
G75*
G02*
X104140000Y-33005000I0J200000D01*
G01*
G37*
G36*
G01*
X122510000Y-38075000D02*
X122510000Y-37525000D01*
G75*
G02*
X122710000Y-37325000I200000J0D01*
G01*
X123110000Y-37325000D01*
G75*
G02*
X123310000Y-37525000I0J-200000D01*
G01*
X123310000Y-38075000D01*
G75*
G02*
X123110000Y-38275000I-200000J0D01*
G01*
X122710000Y-38275000D01*
G75*
G02*
X122510000Y-38075000I0J200000D01*
G01*
G37*
G36*
G01*
X120860000Y-38075000D02*
X120860000Y-37525000D01*
G75*
G02*
X121060000Y-37325000I200000J0D01*
G01*
X121460000Y-37325000D01*
G75*
G02*
X121660000Y-37525000I0J-200000D01*
G01*
X121660000Y-38075000D01*
G75*
G02*
X121460000Y-38275000I-200000J0D01*
G01*
X121060000Y-38275000D01*
G75*
G02*
X120860000Y-38075000I0J200000D01*
G01*
G37*
G36*
G01*
X108605000Y-51840000D02*
X108055000Y-51840000D01*
G75*
G02*
X107855000Y-51640000I0J200000D01*
G01*
X107855000Y-51240000D01*
G75*
G02*
X108055000Y-51040000I200000J0D01*
G01*
X108605000Y-51040000D01*
G75*
G02*
X108805000Y-51240000I0J-200000D01*
G01*
X108805000Y-51640000D01*
G75*
G02*
X108605000Y-51840000I-200000J0D01*
G01*
G37*
G36*
G01*
X108605000Y-53490000D02*
X108055000Y-53490000D01*
G75*
G02*
X107855000Y-53290000I0J200000D01*
G01*
X107855000Y-52890000D01*
G75*
G02*
X108055000Y-52690000I200000J0D01*
G01*
X108605000Y-52690000D01*
G75*
G02*
X108805000Y-52890000I0J-200000D01*
G01*
X108805000Y-53290000D01*
G75*
G02*
X108605000Y-53490000I-200000J0D01*
G01*
G37*
G36*
G01*
X103050000Y-40705000D02*
X103050000Y-40155000D01*
G75*
G02*
X103250000Y-39955000I200000J0D01*
G01*
X103650000Y-39955000D01*
G75*
G02*
X103850000Y-40155000I0J-200000D01*
G01*
X103850000Y-40705000D01*
G75*
G02*
X103650000Y-40905000I-200000J0D01*
G01*
X103250000Y-40905000D01*
G75*
G02*
X103050000Y-40705000I0J200000D01*
G01*
G37*
G36*
G01*
X101400000Y-40705000D02*
X101400000Y-40155000D01*
G75*
G02*
X101600000Y-39955000I200000J0D01*
G01*
X102000000Y-39955000D01*
G75*
G02*
X102200000Y-40155000I0J-200000D01*
G01*
X102200000Y-40705000D01*
G75*
G02*
X102000000Y-40905000I-200000J0D01*
G01*
X101600000Y-40905000D01*
G75*
G02*
X101400000Y-40705000I0J200000D01*
G01*
G37*
G36*
G01*
X104190000Y-43175000D02*
X104190000Y-43725000D01*
G75*
G02*
X103990000Y-43925000I-200000J0D01*
G01*
X103590000Y-43925000D01*
G75*
G02*
X103390000Y-43725000I0J200000D01*
G01*
X103390000Y-43175000D01*
G75*
G02*
X103590000Y-42975000I200000J0D01*
G01*
X103990000Y-42975000D01*
G75*
G02*
X104190000Y-43175000I0J-200000D01*
G01*
G37*
G36*
G01*
X105840000Y-43175000D02*
X105840000Y-43725000D01*
G75*
G02*
X105640000Y-43925000I-200000J0D01*
G01*
X105240000Y-43925000D01*
G75*
G02*
X105040000Y-43725000I0J200000D01*
G01*
X105040000Y-43175000D01*
G75*
G02*
X105240000Y-42975000I200000J0D01*
G01*
X105640000Y-42975000D01*
G75*
G02*
X105840000Y-43175000I0J-200000D01*
G01*
G37*
G36*
G01*
X125150000Y-46095000D02*
X125150000Y-45545000D01*
G75*
G02*
X125350000Y-45345000I200000J0D01*
G01*
X125750000Y-45345000D01*
G75*
G02*
X125950000Y-45545000I0J-200000D01*
G01*
X125950000Y-46095000D01*
G75*
G02*
X125750000Y-46295000I-200000J0D01*
G01*
X125350000Y-46295000D01*
G75*
G02*
X125150000Y-46095000I0J200000D01*
G01*
G37*
G36*
G01*
X123500000Y-46095000D02*
X123500000Y-45545000D01*
G75*
G02*
X123700000Y-45345000I200000J0D01*
G01*
X124100000Y-45345000D01*
G75*
G02*
X124300000Y-45545000I0J-200000D01*
G01*
X124300000Y-46095000D01*
G75*
G02*
X124100000Y-46295000I-200000J0D01*
G01*
X123700000Y-46295000D01*
G75*
G02*
X123500000Y-46095000I0J200000D01*
G01*
G37*
G36*
G01*
X123740000Y-39670000D02*
X123740000Y-40170000D01*
G75*
G02*
X123515000Y-40395000I-225000J0D01*
G01*
X123065000Y-40395000D01*
G75*
G02*
X122840000Y-40170000I0J225000D01*
G01*
X122840000Y-39670000D01*
G75*
G02*
X123065000Y-39445000I225000J0D01*
G01*
X123515000Y-39445000D01*
G75*
G02*
X123740000Y-39670000I0J-225000D01*
G01*
G37*
G36*
G01*
X125290000Y-39670000D02*
X125290000Y-40170000D01*
G75*
G02*
X125065000Y-40395000I-225000J0D01*
G01*
X124615000Y-40395000D01*
G75*
G02*
X124390000Y-40170000I0J225000D01*
G01*
X124390000Y-39670000D01*
G75*
G02*
X124615000Y-39445000I225000J0D01*
G01*
X125065000Y-39445000D01*
G75*
G02*
X125290000Y-39670000I0J-225000D01*
G01*
G37*
G36*
G01*
X123190000Y-41950000D02*
X122690000Y-41950000D01*
G75*
G02*
X122465000Y-41725000I0J225000D01*
G01*
X122465000Y-41275000D01*
G75*
G02*
X122690000Y-41050000I225000J0D01*
G01*
X123190000Y-41050000D01*
G75*
G02*
X123415000Y-41275000I0J-225000D01*
G01*
X123415000Y-41725000D01*
G75*
G02*
X123190000Y-41950000I-225000J0D01*
G01*
G37*
G36*
G01*
X123190000Y-43500000D02*
X122690000Y-43500000D01*
G75*
G02*
X122465000Y-43275000I0J225000D01*
G01*
X122465000Y-42825000D01*
G75*
G02*
X122690000Y-42600000I225000J0D01*
G01*
X123190000Y-42600000D01*
G75*
G02*
X123415000Y-42825000I0J-225000D01*
G01*
X123415000Y-43275000D01*
G75*
G02*
X123190000Y-43500000I-225000J0D01*
G01*
G37*
G36*
G01*
X120470000Y-55630000D02*
X120970000Y-55630000D01*
G75*
G02*
X121195000Y-55855000I0J-225000D01*
G01*
X121195000Y-56305000D01*
G75*
G02*
X120970000Y-56530000I-225000J0D01*
G01*
X120470000Y-56530000D01*
G75*
G02*
X120245000Y-56305000I0J225000D01*
G01*
X120245000Y-55855000D01*
G75*
G02*
X120470000Y-55630000I225000J0D01*
G01*
G37*
G36*
G01*
X120470000Y-54080000D02*
X120970000Y-54080000D01*
G75*
G02*
X121195000Y-54305000I0J-225000D01*
G01*
X121195000Y-54755000D01*
G75*
G02*
X120970000Y-54980000I-225000J0D01*
G01*
X120470000Y-54980000D01*
G75*
G02*
X120245000Y-54755000I0J225000D01*
G01*
X120245000Y-54305000D01*
G75*
G02*
X120470000Y-54080000I225000J0D01*
G01*
G37*
G36*
G01*
X118890000Y-55620000D02*
X119390000Y-55620000D01*
G75*
G02*
X119615000Y-55845000I0J-225000D01*
G01*
X119615000Y-56295000D01*
G75*
G02*
X119390000Y-56520000I-225000J0D01*
G01*
X118890000Y-56520000D01*
G75*
G02*
X118665000Y-56295000I0J225000D01*
G01*
X118665000Y-55845000D01*
G75*
G02*
X118890000Y-55620000I225000J0D01*
G01*
G37*
G36*
G01*
X118890000Y-54070000D02*
X119390000Y-54070000D01*
G75*
G02*
X119615000Y-54295000I0J-225000D01*
G01*
X119615000Y-54745000D01*
G75*
G02*
X119390000Y-54970000I-225000J0D01*
G01*
X118890000Y-54970000D01*
G75*
G02*
X118665000Y-54745000I0J225000D01*
G01*
X118665000Y-54295000D01*
G75*
G02*
X118890000Y-54070000I225000J0D01*
G01*
G37*
G36*
G01*
X119280000Y-52970000D02*
X119280000Y-52470000D01*
G75*
G02*
X119505000Y-52245000I225000J0D01*
G01*
X119955000Y-52245000D01*
G75*
G02*
X120180000Y-52470000I0J-225000D01*
G01*
X120180000Y-52970000D01*
G75*
G02*
X119955000Y-53195000I-225000J0D01*
G01*
X119505000Y-53195000D01*
G75*
G02*
X119280000Y-52970000I0J225000D01*
G01*
G37*
G36*
G01*
X117730000Y-52970000D02*
X117730000Y-52470000D01*
G75*
G02*
X117955000Y-52245000I225000J0D01*
G01*
X118405000Y-52245000D01*
G75*
G02*
X118630000Y-52470000I0J-225000D01*
G01*
X118630000Y-52970000D01*
G75*
G02*
X118405000Y-53195000I-225000J0D01*
G01*
X117955000Y-53195000D01*
G75*
G02*
X117730000Y-52970000I0J225000D01*
G01*
G37*
G36*
G01*
X110680000Y-35380000D02*
X110180000Y-35380000D01*
G75*
G02*
X109955000Y-35155000I0J225000D01*
G01*
X109955000Y-34705000D01*
G75*
G02*
X110180000Y-34480000I225000J0D01*
G01*
X110680000Y-34480000D01*
G75*
G02*
X110905000Y-34705000I0J-225000D01*
G01*
X110905000Y-35155000D01*
G75*
G02*
X110680000Y-35380000I-225000J0D01*
G01*
G37*
G36*
G01*
X110680000Y-36930000D02*
X110180000Y-36930000D01*
G75*
G02*
X109955000Y-36705000I0J225000D01*
G01*
X109955000Y-36255000D01*
G75*
G02*
X110180000Y-36030000I225000J0D01*
G01*
X110680000Y-36030000D01*
G75*
G02*
X110905000Y-36255000I0J-225000D01*
G01*
X110905000Y-36705000D01*
G75*
G02*
X110680000Y-36930000I-225000J0D01*
G01*
G37*
G36*
G01*
X105070000Y-35370000D02*
X104570000Y-35370000D01*
G75*
G02*
X104345000Y-35145000I0J225000D01*
G01*
X104345000Y-34695000D01*
G75*
G02*
X104570000Y-34470000I225000J0D01*
G01*
X105070000Y-34470000D01*
G75*
G02*
X105295000Y-34695000I0J-225000D01*
G01*
X105295000Y-35145000D01*
G75*
G02*
X105070000Y-35370000I-225000J0D01*
G01*
G37*
G36*
G01*
X105070000Y-36920000D02*
X104570000Y-36920000D01*
G75*
G02*
X104345000Y-36695000I0J225000D01*
G01*
X104345000Y-36245000D01*
G75*
G02*
X104570000Y-36020000I225000J0D01*
G01*
X105070000Y-36020000D01*
G75*
G02*
X105295000Y-36245000I0J-225000D01*
G01*
X105295000Y-36695000D01*
G75*
G02*
X105070000Y-36920000I-225000J0D01*
G01*
G37*
G36*
G01*
X105710000Y-47830000D02*
X105710000Y-47330000D01*
G75*
G02*
X105935000Y-47105000I225000J0D01*
G01*
X106385000Y-47105000D01*
G75*
G02*
X106610000Y-47330000I0J-225000D01*
G01*
X106610000Y-47830000D01*
G75*
G02*
X106385000Y-48055000I-225000J0D01*
G01*
X105935000Y-48055000D01*
G75*
G02*
X105710000Y-47830000I0J225000D01*
G01*
G37*
G36*
G01*
X104160000Y-47830000D02*
X104160000Y-47330000D01*
G75*
G02*
X104385000Y-47105000I225000J0D01*
G01*
X104835000Y-47105000D01*
G75*
G02*
X105060000Y-47330000I0J-225000D01*
G01*
X105060000Y-47830000D01*
G75*
G02*
X104835000Y-48055000I-225000J0D01*
G01*
X104385000Y-48055000D01*
G75*
G02*
X104160000Y-47830000I0J225000D01*
G01*
G37*
G36*
G01*
X116560000Y-48990000D02*
X117060000Y-48990000D01*
G75*
G02*
X117285000Y-49215000I0J-225000D01*
G01*
X117285000Y-49665000D01*
G75*
G02*
X117060000Y-49890000I-225000J0D01*
G01*
X116560000Y-49890000D01*
G75*
G02*
X116335000Y-49665000I0J225000D01*
G01*
X116335000Y-49215000D01*
G75*
G02*
X116560000Y-48990000I225000J0D01*
G01*
G37*
G36*
G01*
X116560000Y-47440000D02*
X117060000Y-47440000D01*
G75*
G02*
X117285000Y-47665000I0J-225000D01*
G01*
X117285000Y-48115000D01*
G75*
G02*
X117060000Y-48340000I-225000J0D01*
G01*
X116560000Y-48340000D01*
G75*
G02*
X116335000Y-48115000I0J225000D01*
G01*
X116335000Y-47665000D01*
G75*
G02*
X116560000Y-47440000I225000J0D01*
G01*
G37*
G36*
G01*
X119070000Y-36060000D02*
X119070000Y-35560000D01*
G75*
G02*
X119295000Y-35335000I225000J0D01*
G01*
X119745000Y-35335000D01*
G75*
G02*
X119970000Y-35560000I0J-225000D01*
G01*
X119970000Y-36060000D01*
G75*
G02*
X119745000Y-36285000I-225000J0D01*
G01*
X119295000Y-36285000D01*
G75*
G02*
X119070000Y-36060000I0J225000D01*
G01*
G37*
G36*
G01*
X117520000Y-36060000D02*
X117520000Y-35560000D01*
G75*
G02*
X117745000Y-35335000I225000J0D01*
G01*
X118195000Y-35335000D01*
G75*
G02*
X118420000Y-35560000I0J-225000D01*
G01*
X118420000Y-36060000D01*
G75*
G02*
X118195000Y-36285000I-225000J0D01*
G01*
X117745000Y-36285000D01*
G75*
G02*
X117520000Y-36060000I0J225000D01*
G01*
G37*
G36*
G01*
X112550000Y-31790000D02*
X112050000Y-31790000D01*
G75*
G02*
X111825000Y-31565000I0J225000D01*
G01*
X111825000Y-31115000D01*
G75*
G02*
X112050000Y-30890000I225000J0D01*
G01*
X112550000Y-30890000D01*
G75*
G02*
X112775000Y-31115000I0J-225000D01*
G01*
X112775000Y-31565000D01*
G75*
G02*
X112550000Y-31790000I-225000J0D01*
G01*
G37*
G36*
G01*
X112550000Y-33340000D02*
X112050000Y-33340000D01*
G75*
G02*
X111825000Y-33115000I0J225000D01*
G01*
X111825000Y-32665000D01*
G75*
G02*
X112050000Y-32440000I225000J0D01*
G01*
X112550000Y-32440000D01*
G75*
G02*
X112775000Y-32665000I0J-225000D01*
G01*
X112775000Y-33115000D01*
G75*
G02*
X112550000Y-33340000I-225000J0D01*
G01*
G37*
G36*
G01*
X105700000Y-53260000D02*
X105700000Y-52760000D01*
G75*
G02*
X105925000Y-52535000I225000J0D01*
G01*
X106375000Y-52535000D01*
G75*
G02*
X106600000Y-52760000I0J-225000D01*
G01*
X106600000Y-53260000D01*
G75*
G02*
X106375000Y-53485000I-225000J0D01*
G01*
X105925000Y-53485000D01*
G75*
G02*
X105700000Y-53260000I0J225000D01*
G01*
G37*
G36*
G01*
X104150000Y-53260000D02*
X104150000Y-52760000D01*
G75*
G02*
X104375000Y-52535000I225000J0D01*
G01*
X104825000Y-52535000D01*
G75*
G02*
X105050000Y-52760000I0J-225000D01*
G01*
X105050000Y-53260000D01*
G75*
G02*
X104825000Y-53485000I-225000J0D01*
G01*
X104375000Y-53485000D01*
G75*
G02*
X104150000Y-53260000I0J225000D01*
G01*
G37*
M02*
