G04 #@! TF.GenerationSoftware,KiCad,Pcbnew,(5.1.12)-1*
G04 #@! TF.CreationDate,2022-01-26T09:33:24+03:00*
G04 #@! TF.ProjectId,d_watch_v2,645f7761-7463-4685-9f76-322e6b696361,rev?*
G04 #@! TF.SameCoordinates,Original*
G04 #@! TF.FileFunction,Legend,Bot*
G04 #@! TF.FilePolarity,Positive*
%FSLAX46Y46*%
G04 Gerber Fmt 4.6, Leading zero omitted, Abs format (unit mm)*
G04 Created by KiCad (PCBNEW (5.1.12)-1) date 2022-01-26 09:33:24*
%MOMM*%
%LPD*%
G01*
G04 APERTURE LIST*
%ADD10C,0.120000*%
%ADD11C,0.150000*%
%ADD12O,0.950000X0.950000*%
%ADD13O,1.800000X1.800000*%
G04 APERTURE END LIST*
D10*
X105790000Y-33790000D02*
X108240000Y-33790000D01*
X107590000Y-37010000D02*
X105790000Y-37010000D01*
X103940000Y-51440000D02*
X103940000Y-48990000D01*
X107160000Y-49640000D02*
X107160000Y-51440000D01*
X104070000Y-38770000D02*
X104070000Y-41220000D01*
X100850000Y-40570000D02*
X100850000Y-38770000D01*
X124924420Y-44300000D02*
X125205580Y-44300000D01*
X124924420Y-45320000D02*
X125205580Y-45320000D01*
X123824420Y-46180000D02*
X124105580Y-46180000D01*
X123824420Y-47200000D02*
X124105580Y-47200000D01*
X109830000Y-50024420D02*
X109830000Y-50305580D01*
X108810000Y-50024420D02*
X108810000Y-50305580D01*
X103630000Y-35374420D02*
X103630000Y-35655580D01*
X104650000Y-35374420D02*
X104650000Y-35655580D01*
X107110000Y-32555580D02*
X107110000Y-32274420D01*
X106090000Y-32555580D02*
X106090000Y-32274420D01*
X104045580Y-47510000D02*
X103764420Y-47510000D01*
X104045580Y-48530000D02*
X103764420Y-48530000D01*
X106335580Y-44640000D02*
X106054420Y-44640000D01*
X106335580Y-43620000D02*
X106054420Y-43620000D01*
X105370000Y-39024420D02*
X105370000Y-39305580D01*
X104350000Y-39024420D02*
X104350000Y-39305580D01*
X104054420Y-41520000D02*
X104335580Y-41520000D01*
X104054420Y-42540000D02*
X104335580Y-42540000D01*
X102312500Y-57732742D02*
X102312500Y-58207258D01*
X101267500Y-57732742D02*
X101267500Y-58207258D01*
X120877500Y-55952258D02*
X120877500Y-55477742D01*
X121922500Y-55952258D02*
X121922500Y-55477742D01*
X112837500Y-55562258D02*
X112837500Y-55087742D01*
X113882500Y-55562258D02*
X113882500Y-55087742D01*
X114367500Y-55562258D02*
X114367500Y-55087742D01*
X115412500Y-55562258D02*
X115412500Y-55087742D01*
X115427742Y-52447500D02*
X115902258Y-52447500D01*
X115427742Y-53492500D02*
X115902258Y-53492500D01*
X115897500Y-55562258D02*
X115897500Y-55087742D01*
X116942500Y-55562258D02*
X116942500Y-55087742D01*
X112837258Y-49252500D02*
X112362742Y-49252500D01*
X112837258Y-48207500D02*
X112362742Y-48207500D01*
X121922742Y-49347500D02*
X122397258Y-49347500D01*
X121922742Y-50392500D02*
X122397258Y-50392500D01*
X105997500Y-41962258D02*
X105997500Y-41487742D01*
X107042500Y-41962258D02*
X107042500Y-41487742D01*
X109700000Y-41379721D02*
X109700000Y-41705279D01*
X108680000Y-41379721D02*
X108680000Y-41705279D01*
X117840279Y-42810000D02*
X117514721Y-42810000D01*
X117840279Y-41790000D02*
X117514721Y-41790000D01*
X117519721Y-40240000D02*
X117845279Y-40240000D01*
X117519721Y-41260000D02*
X117845279Y-41260000D01*
X122430000Y-55865580D02*
X122430000Y-55584420D01*
X123450000Y-55865580D02*
X123450000Y-55584420D01*
X110740000Y-55505580D02*
X110740000Y-55224420D01*
X111760000Y-55505580D02*
X111760000Y-55224420D01*
X108770000Y-55495580D02*
X108770000Y-55214420D01*
X109790000Y-55495580D02*
X109790000Y-55214420D01*
X106650000Y-55775580D02*
X106650000Y-55494420D01*
X107670000Y-55775580D02*
X107670000Y-55494420D01*
X104744420Y-55870000D02*
X105025580Y-55870000D01*
X104744420Y-56890000D02*
X105025580Y-56890000D01*
X123960000Y-55865580D02*
X123960000Y-55584420D01*
X124980000Y-55865580D02*
X124980000Y-55584420D01*
X109710000Y-44459420D02*
X109710000Y-44740580D01*
X108690000Y-44459420D02*
X108690000Y-44740580D01*
X115740000Y-35830580D02*
X115740000Y-35549420D01*
X116760000Y-35830580D02*
X116760000Y-35549420D01*
X104425580Y-53640000D02*
X104144420Y-53640000D01*
X104425580Y-52620000D02*
X104144420Y-52620000D01*
X121954420Y-41890000D02*
X122235580Y-41890000D01*
X121954420Y-42910000D02*
X122235580Y-42910000D01*
X121954420Y-40350000D02*
X122235580Y-40350000D01*
X121954420Y-41370000D02*
X122235580Y-41370000D01*
X119950000Y-47964420D02*
X119950000Y-48245580D01*
X118930000Y-47964420D02*
X118930000Y-48245580D01*
X117815580Y-44340000D02*
X117534420Y-44340000D01*
X117815580Y-43320000D02*
X117534420Y-43320000D01*
X118380000Y-47954420D02*
X118380000Y-48235580D01*
X117360000Y-47954420D02*
X117360000Y-48235580D01*
X115660000Y-47974420D02*
X115660000Y-48255580D01*
X114640000Y-47974420D02*
X114640000Y-48255580D01*
X121934420Y-38770000D02*
X122215580Y-38770000D01*
X121934420Y-39790000D02*
X122215580Y-39790000D01*
X111740000Y-35855580D02*
X111740000Y-35574420D01*
X112760000Y-35855580D02*
X112760000Y-35574420D01*
X108585580Y-39690000D02*
X108304420Y-39690000D01*
X108585580Y-38670000D02*
X108304420Y-38670000D01*
D11*
X115489925Y-56798803D02*
X115489925Y-57436224D01*
X115452430Y-57511215D01*
X115414934Y-57548710D01*
X115339944Y-57586205D01*
X115189962Y-57586205D01*
X115114972Y-57548710D01*
X115077476Y-57511215D01*
X115039981Y-57436224D01*
X115039981Y-56798803D01*
X114740018Y-56798803D02*
X114215084Y-56798803D01*
X114552542Y-57586205D01*
X125268095Y-57349523D02*
X124871904Y-57349523D01*
X125085238Y-57593333D01*
X124993809Y-57593333D01*
X124932857Y-57623809D01*
X124902380Y-57654285D01*
X124871904Y-57715238D01*
X124871904Y-57867619D01*
X124902380Y-57928571D01*
X124932857Y-57959047D01*
X124993809Y-57989523D01*
X125176666Y-57989523D01*
X125237619Y-57959047D01*
X125268095Y-57928571D01*
X124475714Y-57349523D02*
X124414761Y-57349523D01*
X124353809Y-57380000D01*
X124323333Y-57410476D01*
X124292857Y-57471428D01*
X124262380Y-57593333D01*
X124262380Y-57745714D01*
X124292857Y-57867619D01*
X124323333Y-57928571D01*
X124353809Y-57959047D01*
X124414761Y-57989523D01*
X124475714Y-57989523D01*
X124536666Y-57959047D01*
X124567142Y-57928571D01*
X124597619Y-57867619D01*
X124628095Y-57745714D01*
X124628095Y-57593333D01*
X124597619Y-57471428D01*
X124567142Y-57410476D01*
X124536666Y-57380000D01*
X124475714Y-57349523D01*
X118287619Y-57410476D02*
X118257142Y-57380000D01*
X118196190Y-57349523D01*
X118043809Y-57349523D01*
X117982857Y-57380000D01*
X117952380Y-57410476D01*
X117921904Y-57471428D01*
X117921904Y-57532380D01*
X117952380Y-57623809D01*
X118318095Y-57989523D01*
X117921904Y-57989523D01*
X117525714Y-57349523D02*
X117464761Y-57349523D01*
X117403809Y-57380000D01*
X117373333Y-57410476D01*
X117342857Y-57471428D01*
X117312380Y-57593333D01*
X117312380Y-57745714D01*
X117342857Y-57867619D01*
X117373333Y-57928571D01*
X117403809Y-57959047D01*
X117464761Y-57989523D01*
X117525714Y-57989523D01*
X117586666Y-57959047D01*
X117617142Y-57928571D01*
X117647619Y-57867619D01*
X117678095Y-57745714D01*
X117678095Y-57593333D01*
X117647619Y-57471428D01*
X117617142Y-57410476D01*
X117586666Y-57380000D01*
X117525714Y-57349523D01*
X110971904Y-57989523D02*
X111337619Y-57989523D01*
X111154761Y-57989523D02*
X111154761Y-57349523D01*
X111215714Y-57440952D01*
X111276666Y-57501904D01*
X111337619Y-57532380D01*
X110575714Y-57349523D02*
X110514761Y-57349523D01*
X110453809Y-57380000D01*
X110423333Y-57410476D01*
X110392857Y-57471428D01*
X110362380Y-57593333D01*
X110362380Y-57745714D01*
X110392857Y-57867619D01*
X110423333Y-57928571D01*
X110453809Y-57959047D01*
X110514761Y-57989523D01*
X110575714Y-57989523D01*
X110636666Y-57959047D01*
X110667142Y-57928571D01*
X110697619Y-57867619D01*
X110728095Y-57745714D01*
X110728095Y-57593333D01*
X110697619Y-57471428D01*
X110667142Y-57410476D01*
X110636666Y-57380000D01*
X110575714Y-57349523D01*
X104167142Y-58089523D02*
X104532857Y-58089523D01*
X104350000Y-58089523D02*
X104350000Y-57449523D01*
X104410952Y-57540952D01*
X104471904Y-57601904D01*
X104532857Y-57632380D01*
X109021904Y-32502380D02*
X109021904Y-33311904D01*
X108974285Y-33407142D01*
X108926666Y-33454761D01*
X108831428Y-33502380D01*
X108640952Y-33502380D01*
X108545714Y-33454761D01*
X108498095Y-33407142D01*
X108450476Y-33311904D01*
X108450476Y-32502380D01*
X107831428Y-32930952D02*
X107926666Y-32883333D01*
X107974285Y-32835714D01*
X108021904Y-32740476D01*
X108021904Y-32692857D01*
X107974285Y-32597619D01*
X107926666Y-32550000D01*
X107831428Y-32502380D01*
X107640952Y-32502380D01*
X107545714Y-32550000D01*
X107498095Y-32597619D01*
X107450476Y-32692857D01*
X107450476Y-32740476D01*
X107498095Y-32835714D01*
X107545714Y-32883333D01*
X107640952Y-32930952D01*
X107831428Y-32930952D01*
X107926666Y-32978571D01*
X107974285Y-33026190D01*
X108021904Y-33121428D01*
X108021904Y-33311904D01*
X107974285Y-33407142D01*
X107926666Y-33454761D01*
X107831428Y-33502380D01*
X107640952Y-33502380D01*
X107545714Y-33454761D01*
X107498095Y-33407142D01*
X107450476Y-33311904D01*
X107450476Y-33121428D01*
X107498095Y-33026190D01*
X107545714Y-32978571D01*
X107640952Y-32930952D01*
X108731904Y-47552380D02*
X108731904Y-48361904D01*
X108684285Y-48457142D01*
X108636666Y-48504761D01*
X108541428Y-48552380D01*
X108350952Y-48552380D01*
X108255714Y-48504761D01*
X108208095Y-48457142D01*
X108160476Y-48361904D01*
X108160476Y-47552380D01*
X107779523Y-47552380D02*
X107160476Y-47552380D01*
X107493809Y-47933333D01*
X107350952Y-47933333D01*
X107255714Y-47980952D01*
X107208095Y-48028571D01*
X107160476Y-48123809D01*
X107160476Y-48361904D01*
X107208095Y-48457142D01*
X107255714Y-48504761D01*
X107350952Y-48552380D01*
X107636666Y-48552380D01*
X107731904Y-48504761D01*
X107779523Y-48457142D01*
X102532380Y-36018095D02*
X103341904Y-36018095D01*
X103437142Y-36065714D01*
X103484761Y-36113333D01*
X103532380Y-36208571D01*
X103532380Y-36399047D01*
X103484761Y-36494285D01*
X103437142Y-36541904D01*
X103341904Y-36589523D01*
X102532380Y-36589523D01*
X102627619Y-37018095D02*
X102580000Y-37065714D01*
X102532380Y-37160952D01*
X102532380Y-37399047D01*
X102580000Y-37494285D01*
X102627619Y-37541904D01*
X102722857Y-37589523D01*
X102818095Y-37589523D01*
X102960952Y-37541904D01*
X103532380Y-36970476D01*
X103532380Y-37589523D01*
X128812857Y-45167142D02*
X128860476Y-45214761D01*
X129003333Y-45262380D01*
X129098571Y-45262380D01*
X129241428Y-45214761D01*
X129336666Y-45119523D01*
X129384285Y-45024285D01*
X129431904Y-44833809D01*
X129431904Y-44690952D01*
X129384285Y-44500476D01*
X129336666Y-44405238D01*
X129241428Y-44310000D01*
X129098571Y-44262380D01*
X129003333Y-44262380D01*
X128860476Y-44310000D01*
X128812857Y-44357619D01*
X127955714Y-44595714D02*
X127955714Y-45262380D01*
X128193809Y-44214761D02*
X128431904Y-44929047D01*
X127812857Y-44929047D01*
X127479523Y-44357619D02*
X127431904Y-44310000D01*
X127336666Y-44262380D01*
X127098571Y-44262380D01*
X127003333Y-44310000D01*
X126955714Y-44357619D01*
X126908095Y-44452857D01*
X126908095Y-44548095D01*
X126955714Y-44690952D01*
X127527142Y-45262380D01*
X126908095Y-45262380D01*
X127562857Y-46907142D02*
X127610476Y-46954761D01*
X127753333Y-47002380D01*
X127848571Y-47002380D01*
X127991428Y-46954761D01*
X128086666Y-46859523D01*
X128134285Y-46764285D01*
X128181904Y-46573809D01*
X128181904Y-46430952D01*
X128134285Y-46240476D01*
X128086666Y-46145238D01*
X127991428Y-46050000D01*
X127848571Y-46002380D01*
X127753333Y-46002380D01*
X127610476Y-46050000D01*
X127562857Y-46097619D01*
X126705714Y-46335714D02*
X126705714Y-47002380D01*
X126943809Y-45954761D02*
X127181904Y-46669047D01*
X126562857Y-46669047D01*
X125658095Y-47002380D02*
X126229523Y-47002380D01*
X125943809Y-47002380D02*
X125943809Y-46002380D01*
X126039047Y-46145238D01*
X126134285Y-46240476D01*
X126229523Y-46288095D01*
X108247142Y-49522142D02*
X108294761Y-49474523D01*
X108342380Y-49331666D01*
X108342380Y-49236428D01*
X108294761Y-49093571D01*
X108199523Y-48998333D01*
X108104285Y-48950714D01*
X107913809Y-48903095D01*
X107770952Y-48903095D01*
X107580476Y-48950714D01*
X107485238Y-48998333D01*
X107390000Y-49093571D01*
X107342380Y-49236428D01*
X107342380Y-49331666D01*
X107390000Y-49474523D01*
X107437619Y-49522142D01*
X107675714Y-50379285D02*
X108342380Y-50379285D01*
X107294761Y-50141190D02*
X108009047Y-49903095D01*
X108009047Y-50522142D01*
X107342380Y-51093571D02*
X107342380Y-51188809D01*
X107390000Y-51284047D01*
X107437619Y-51331666D01*
X107532857Y-51379285D01*
X107723333Y-51426904D01*
X107961428Y-51426904D01*
X108151904Y-51379285D01*
X108247142Y-51331666D01*
X108294761Y-51284047D01*
X108342380Y-51188809D01*
X108342380Y-51093571D01*
X108294761Y-50998333D01*
X108247142Y-50950714D01*
X108151904Y-50903095D01*
X107961428Y-50855476D01*
X107723333Y-50855476D01*
X107532857Y-50903095D01*
X107437619Y-50950714D01*
X107390000Y-50998333D01*
X107342380Y-51093571D01*
X104587142Y-31647142D02*
X104634761Y-31599523D01*
X104682380Y-31456666D01*
X104682380Y-31361428D01*
X104634761Y-31218571D01*
X104539523Y-31123333D01*
X104444285Y-31075714D01*
X104253809Y-31028095D01*
X104110952Y-31028095D01*
X103920476Y-31075714D01*
X103825238Y-31123333D01*
X103730000Y-31218571D01*
X103682380Y-31361428D01*
X103682380Y-31456666D01*
X103730000Y-31599523D01*
X103777619Y-31647142D01*
X103682380Y-31980476D02*
X103682380Y-32599523D01*
X104063333Y-32266190D01*
X104063333Y-32409047D01*
X104110952Y-32504285D01*
X104158571Y-32551904D01*
X104253809Y-32599523D01*
X104491904Y-32599523D01*
X104587142Y-32551904D01*
X104634761Y-32504285D01*
X104682380Y-32409047D01*
X104682380Y-32123333D01*
X104634761Y-32028095D01*
X104587142Y-31980476D01*
X104682380Y-33075714D02*
X104682380Y-33266190D01*
X104634761Y-33361428D01*
X104587142Y-33409047D01*
X104444285Y-33504285D01*
X104253809Y-33551904D01*
X103872857Y-33551904D01*
X103777619Y-33504285D01*
X103730000Y-33456666D01*
X103682380Y-33361428D01*
X103682380Y-33170952D01*
X103730000Y-33075714D01*
X103777619Y-33028095D01*
X103872857Y-32980476D01*
X104110952Y-32980476D01*
X104206190Y-33028095D01*
X104253809Y-33075714D01*
X104301428Y-33170952D01*
X104301428Y-33361428D01*
X104253809Y-33456666D01*
X104206190Y-33504285D01*
X104110952Y-33551904D01*
X109162857Y-31457142D02*
X109210476Y-31504761D01*
X109353333Y-31552380D01*
X109448571Y-31552380D01*
X109591428Y-31504761D01*
X109686666Y-31409523D01*
X109734285Y-31314285D01*
X109781904Y-31123809D01*
X109781904Y-30980952D01*
X109734285Y-30790476D01*
X109686666Y-30695238D01*
X109591428Y-30600000D01*
X109448571Y-30552380D01*
X109353333Y-30552380D01*
X109210476Y-30600000D01*
X109162857Y-30647619D01*
X108829523Y-30552380D02*
X108210476Y-30552380D01*
X108543809Y-30933333D01*
X108400952Y-30933333D01*
X108305714Y-30980952D01*
X108258095Y-31028571D01*
X108210476Y-31123809D01*
X108210476Y-31361904D01*
X108258095Y-31457142D01*
X108305714Y-31504761D01*
X108400952Y-31552380D01*
X108686666Y-31552380D01*
X108781904Y-31504761D01*
X108829523Y-31457142D01*
X107639047Y-30980952D02*
X107734285Y-30933333D01*
X107781904Y-30885714D01*
X107829523Y-30790476D01*
X107829523Y-30742857D01*
X107781904Y-30647619D01*
X107734285Y-30600000D01*
X107639047Y-30552380D01*
X107448571Y-30552380D01*
X107353333Y-30600000D01*
X107305714Y-30647619D01*
X107258095Y-30742857D01*
X107258095Y-30790476D01*
X107305714Y-30885714D01*
X107353333Y-30933333D01*
X107448571Y-30980952D01*
X107639047Y-30980952D01*
X107734285Y-31028571D01*
X107781904Y-31076190D01*
X107829523Y-31171428D01*
X107829523Y-31361904D01*
X107781904Y-31457142D01*
X107734285Y-31504761D01*
X107639047Y-31552380D01*
X107448571Y-31552380D01*
X107353333Y-31504761D01*
X107305714Y-31457142D01*
X107258095Y-31361904D01*
X107258095Y-31171428D01*
X107305714Y-31076190D01*
X107353333Y-31028571D01*
X107448571Y-30980952D01*
X104547857Y-46947142D02*
X104595476Y-46994761D01*
X104738333Y-47042380D01*
X104833571Y-47042380D01*
X104976428Y-46994761D01*
X105071666Y-46899523D01*
X105119285Y-46804285D01*
X105166904Y-46613809D01*
X105166904Y-46470952D01*
X105119285Y-46280476D01*
X105071666Y-46185238D01*
X104976428Y-46090000D01*
X104833571Y-46042380D01*
X104738333Y-46042380D01*
X104595476Y-46090000D01*
X104547857Y-46137619D01*
X103595476Y-47042380D02*
X104166904Y-47042380D01*
X103881190Y-47042380D02*
X103881190Y-46042380D01*
X103976428Y-46185238D01*
X104071666Y-46280476D01*
X104166904Y-46328095D01*
X102643095Y-47042380D02*
X103214523Y-47042380D01*
X102928809Y-47042380D02*
X102928809Y-46042380D01*
X103024047Y-46185238D01*
X103119285Y-46280476D01*
X103214523Y-46328095D01*
X106982857Y-46227142D02*
X107030476Y-46274761D01*
X107173333Y-46322380D01*
X107268571Y-46322380D01*
X107411428Y-46274761D01*
X107506666Y-46179523D01*
X107554285Y-46084285D01*
X107601904Y-45893809D01*
X107601904Y-45750952D01*
X107554285Y-45560476D01*
X107506666Y-45465238D01*
X107411428Y-45370000D01*
X107268571Y-45322380D01*
X107173333Y-45322380D01*
X107030476Y-45370000D01*
X106982857Y-45417619D01*
X106030476Y-46322380D02*
X106601904Y-46322380D01*
X106316190Y-46322380D02*
X106316190Y-45322380D01*
X106411428Y-45465238D01*
X106506666Y-45560476D01*
X106601904Y-45608095D01*
X105173333Y-45655714D02*
X105173333Y-46322380D01*
X105411428Y-45274761D02*
X105649523Y-45989047D01*
X105030476Y-45989047D01*
X107692857Y-38187142D02*
X107740476Y-38234761D01*
X107883333Y-38282380D01*
X107978571Y-38282380D01*
X108121428Y-38234761D01*
X108216666Y-38139523D01*
X108264285Y-38044285D01*
X108311904Y-37853809D01*
X108311904Y-37710952D01*
X108264285Y-37520476D01*
X108216666Y-37425238D01*
X108121428Y-37330000D01*
X107978571Y-37282380D01*
X107883333Y-37282380D01*
X107740476Y-37330000D01*
X107692857Y-37377619D01*
X106740476Y-38282380D02*
X107311904Y-38282380D01*
X107026190Y-38282380D02*
X107026190Y-37282380D01*
X107121428Y-37425238D01*
X107216666Y-37520476D01*
X107311904Y-37568095D01*
X106359523Y-37377619D02*
X106311904Y-37330000D01*
X106216666Y-37282380D01*
X105978571Y-37282380D01*
X105883333Y-37330000D01*
X105835714Y-37377619D01*
X105788095Y-37472857D01*
X105788095Y-37568095D01*
X105835714Y-37710952D01*
X106407142Y-38282380D01*
X105788095Y-38282380D01*
X102152857Y-42317142D02*
X102200476Y-42364761D01*
X102343333Y-42412380D01*
X102438571Y-42412380D01*
X102581428Y-42364761D01*
X102676666Y-42269523D01*
X102724285Y-42174285D01*
X102771904Y-41983809D01*
X102771904Y-41840952D01*
X102724285Y-41650476D01*
X102676666Y-41555238D01*
X102581428Y-41460000D01*
X102438571Y-41412380D01*
X102343333Y-41412380D01*
X102200476Y-41460000D01*
X102152857Y-41507619D01*
X101200476Y-42412380D02*
X101771904Y-42412380D01*
X101486190Y-42412380D02*
X101486190Y-41412380D01*
X101581428Y-41555238D01*
X101676666Y-41650476D01*
X101771904Y-41698095D01*
X100581428Y-41412380D02*
X100486190Y-41412380D01*
X100390952Y-41460000D01*
X100343333Y-41507619D01*
X100295714Y-41602857D01*
X100248095Y-41793333D01*
X100248095Y-42031428D01*
X100295714Y-42221904D01*
X100343333Y-42317142D01*
X100390952Y-42364761D01*
X100486190Y-42412380D01*
X100581428Y-42412380D01*
X100676666Y-42364761D01*
X100724285Y-42317142D01*
X100771904Y-42221904D01*
X100819523Y-42031428D01*
X100819523Y-41793333D01*
X100771904Y-41602857D01*
X100724285Y-41507619D01*
X100676666Y-41460000D01*
X100581428Y-41412380D01*
X102452857Y-56342380D02*
X102786190Y-55866190D01*
X103024285Y-56342380D02*
X103024285Y-55342380D01*
X102643333Y-55342380D01*
X102548095Y-55390000D01*
X102500476Y-55437619D01*
X102452857Y-55532857D01*
X102452857Y-55675714D01*
X102500476Y-55770952D01*
X102548095Y-55818571D01*
X102643333Y-55866190D01*
X103024285Y-55866190D01*
X102071904Y-55437619D02*
X102024285Y-55390000D01*
X101929047Y-55342380D01*
X101690952Y-55342380D01*
X101595714Y-55390000D01*
X101548095Y-55437619D01*
X101500476Y-55532857D01*
X101500476Y-55628095D01*
X101548095Y-55770952D01*
X102119523Y-56342380D01*
X101500476Y-56342380D01*
X100881428Y-55342380D02*
X100786190Y-55342380D01*
X100690952Y-55390000D01*
X100643333Y-55437619D01*
X100595714Y-55532857D01*
X100548095Y-55723333D01*
X100548095Y-55961428D01*
X100595714Y-56151904D01*
X100643333Y-56247142D01*
X100690952Y-56294761D01*
X100786190Y-56342380D01*
X100881428Y-56342380D01*
X100976666Y-56294761D01*
X101024285Y-56247142D01*
X101071904Y-56151904D01*
X101119523Y-55961428D01*
X101119523Y-55723333D01*
X101071904Y-55532857D01*
X101024285Y-55437619D01*
X100976666Y-55390000D01*
X100881428Y-55342380D01*
X121802380Y-52057142D02*
X121326190Y-51723809D01*
X121802380Y-51485714D02*
X120802380Y-51485714D01*
X120802380Y-51866666D01*
X120850000Y-51961904D01*
X120897619Y-52009523D01*
X120992857Y-52057142D01*
X121135714Y-52057142D01*
X121230952Y-52009523D01*
X121278571Y-51961904D01*
X121326190Y-51866666D01*
X121326190Y-51485714D01*
X121802380Y-53009523D02*
X121802380Y-52438095D01*
X121802380Y-52723809D02*
X120802380Y-52723809D01*
X120945238Y-52628571D01*
X121040476Y-52533333D01*
X121088095Y-52438095D01*
X121230952Y-53580952D02*
X121183333Y-53485714D01*
X121135714Y-53438095D01*
X121040476Y-53390476D01*
X120992857Y-53390476D01*
X120897619Y-53438095D01*
X120850000Y-53485714D01*
X120802380Y-53580952D01*
X120802380Y-53771428D01*
X120850000Y-53866666D01*
X120897619Y-53914285D01*
X120992857Y-53961904D01*
X121040476Y-53961904D01*
X121135714Y-53914285D01*
X121183333Y-53866666D01*
X121230952Y-53771428D01*
X121230952Y-53580952D01*
X121278571Y-53485714D01*
X121326190Y-53438095D01*
X121421428Y-53390476D01*
X121611904Y-53390476D01*
X121707142Y-53438095D01*
X121754761Y-53485714D01*
X121802380Y-53580952D01*
X121802380Y-53771428D01*
X121754761Y-53866666D01*
X121707142Y-53914285D01*
X121611904Y-53961904D01*
X121421428Y-53961904D01*
X121326190Y-53914285D01*
X121278571Y-53866666D01*
X121230952Y-53771428D01*
X113782380Y-51597142D02*
X113306190Y-51263809D01*
X113782380Y-51025714D02*
X112782380Y-51025714D01*
X112782380Y-51406666D01*
X112830000Y-51501904D01*
X112877619Y-51549523D01*
X112972857Y-51597142D01*
X113115714Y-51597142D01*
X113210952Y-51549523D01*
X113258571Y-51501904D01*
X113306190Y-51406666D01*
X113306190Y-51025714D01*
X113782380Y-52549523D02*
X113782380Y-51978095D01*
X113782380Y-52263809D02*
X112782380Y-52263809D01*
X112925238Y-52168571D01*
X113020476Y-52073333D01*
X113068095Y-51978095D01*
X112782380Y-52882857D02*
X112782380Y-53549523D01*
X113782380Y-53120952D01*
X115122380Y-50227142D02*
X114646190Y-49893809D01*
X115122380Y-49655714D02*
X114122380Y-49655714D01*
X114122380Y-50036666D01*
X114170000Y-50131904D01*
X114217619Y-50179523D01*
X114312857Y-50227142D01*
X114455714Y-50227142D01*
X114550952Y-50179523D01*
X114598571Y-50131904D01*
X114646190Y-50036666D01*
X114646190Y-49655714D01*
X115122380Y-51179523D02*
X115122380Y-50608095D01*
X115122380Y-50893809D02*
X114122380Y-50893809D01*
X114265238Y-50798571D01*
X114360476Y-50703333D01*
X114408095Y-50608095D01*
X114122380Y-52036666D02*
X114122380Y-51846190D01*
X114170000Y-51750952D01*
X114217619Y-51703333D01*
X114360476Y-51608095D01*
X114550952Y-51560476D01*
X114931904Y-51560476D01*
X115027142Y-51608095D01*
X115074761Y-51655714D01*
X115122380Y-51750952D01*
X115122380Y-51941428D01*
X115074761Y-52036666D01*
X115027142Y-52084285D01*
X114931904Y-52131904D01*
X114693809Y-52131904D01*
X114598571Y-52084285D01*
X114550952Y-52036666D01*
X114503333Y-51941428D01*
X114503333Y-51750952D01*
X114550952Y-51655714D01*
X114598571Y-51608095D01*
X114693809Y-51560476D01*
X117412857Y-51932380D02*
X117746190Y-51456190D01*
X117984285Y-51932380D02*
X117984285Y-50932380D01*
X117603333Y-50932380D01*
X117508095Y-50980000D01*
X117460476Y-51027619D01*
X117412857Y-51122857D01*
X117412857Y-51265714D01*
X117460476Y-51360952D01*
X117508095Y-51408571D01*
X117603333Y-51456190D01*
X117984285Y-51456190D01*
X116460476Y-51932380D02*
X117031904Y-51932380D01*
X116746190Y-51932380D02*
X116746190Y-50932380D01*
X116841428Y-51075238D01*
X116936666Y-51170476D01*
X117031904Y-51218095D01*
X115555714Y-50932380D02*
X116031904Y-50932380D01*
X116079523Y-51408571D01*
X116031904Y-51360952D01*
X115936666Y-51313333D01*
X115698571Y-51313333D01*
X115603333Y-51360952D01*
X115555714Y-51408571D01*
X115508095Y-51503809D01*
X115508095Y-51741904D01*
X115555714Y-51837142D01*
X115603333Y-51884761D01*
X115698571Y-51932380D01*
X115936666Y-51932380D01*
X116031904Y-51884761D01*
X116079523Y-51837142D01*
X118372380Y-54367142D02*
X117896190Y-54033809D01*
X118372380Y-53795714D02*
X117372380Y-53795714D01*
X117372380Y-54176666D01*
X117420000Y-54271904D01*
X117467619Y-54319523D01*
X117562857Y-54367142D01*
X117705714Y-54367142D01*
X117800952Y-54319523D01*
X117848571Y-54271904D01*
X117896190Y-54176666D01*
X117896190Y-53795714D01*
X118372380Y-55319523D02*
X118372380Y-54748095D01*
X118372380Y-55033809D02*
X117372380Y-55033809D01*
X117515238Y-54938571D01*
X117610476Y-54843333D01*
X117658095Y-54748095D01*
X117705714Y-56176666D02*
X118372380Y-56176666D01*
X117324761Y-55938571D02*
X118039047Y-55700476D01*
X118039047Y-56319523D01*
X113292857Y-47652380D02*
X113626190Y-47176190D01*
X113864285Y-47652380D02*
X113864285Y-46652380D01*
X113483333Y-46652380D01*
X113388095Y-46700000D01*
X113340476Y-46747619D01*
X113292857Y-46842857D01*
X113292857Y-46985714D01*
X113340476Y-47080952D01*
X113388095Y-47128571D01*
X113483333Y-47176190D01*
X113864285Y-47176190D01*
X112340476Y-47652380D02*
X112911904Y-47652380D01*
X112626190Y-47652380D02*
X112626190Y-46652380D01*
X112721428Y-46795238D01*
X112816666Y-46890476D01*
X112911904Y-46938095D01*
X112007142Y-46652380D02*
X111388095Y-46652380D01*
X111721428Y-47033333D01*
X111578571Y-47033333D01*
X111483333Y-47080952D01*
X111435714Y-47128571D01*
X111388095Y-47223809D01*
X111388095Y-47461904D01*
X111435714Y-47557142D01*
X111483333Y-47604761D01*
X111578571Y-47652380D01*
X111864285Y-47652380D01*
X111959523Y-47604761D01*
X112007142Y-47557142D01*
X122822857Y-48712380D02*
X123156190Y-48236190D01*
X123394285Y-48712380D02*
X123394285Y-47712380D01*
X123013333Y-47712380D01*
X122918095Y-47760000D01*
X122870476Y-47807619D01*
X122822857Y-47902857D01*
X122822857Y-48045714D01*
X122870476Y-48140952D01*
X122918095Y-48188571D01*
X123013333Y-48236190D01*
X123394285Y-48236190D01*
X121870476Y-48712380D02*
X122441904Y-48712380D01*
X122156190Y-48712380D02*
X122156190Y-47712380D01*
X122251428Y-47855238D01*
X122346666Y-47950476D01*
X122441904Y-47998095D01*
X121489523Y-47807619D02*
X121441904Y-47760000D01*
X121346666Y-47712380D01*
X121108571Y-47712380D01*
X121013333Y-47760000D01*
X120965714Y-47807619D01*
X120918095Y-47902857D01*
X120918095Y-47998095D01*
X120965714Y-48140952D01*
X121537142Y-48712380D01*
X120918095Y-48712380D01*
X108362380Y-41423333D02*
X107886190Y-41090000D01*
X108362380Y-40851904D02*
X107362380Y-40851904D01*
X107362380Y-41232857D01*
X107410000Y-41328095D01*
X107457619Y-41375714D01*
X107552857Y-41423333D01*
X107695714Y-41423333D01*
X107790952Y-41375714D01*
X107838571Y-41328095D01*
X107886190Y-41232857D01*
X107886190Y-40851904D01*
X107457619Y-41804285D02*
X107410000Y-41851904D01*
X107362380Y-41947142D01*
X107362380Y-42185238D01*
X107410000Y-42280476D01*
X107457619Y-42328095D01*
X107552857Y-42375714D01*
X107648095Y-42375714D01*
X107790952Y-42328095D01*
X108362380Y-41756666D01*
X108362380Y-42375714D01*
X111342380Y-41223333D02*
X111342380Y-40747142D01*
X110342380Y-40747142D01*
X110675714Y-41985238D02*
X111342380Y-41985238D01*
X110294761Y-41747142D02*
X111009047Y-41509047D01*
X111009047Y-42128095D01*
X115236666Y-42772380D02*
X115712857Y-42772380D01*
X115712857Y-41772380D01*
X114950952Y-41867619D02*
X114903333Y-41820000D01*
X114808095Y-41772380D01*
X114570000Y-41772380D01*
X114474761Y-41820000D01*
X114427142Y-41867619D01*
X114379523Y-41962857D01*
X114379523Y-42058095D01*
X114427142Y-42200952D01*
X114998571Y-42772380D01*
X114379523Y-42772380D01*
X115256666Y-41112380D02*
X115732857Y-41112380D01*
X115732857Y-40112380D01*
X114399523Y-41112380D02*
X114970952Y-41112380D01*
X114685238Y-41112380D02*
X114685238Y-40112380D01*
X114780476Y-40255238D01*
X114875714Y-40350476D01*
X114970952Y-40398095D01*
X122492857Y-53382857D02*
X122445238Y-53430476D01*
X122397619Y-53573333D01*
X122397619Y-53668571D01*
X122445238Y-53811428D01*
X122540476Y-53906666D01*
X122635714Y-53954285D01*
X122826190Y-54001904D01*
X122969047Y-54001904D01*
X123159523Y-53954285D01*
X123254761Y-53906666D01*
X123350000Y-53811428D01*
X123397619Y-53668571D01*
X123397619Y-53573333D01*
X123350000Y-53430476D01*
X123302380Y-53382857D01*
X123397619Y-53049523D02*
X123397619Y-52430476D01*
X123016666Y-52763809D01*
X123016666Y-52620952D01*
X122969047Y-52525714D01*
X122921428Y-52478095D01*
X122826190Y-52430476D01*
X122588095Y-52430476D01*
X122492857Y-52478095D01*
X122445238Y-52525714D01*
X122397619Y-52620952D01*
X122397619Y-52906666D01*
X122445238Y-53001904D01*
X122492857Y-53049523D01*
X123397619Y-52097142D02*
X123397619Y-51478095D01*
X123016666Y-51811428D01*
X123016666Y-51668571D01*
X122969047Y-51573333D01*
X122921428Y-51525714D01*
X122826190Y-51478095D01*
X122588095Y-51478095D01*
X122492857Y-51525714D01*
X122445238Y-51573333D01*
X122397619Y-51668571D01*
X122397619Y-51954285D01*
X122445238Y-52049523D01*
X122492857Y-52097142D01*
X111447142Y-51777142D02*
X111494761Y-51729523D01*
X111542380Y-51586666D01*
X111542380Y-51491428D01*
X111494761Y-51348571D01*
X111399523Y-51253333D01*
X111304285Y-51205714D01*
X111113809Y-51158095D01*
X110970952Y-51158095D01*
X110780476Y-51205714D01*
X110685238Y-51253333D01*
X110590000Y-51348571D01*
X110542380Y-51491428D01*
X110542380Y-51586666D01*
X110590000Y-51729523D01*
X110637619Y-51777142D01*
X110542380Y-52110476D02*
X110542380Y-52729523D01*
X110923333Y-52396190D01*
X110923333Y-52539047D01*
X110970952Y-52634285D01*
X111018571Y-52681904D01*
X111113809Y-52729523D01*
X111351904Y-52729523D01*
X111447142Y-52681904D01*
X111494761Y-52634285D01*
X111542380Y-52539047D01*
X111542380Y-52253333D01*
X111494761Y-52158095D01*
X111447142Y-52110476D01*
X110637619Y-53110476D02*
X110590000Y-53158095D01*
X110542380Y-53253333D01*
X110542380Y-53491428D01*
X110590000Y-53586666D01*
X110637619Y-53634285D01*
X110732857Y-53681904D01*
X110828095Y-53681904D01*
X110970952Y-53634285D01*
X111542380Y-53062857D01*
X111542380Y-53681904D01*
X110137142Y-52117142D02*
X110184761Y-52069523D01*
X110232380Y-51926666D01*
X110232380Y-51831428D01*
X110184761Y-51688571D01*
X110089523Y-51593333D01*
X109994285Y-51545714D01*
X109803809Y-51498095D01*
X109660952Y-51498095D01*
X109470476Y-51545714D01*
X109375238Y-51593333D01*
X109280000Y-51688571D01*
X109232380Y-51831428D01*
X109232380Y-51926666D01*
X109280000Y-52069523D01*
X109327619Y-52117142D01*
X109232380Y-52450476D02*
X109232380Y-53069523D01*
X109613333Y-52736190D01*
X109613333Y-52879047D01*
X109660952Y-52974285D01*
X109708571Y-53021904D01*
X109803809Y-53069523D01*
X110041904Y-53069523D01*
X110137142Y-53021904D01*
X110184761Y-52974285D01*
X110232380Y-52879047D01*
X110232380Y-52593333D01*
X110184761Y-52498095D01*
X110137142Y-52450476D01*
X110232380Y-54021904D02*
X110232380Y-53450476D01*
X110232380Y-53736190D02*
X109232380Y-53736190D01*
X109375238Y-53640952D01*
X109470476Y-53545714D01*
X109518095Y-53450476D01*
X108597142Y-51947142D02*
X108644761Y-51899523D01*
X108692380Y-51756666D01*
X108692380Y-51661428D01*
X108644761Y-51518571D01*
X108549523Y-51423333D01*
X108454285Y-51375714D01*
X108263809Y-51328095D01*
X108120952Y-51328095D01*
X107930476Y-51375714D01*
X107835238Y-51423333D01*
X107740000Y-51518571D01*
X107692380Y-51661428D01*
X107692380Y-51756666D01*
X107740000Y-51899523D01*
X107787619Y-51947142D01*
X107692380Y-52280476D02*
X107692380Y-52899523D01*
X108073333Y-52566190D01*
X108073333Y-52709047D01*
X108120952Y-52804285D01*
X108168571Y-52851904D01*
X108263809Y-52899523D01*
X108501904Y-52899523D01*
X108597142Y-52851904D01*
X108644761Y-52804285D01*
X108692380Y-52709047D01*
X108692380Y-52423333D01*
X108644761Y-52328095D01*
X108597142Y-52280476D01*
X107692380Y-53518571D02*
X107692380Y-53613809D01*
X107740000Y-53709047D01*
X107787619Y-53756666D01*
X107882857Y-53804285D01*
X108073333Y-53851904D01*
X108311428Y-53851904D01*
X108501904Y-53804285D01*
X108597142Y-53756666D01*
X108644761Y-53709047D01*
X108692380Y-53613809D01*
X108692380Y-53518571D01*
X108644761Y-53423333D01*
X108597142Y-53375714D01*
X108501904Y-53328095D01*
X108311428Y-53280476D01*
X108073333Y-53280476D01*
X107882857Y-53328095D01*
X107787619Y-53375714D01*
X107740000Y-53423333D01*
X107692380Y-53518571D01*
X105602857Y-55347142D02*
X105650476Y-55394761D01*
X105793333Y-55442380D01*
X105888571Y-55442380D01*
X106031428Y-55394761D01*
X106126666Y-55299523D01*
X106174285Y-55204285D01*
X106221904Y-55013809D01*
X106221904Y-54870952D01*
X106174285Y-54680476D01*
X106126666Y-54585238D01*
X106031428Y-54490000D01*
X105888571Y-54442380D01*
X105793333Y-54442380D01*
X105650476Y-54490000D01*
X105602857Y-54537619D01*
X105221904Y-54537619D02*
X105174285Y-54490000D01*
X105079047Y-54442380D01*
X104840952Y-54442380D01*
X104745714Y-54490000D01*
X104698095Y-54537619D01*
X104650476Y-54632857D01*
X104650476Y-54728095D01*
X104698095Y-54870952D01*
X105269523Y-55442380D01*
X104650476Y-55442380D01*
X104174285Y-55442380D02*
X103983809Y-55442380D01*
X103888571Y-55394761D01*
X103840952Y-55347142D01*
X103745714Y-55204285D01*
X103698095Y-55013809D01*
X103698095Y-54632857D01*
X103745714Y-54537619D01*
X103793333Y-54490000D01*
X103888571Y-54442380D01*
X104079047Y-54442380D01*
X104174285Y-54490000D01*
X104221904Y-54537619D01*
X104269523Y-54632857D01*
X104269523Y-54870952D01*
X104221904Y-54966190D01*
X104174285Y-55013809D01*
X104079047Y-55061428D01*
X103888571Y-55061428D01*
X103793333Y-55013809D01*
X103745714Y-54966190D01*
X103698095Y-54870952D01*
X124092857Y-53382857D02*
X124045238Y-53430476D01*
X123997619Y-53573333D01*
X123997619Y-53668571D01*
X124045238Y-53811428D01*
X124140476Y-53906666D01*
X124235714Y-53954285D01*
X124426190Y-54001904D01*
X124569047Y-54001904D01*
X124759523Y-53954285D01*
X124854761Y-53906666D01*
X124950000Y-53811428D01*
X124997619Y-53668571D01*
X124997619Y-53573333D01*
X124950000Y-53430476D01*
X124902380Y-53382857D01*
X124902380Y-53001904D02*
X124950000Y-52954285D01*
X124997619Y-52859047D01*
X124997619Y-52620952D01*
X124950000Y-52525714D01*
X124902380Y-52478095D01*
X124807142Y-52430476D01*
X124711904Y-52430476D01*
X124569047Y-52478095D01*
X123997619Y-53049523D01*
X123997619Y-52430476D01*
X124569047Y-51859047D02*
X124616666Y-51954285D01*
X124664285Y-52001904D01*
X124759523Y-52049523D01*
X124807142Y-52049523D01*
X124902380Y-52001904D01*
X124950000Y-51954285D01*
X124997619Y-51859047D01*
X124997619Y-51668571D01*
X124950000Y-51573333D01*
X124902380Y-51525714D01*
X124807142Y-51478095D01*
X124759523Y-51478095D01*
X124664285Y-51525714D01*
X124616666Y-51573333D01*
X124569047Y-51668571D01*
X124569047Y-51859047D01*
X124521428Y-51954285D01*
X124473809Y-52001904D01*
X124378571Y-52049523D01*
X124188095Y-52049523D01*
X124092857Y-52001904D01*
X124045238Y-51954285D01*
X123997619Y-51859047D01*
X123997619Y-51668571D01*
X124045238Y-51573333D01*
X124092857Y-51525714D01*
X124188095Y-51478095D01*
X124378571Y-51478095D01*
X124473809Y-51525714D01*
X124521428Y-51573333D01*
X124569047Y-51668571D01*
X111217142Y-43767142D02*
X111264761Y-43719523D01*
X111312380Y-43576666D01*
X111312380Y-43481428D01*
X111264761Y-43338571D01*
X111169523Y-43243333D01*
X111074285Y-43195714D01*
X110883809Y-43148095D01*
X110740952Y-43148095D01*
X110550476Y-43195714D01*
X110455238Y-43243333D01*
X110360000Y-43338571D01*
X110312380Y-43481428D01*
X110312380Y-43576666D01*
X110360000Y-43719523D01*
X110407619Y-43767142D01*
X110407619Y-44148095D02*
X110360000Y-44195714D01*
X110312380Y-44290952D01*
X110312380Y-44529047D01*
X110360000Y-44624285D01*
X110407619Y-44671904D01*
X110502857Y-44719523D01*
X110598095Y-44719523D01*
X110740952Y-44671904D01*
X111312380Y-44100476D01*
X111312380Y-44719523D01*
X110312380Y-45052857D02*
X110312380Y-45671904D01*
X110693333Y-45338571D01*
X110693333Y-45481428D01*
X110740952Y-45576666D01*
X110788571Y-45624285D01*
X110883809Y-45671904D01*
X111121904Y-45671904D01*
X111217142Y-45624285D01*
X111264761Y-45576666D01*
X111312380Y-45481428D01*
X111312380Y-45195714D01*
X111264761Y-45100476D01*
X111217142Y-45052857D01*
X118037142Y-35047142D02*
X118084761Y-34999523D01*
X118132380Y-34856666D01*
X118132380Y-34761428D01*
X118084761Y-34618571D01*
X117989523Y-34523333D01*
X117894285Y-34475714D01*
X117703809Y-34428095D01*
X117560952Y-34428095D01*
X117370476Y-34475714D01*
X117275238Y-34523333D01*
X117180000Y-34618571D01*
X117132380Y-34761428D01*
X117132380Y-34856666D01*
X117180000Y-34999523D01*
X117227619Y-35047142D01*
X117227619Y-35428095D02*
X117180000Y-35475714D01*
X117132380Y-35570952D01*
X117132380Y-35809047D01*
X117180000Y-35904285D01*
X117227619Y-35951904D01*
X117322857Y-35999523D01*
X117418095Y-35999523D01*
X117560952Y-35951904D01*
X118132380Y-35380476D01*
X118132380Y-35999523D01*
X118132380Y-36951904D02*
X118132380Y-36380476D01*
X118132380Y-36666190D02*
X117132380Y-36666190D01*
X117275238Y-36570952D01*
X117370476Y-36475714D01*
X117418095Y-36380476D01*
X107962857Y-53477142D02*
X108010476Y-53524761D01*
X108153333Y-53572380D01*
X108248571Y-53572380D01*
X108391428Y-53524761D01*
X108486666Y-53429523D01*
X108534285Y-53334285D01*
X108581904Y-53143809D01*
X108581904Y-53000952D01*
X108534285Y-52810476D01*
X108486666Y-52715238D01*
X108391428Y-52620000D01*
X108248571Y-52572380D01*
X108153333Y-52572380D01*
X108010476Y-52620000D01*
X107962857Y-52667619D01*
X107010476Y-53572380D02*
X107581904Y-53572380D01*
X107296190Y-53572380D02*
X107296190Y-52572380D01*
X107391428Y-52715238D01*
X107486666Y-52810476D01*
X107581904Y-52858095D01*
X106677142Y-52572380D02*
X106058095Y-52572380D01*
X106391428Y-52953333D01*
X106248571Y-52953333D01*
X106153333Y-53000952D01*
X106105714Y-53048571D01*
X106058095Y-53143809D01*
X106058095Y-53381904D01*
X106105714Y-53477142D01*
X106153333Y-53524761D01*
X106248571Y-53572380D01*
X106534285Y-53572380D01*
X106629523Y-53524761D01*
X106677142Y-53477142D01*
X124856666Y-42807142D02*
X124904285Y-42854761D01*
X125047142Y-42902380D01*
X125142380Y-42902380D01*
X125285238Y-42854761D01*
X125380476Y-42759523D01*
X125428095Y-42664285D01*
X125475714Y-42473809D01*
X125475714Y-42330952D01*
X125428095Y-42140476D01*
X125380476Y-42045238D01*
X125285238Y-41950000D01*
X125142380Y-41902380D01*
X125047142Y-41902380D01*
X124904285Y-41950000D01*
X124856666Y-41997619D01*
X124380476Y-42902380D02*
X124190000Y-42902380D01*
X124094761Y-42854761D01*
X124047142Y-42807142D01*
X123951904Y-42664285D01*
X123904285Y-42473809D01*
X123904285Y-42092857D01*
X123951904Y-41997619D01*
X123999523Y-41950000D01*
X124094761Y-41902380D01*
X124285238Y-41902380D01*
X124380476Y-41950000D01*
X124428095Y-41997619D01*
X124475714Y-42092857D01*
X124475714Y-42330952D01*
X124428095Y-42426190D01*
X124380476Y-42473809D01*
X124285238Y-42521428D01*
X124094761Y-42521428D01*
X123999523Y-42473809D01*
X123951904Y-42426190D01*
X123904285Y-42330952D01*
X124906666Y-41207142D02*
X124954285Y-41254761D01*
X125097142Y-41302380D01*
X125192380Y-41302380D01*
X125335238Y-41254761D01*
X125430476Y-41159523D01*
X125478095Y-41064285D01*
X125525714Y-40873809D01*
X125525714Y-40730952D01*
X125478095Y-40540476D01*
X125430476Y-40445238D01*
X125335238Y-40350000D01*
X125192380Y-40302380D01*
X125097142Y-40302380D01*
X124954285Y-40350000D01*
X124906666Y-40397619D01*
X124335238Y-40730952D02*
X124430476Y-40683333D01*
X124478095Y-40635714D01*
X124525714Y-40540476D01*
X124525714Y-40492857D01*
X124478095Y-40397619D01*
X124430476Y-40350000D01*
X124335238Y-40302380D01*
X124144761Y-40302380D01*
X124049523Y-40350000D01*
X124001904Y-40397619D01*
X123954285Y-40492857D01*
X123954285Y-40540476D01*
X124001904Y-40635714D01*
X124049523Y-40683333D01*
X124144761Y-40730952D01*
X124335238Y-40730952D01*
X124430476Y-40778571D01*
X124478095Y-40826190D01*
X124525714Y-40921428D01*
X124525714Y-41111904D01*
X124478095Y-41207142D01*
X124430476Y-41254761D01*
X124335238Y-41302380D01*
X124144761Y-41302380D01*
X124049523Y-41254761D01*
X124001904Y-41207142D01*
X123954285Y-41111904D01*
X123954285Y-40921428D01*
X124001904Y-40826190D01*
X124049523Y-40778571D01*
X124144761Y-40730952D01*
X119747142Y-45353333D02*
X119794761Y-45305714D01*
X119842380Y-45162857D01*
X119842380Y-45067619D01*
X119794761Y-44924761D01*
X119699523Y-44829523D01*
X119604285Y-44781904D01*
X119413809Y-44734285D01*
X119270952Y-44734285D01*
X119080476Y-44781904D01*
X118985238Y-44829523D01*
X118890000Y-44924761D01*
X118842380Y-45067619D01*
X118842380Y-45162857D01*
X118890000Y-45305714D01*
X118937619Y-45353333D01*
X118842380Y-45686666D02*
X118842380Y-46353333D01*
X119842380Y-45924761D01*
X115306666Y-44277142D02*
X115354285Y-44324761D01*
X115497142Y-44372380D01*
X115592380Y-44372380D01*
X115735238Y-44324761D01*
X115830476Y-44229523D01*
X115878095Y-44134285D01*
X115925714Y-43943809D01*
X115925714Y-43800952D01*
X115878095Y-43610476D01*
X115830476Y-43515238D01*
X115735238Y-43420000D01*
X115592380Y-43372380D01*
X115497142Y-43372380D01*
X115354285Y-43420000D01*
X115306666Y-43467619D01*
X114449523Y-43372380D02*
X114640000Y-43372380D01*
X114735238Y-43420000D01*
X114782857Y-43467619D01*
X114878095Y-43610476D01*
X114925714Y-43800952D01*
X114925714Y-44181904D01*
X114878095Y-44277142D01*
X114830476Y-44324761D01*
X114735238Y-44372380D01*
X114544761Y-44372380D01*
X114449523Y-44324761D01*
X114401904Y-44277142D01*
X114354285Y-44181904D01*
X114354285Y-43943809D01*
X114401904Y-43848571D01*
X114449523Y-43800952D01*
X114544761Y-43753333D01*
X114735238Y-43753333D01*
X114830476Y-43800952D01*
X114878095Y-43848571D01*
X114925714Y-43943809D01*
X118347142Y-45383333D02*
X118394761Y-45335714D01*
X118442380Y-45192857D01*
X118442380Y-45097619D01*
X118394761Y-44954761D01*
X118299523Y-44859523D01*
X118204285Y-44811904D01*
X118013809Y-44764285D01*
X117870952Y-44764285D01*
X117680476Y-44811904D01*
X117585238Y-44859523D01*
X117490000Y-44954761D01*
X117442380Y-45097619D01*
X117442380Y-45192857D01*
X117490000Y-45335714D01*
X117537619Y-45383333D01*
X117442380Y-46288095D02*
X117442380Y-45811904D01*
X117918571Y-45764285D01*
X117870952Y-45811904D01*
X117823333Y-45907142D01*
X117823333Y-46145238D01*
X117870952Y-46240476D01*
X117918571Y-46288095D01*
X118013809Y-46335714D01*
X118251904Y-46335714D01*
X118347142Y-46288095D01*
X118394761Y-46240476D01*
X118442380Y-46145238D01*
X118442380Y-45907142D01*
X118394761Y-45811904D01*
X118347142Y-45764285D01*
X115406666Y-46207142D02*
X115454285Y-46254761D01*
X115597142Y-46302380D01*
X115692380Y-46302380D01*
X115835238Y-46254761D01*
X115930476Y-46159523D01*
X115978095Y-46064285D01*
X116025714Y-45873809D01*
X116025714Y-45730952D01*
X115978095Y-45540476D01*
X115930476Y-45445238D01*
X115835238Y-45350000D01*
X115692380Y-45302380D01*
X115597142Y-45302380D01*
X115454285Y-45350000D01*
X115406666Y-45397619D01*
X114549523Y-45635714D02*
X114549523Y-46302380D01*
X114787619Y-45254761D02*
X115025714Y-45969047D01*
X114406666Y-45969047D01*
X124816666Y-39607142D02*
X124864285Y-39654761D01*
X125007142Y-39702380D01*
X125102380Y-39702380D01*
X125245238Y-39654761D01*
X125340476Y-39559523D01*
X125388095Y-39464285D01*
X125435714Y-39273809D01*
X125435714Y-39130952D01*
X125388095Y-38940476D01*
X125340476Y-38845238D01*
X125245238Y-38750000D01*
X125102380Y-38702380D01*
X125007142Y-38702380D01*
X124864285Y-38750000D01*
X124816666Y-38797619D01*
X124483333Y-38702380D02*
X123864285Y-38702380D01*
X124197619Y-39083333D01*
X124054761Y-39083333D01*
X123959523Y-39130952D01*
X123911904Y-39178571D01*
X123864285Y-39273809D01*
X123864285Y-39511904D01*
X123911904Y-39607142D01*
X123959523Y-39654761D01*
X124054761Y-39702380D01*
X124340476Y-39702380D01*
X124435714Y-39654761D01*
X124483333Y-39607142D01*
X114037142Y-35548333D02*
X114084761Y-35500714D01*
X114132380Y-35357857D01*
X114132380Y-35262619D01*
X114084761Y-35119761D01*
X113989523Y-35024523D01*
X113894285Y-34976904D01*
X113703809Y-34929285D01*
X113560952Y-34929285D01*
X113370476Y-34976904D01*
X113275238Y-35024523D01*
X113180000Y-35119761D01*
X113132380Y-35262619D01*
X113132380Y-35357857D01*
X113180000Y-35500714D01*
X113227619Y-35548333D01*
X113227619Y-35929285D02*
X113180000Y-35976904D01*
X113132380Y-36072142D01*
X113132380Y-36310238D01*
X113180000Y-36405476D01*
X113227619Y-36453095D01*
X113322857Y-36500714D01*
X113418095Y-36500714D01*
X113560952Y-36453095D01*
X114132380Y-35881666D01*
X114132380Y-36500714D01*
X111316666Y-39447142D02*
X111364285Y-39494761D01*
X111507142Y-39542380D01*
X111602380Y-39542380D01*
X111745238Y-39494761D01*
X111840476Y-39399523D01*
X111888095Y-39304285D01*
X111935714Y-39113809D01*
X111935714Y-38970952D01*
X111888095Y-38780476D01*
X111840476Y-38685238D01*
X111745238Y-38590000D01*
X111602380Y-38542380D01*
X111507142Y-38542380D01*
X111364285Y-38590000D01*
X111316666Y-38637619D01*
X110364285Y-39542380D02*
X110935714Y-39542380D01*
X110650000Y-39542380D02*
X110650000Y-38542380D01*
X110745238Y-38685238D01*
X110840476Y-38780476D01*
X110935714Y-38828095D01*
%LPC*%
G36*
G01*
X124925000Y-59550000D02*
X124925000Y-57950000D01*
G75*
G02*
X124975000Y-57900000I50000J0D01*
G01*
X125325000Y-57900000D01*
G75*
G02*
X125375000Y-57950000I0J-50000D01*
G01*
X125375000Y-59550000D01*
G75*
G02*
X125325000Y-59600000I-50000J0D01*
G01*
X124975000Y-59600000D01*
G75*
G02*
X124925000Y-59550000I0J50000D01*
G01*
G37*
G36*
G01*
X124225000Y-59550000D02*
X124225000Y-57950000D01*
G75*
G02*
X124275000Y-57900000I50000J0D01*
G01*
X124625000Y-57900000D01*
G75*
G02*
X124675000Y-57950000I0J-50000D01*
G01*
X124675000Y-59550000D01*
G75*
G02*
X124625000Y-59600000I-50000J0D01*
G01*
X124275000Y-59600000D01*
G75*
G02*
X124225000Y-59550000I0J50000D01*
G01*
G37*
G36*
G01*
X123525000Y-59550000D02*
X123525000Y-57950000D01*
G75*
G02*
X123575000Y-57900000I50000J0D01*
G01*
X123925000Y-57900000D01*
G75*
G02*
X123975000Y-57950000I0J-50000D01*
G01*
X123975000Y-59550000D01*
G75*
G02*
X123925000Y-59600000I-50000J0D01*
G01*
X123575000Y-59600000D01*
G75*
G02*
X123525000Y-59550000I0J50000D01*
G01*
G37*
G36*
G01*
X122825000Y-59550000D02*
X122825000Y-57950000D01*
G75*
G02*
X122875000Y-57900000I50000J0D01*
G01*
X123225000Y-57900000D01*
G75*
G02*
X123275000Y-57950000I0J-50000D01*
G01*
X123275000Y-59550000D01*
G75*
G02*
X123225000Y-59600000I-50000J0D01*
G01*
X122875000Y-59600000D01*
G75*
G02*
X122825000Y-59550000I0J50000D01*
G01*
G37*
G36*
G01*
X122125000Y-59550000D02*
X122125000Y-57950000D01*
G75*
G02*
X122175000Y-57900000I50000J0D01*
G01*
X122525000Y-57900000D01*
G75*
G02*
X122575000Y-57950000I0J-50000D01*
G01*
X122575000Y-59550000D01*
G75*
G02*
X122525000Y-59600000I-50000J0D01*
G01*
X122175000Y-59600000D01*
G75*
G02*
X122125000Y-59550000I0J50000D01*
G01*
G37*
G36*
G01*
X121425000Y-59550000D02*
X121425000Y-57950000D01*
G75*
G02*
X121475000Y-57900000I50000J0D01*
G01*
X121825000Y-57900000D01*
G75*
G02*
X121875000Y-57950000I0J-50000D01*
G01*
X121875000Y-59550000D01*
G75*
G02*
X121825000Y-59600000I-50000J0D01*
G01*
X121475000Y-59600000D01*
G75*
G02*
X121425000Y-59550000I0J50000D01*
G01*
G37*
G36*
G01*
X120725000Y-59550000D02*
X120725000Y-57950000D01*
G75*
G02*
X120775000Y-57900000I50000J0D01*
G01*
X121125000Y-57900000D01*
G75*
G02*
X121175000Y-57950000I0J-50000D01*
G01*
X121175000Y-59550000D01*
G75*
G02*
X121125000Y-59600000I-50000J0D01*
G01*
X120775000Y-59600000D01*
G75*
G02*
X120725000Y-59550000I0J50000D01*
G01*
G37*
G36*
G01*
X120025000Y-59550000D02*
X120025000Y-57950000D01*
G75*
G02*
X120075000Y-57900000I50000J0D01*
G01*
X120425000Y-57900000D01*
G75*
G02*
X120475000Y-57950000I0J-50000D01*
G01*
X120475000Y-59550000D01*
G75*
G02*
X120425000Y-59600000I-50000J0D01*
G01*
X120075000Y-59600000D01*
G75*
G02*
X120025000Y-59550000I0J50000D01*
G01*
G37*
G36*
G01*
X119325000Y-59550000D02*
X119325000Y-57950000D01*
G75*
G02*
X119375000Y-57900000I50000J0D01*
G01*
X119725000Y-57900000D01*
G75*
G02*
X119775000Y-57950000I0J-50000D01*
G01*
X119775000Y-59550000D01*
G75*
G02*
X119725000Y-59600000I-50000J0D01*
G01*
X119375000Y-59600000D01*
G75*
G02*
X119325000Y-59550000I0J50000D01*
G01*
G37*
G36*
G01*
X118625000Y-59550000D02*
X118625000Y-57950000D01*
G75*
G02*
X118675000Y-57900000I50000J0D01*
G01*
X119025000Y-57900000D01*
G75*
G02*
X119075000Y-57950000I0J-50000D01*
G01*
X119075000Y-59550000D01*
G75*
G02*
X119025000Y-59600000I-50000J0D01*
G01*
X118675000Y-59600000D01*
G75*
G02*
X118625000Y-59550000I0J50000D01*
G01*
G37*
G36*
G01*
X117925000Y-59550000D02*
X117925000Y-57950000D01*
G75*
G02*
X117975000Y-57900000I50000J0D01*
G01*
X118325000Y-57900000D01*
G75*
G02*
X118375000Y-57950000I0J-50000D01*
G01*
X118375000Y-59550000D01*
G75*
G02*
X118325000Y-59600000I-50000J0D01*
G01*
X117975000Y-59600000D01*
G75*
G02*
X117925000Y-59550000I0J50000D01*
G01*
G37*
G36*
G01*
X117225000Y-59550000D02*
X117225000Y-57950000D01*
G75*
G02*
X117275000Y-57900000I50000J0D01*
G01*
X117625000Y-57900000D01*
G75*
G02*
X117675000Y-57950000I0J-50000D01*
G01*
X117675000Y-59550000D01*
G75*
G02*
X117625000Y-59600000I-50000J0D01*
G01*
X117275000Y-59600000D01*
G75*
G02*
X117225000Y-59550000I0J50000D01*
G01*
G37*
G36*
G01*
X116525000Y-59550000D02*
X116525000Y-57950000D01*
G75*
G02*
X116575000Y-57900000I50000J0D01*
G01*
X116925000Y-57900000D01*
G75*
G02*
X116975000Y-57950000I0J-50000D01*
G01*
X116975000Y-59550000D01*
G75*
G02*
X116925000Y-59600000I-50000J0D01*
G01*
X116575000Y-59600000D01*
G75*
G02*
X116525000Y-59550000I0J50000D01*
G01*
G37*
G36*
G01*
X115825000Y-59550000D02*
X115825000Y-57950000D01*
G75*
G02*
X115875000Y-57900000I50000J0D01*
G01*
X116225000Y-57900000D01*
G75*
G02*
X116275000Y-57950000I0J-50000D01*
G01*
X116275000Y-59550000D01*
G75*
G02*
X116225000Y-59600000I-50000J0D01*
G01*
X115875000Y-59600000D01*
G75*
G02*
X115825000Y-59550000I0J50000D01*
G01*
G37*
G36*
G01*
X115125000Y-59550000D02*
X115125000Y-57950000D01*
G75*
G02*
X115175000Y-57900000I50000J0D01*
G01*
X115525000Y-57900000D01*
G75*
G02*
X115575000Y-57950000I0J-50000D01*
G01*
X115575000Y-59550000D01*
G75*
G02*
X115525000Y-59600000I-50000J0D01*
G01*
X115175000Y-59600000D01*
G75*
G02*
X115125000Y-59550000I0J50000D01*
G01*
G37*
G36*
G01*
X114425000Y-59550000D02*
X114425000Y-57950000D01*
G75*
G02*
X114475000Y-57900000I50000J0D01*
G01*
X114825000Y-57900000D01*
G75*
G02*
X114875000Y-57950000I0J-50000D01*
G01*
X114875000Y-59550000D01*
G75*
G02*
X114825000Y-59600000I-50000J0D01*
G01*
X114475000Y-59600000D01*
G75*
G02*
X114425000Y-59550000I0J50000D01*
G01*
G37*
G36*
G01*
X113725000Y-59550000D02*
X113725000Y-57950000D01*
G75*
G02*
X113775000Y-57900000I50000J0D01*
G01*
X114125000Y-57900000D01*
G75*
G02*
X114175000Y-57950000I0J-50000D01*
G01*
X114175000Y-59550000D01*
G75*
G02*
X114125000Y-59600000I-50000J0D01*
G01*
X113775000Y-59600000D01*
G75*
G02*
X113725000Y-59550000I0J50000D01*
G01*
G37*
G36*
G01*
X113025000Y-59550000D02*
X113025000Y-57950000D01*
G75*
G02*
X113075000Y-57900000I50000J0D01*
G01*
X113425000Y-57900000D01*
G75*
G02*
X113475000Y-57950000I0J-50000D01*
G01*
X113475000Y-59550000D01*
G75*
G02*
X113425000Y-59600000I-50000J0D01*
G01*
X113075000Y-59600000D01*
G75*
G02*
X113025000Y-59550000I0J50000D01*
G01*
G37*
G36*
G01*
X112325000Y-59550000D02*
X112325000Y-57950000D01*
G75*
G02*
X112375000Y-57900000I50000J0D01*
G01*
X112725000Y-57900000D01*
G75*
G02*
X112775000Y-57950000I0J-50000D01*
G01*
X112775000Y-59550000D01*
G75*
G02*
X112725000Y-59600000I-50000J0D01*
G01*
X112375000Y-59600000D01*
G75*
G02*
X112325000Y-59550000I0J50000D01*
G01*
G37*
G36*
G01*
X111625000Y-59550000D02*
X111625000Y-57950000D01*
G75*
G02*
X111675000Y-57900000I50000J0D01*
G01*
X112025000Y-57900000D01*
G75*
G02*
X112075000Y-57950000I0J-50000D01*
G01*
X112075000Y-59550000D01*
G75*
G02*
X112025000Y-59600000I-50000J0D01*
G01*
X111675000Y-59600000D01*
G75*
G02*
X111625000Y-59550000I0J50000D01*
G01*
G37*
G36*
G01*
X110925000Y-59550000D02*
X110925000Y-57950000D01*
G75*
G02*
X110975000Y-57900000I50000J0D01*
G01*
X111325000Y-57900000D01*
G75*
G02*
X111375000Y-57950000I0J-50000D01*
G01*
X111375000Y-59550000D01*
G75*
G02*
X111325000Y-59600000I-50000J0D01*
G01*
X110975000Y-59600000D01*
G75*
G02*
X110925000Y-59550000I0J50000D01*
G01*
G37*
G36*
G01*
X110225000Y-59550000D02*
X110225000Y-57950000D01*
G75*
G02*
X110275000Y-57900000I50000J0D01*
G01*
X110625000Y-57900000D01*
G75*
G02*
X110675000Y-57950000I0J-50000D01*
G01*
X110675000Y-59550000D01*
G75*
G02*
X110625000Y-59600000I-50000J0D01*
G01*
X110275000Y-59600000D01*
G75*
G02*
X110225000Y-59550000I0J50000D01*
G01*
G37*
G36*
G01*
X109525000Y-59550000D02*
X109525000Y-57950000D01*
G75*
G02*
X109575000Y-57900000I50000J0D01*
G01*
X109925000Y-57900000D01*
G75*
G02*
X109975000Y-57950000I0J-50000D01*
G01*
X109975000Y-59550000D01*
G75*
G02*
X109925000Y-59600000I-50000J0D01*
G01*
X109575000Y-59600000D01*
G75*
G02*
X109525000Y-59550000I0J50000D01*
G01*
G37*
G36*
G01*
X108825000Y-59550000D02*
X108825000Y-57950000D01*
G75*
G02*
X108875000Y-57900000I50000J0D01*
G01*
X109225000Y-57900000D01*
G75*
G02*
X109275000Y-57950000I0J-50000D01*
G01*
X109275000Y-59550000D01*
G75*
G02*
X109225000Y-59600000I-50000J0D01*
G01*
X108875000Y-59600000D01*
G75*
G02*
X108825000Y-59550000I0J50000D01*
G01*
G37*
G36*
G01*
X108125000Y-59550000D02*
X108125000Y-57950000D01*
G75*
G02*
X108175000Y-57900000I50000J0D01*
G01*
X108525000Y-57900000D01*
G75*
G02*
X108575000Y-57950000I0J-50000D01*
G01*
X108575000Y-59550000D01*
G75*
G02*
X108525000Y-59600000I-50000J0D01*
G01*
X108175000Y-59600000D01*
G75*
G02*
X108125000Y-59550000I0J50000D01*
G01*
G37*
G36*
G01*
X107425000Y-59550000D02*
X107425000Y-57950000D01*
G75*
G02*
X107475000Y-57900000I50000J0D01*
G01*
X107825000Y-57900000D01*
G75*
G02*
X107875000Y-57950000I0J-50000D01*
G01*
X107875000Y-59550000D01*
G75*
G02*
X107825000Y-59600000I-50000J0D01*
G01*
X107475000Y-59600000D01*
G75*
G02*
X107425000Y-59550000I0J50000D01*
G01*
G37*
G36*
G01*
X106725000Y-59550000D02*
X106725000Y-57950000D01*
G75*
G02*
X106775000Y-57900000I50000J0D01*
G01*
X107125000Y-57900000D01*
G75*
G02*
X107175000Y-57950000I0J-50000D01*
G01*
X107175000Y-59550000D01*
G75*
G02*
X107125000Y-59600000I-50000J0D01*
G01*
X106775000Y-59600000D01*
G75*
G02*
X106725000Y-59550000I0J50000D01*
G01*
G37*
G36*
G01*
X106025000Y-59550000D02*
X106025000Y-57950000D01*
G75*
G02*
X106075000Y-57900000I50000J0D01*
G01*
X106425000Y-57900000D01*
G75*
G02*
X106475000Y-57950000I0J-50000D01*
G01*
X106475000Y-59550000D01*
G75*
G02*
X106425000Y-59600000I-50000J0D01*
G01*
X106075000Y-59600000D01*
G75*
G02*
X106025000Y-59550000I0J50000D01*
G01*
G37*
G36*
G01*
X105325000Y-59550000D02*
X105325000Y-57950000D01*
G75*
G02*
X105375000Y-57900000I50000J0D01*
G01*
X105725000Y-57900000D01*
G75*
G02*
X105775000Y-57950000I0J-50000D01*
G01*
X105775000Y-59550000D01*
G75*
G02*
X105725000Y-59600000I-50000J0D01*
G01*
X105375000Y-59600000D01*
G75*
G02*
X105325000Y-59550000I0J50000D01*
G01*
G37*
G36*
G01*
X104625000Y-59550000D02*
X104625000Y-57950000D01*
G75*
G02*
X104675000Y-57900000I50000J0D01*
G01*
X105025000Y-57900000D01*
G75*
G02*
X105075000Y-57950000I0J-50000D01*
G01*
X105075000Y-59550000D01*
G75*
G02*
X105025000Y-59600000I-50000J0D01*
G01*
X104675000Y-59600000D01*
G75*
G02*
X104625000Y-59550000I0J50000D01*
G01*
G37*
G36*
G01*
X106170000Y-34125000D02*
X106170000Y-34775000D01*
G75*
G02*
X106120000Y-34825000I-50000J0D01*
G01*
X105060000Y-34825000D01*
G75*
G02*
X105010000Y-34775000I0J50000D01*
G01*
X105010000Y-34125000D01*
G75*
G02*
X105060000Y-34075000I50000J0D01*
G01*
X106120000Y-34075000D01*
G75*
G02*
X106170000Y-34125000I0J-50000D01*
G01*
G37*
G36*
G01*
X106170000Y-36025000D02*
X106170000Y-36675000D01*
G75*
G02*
X106120000Y-36725000I-50000J0D01*
G01*
X105060000Y-36725000D01*
G75*
G02*
X105010000Y-36675000I0J50000D01*
G01*
X105010000Y-36025000D01*
G75*
G02*
X105060000Y-35975000I50000J0D01*
G01*
X106120000Y-35975000D01*
G75*
G02*
X106170000Y-36025000I0J-50000D01*
G01*
G37*
G36*
G01*
X108370000Y-36025000D02*
X108370000Y-36675000D01*
G75*
G02*
X108320000Y-36725000I-50000J0D01*
G01*
X107260000Y-36725000D01*
G75*
G02*
X107210000Y-36675000I0J50000D01*
G01*
X107210000Y-36025000D01*
G75*
G02*
X107260000Y-35975000I50000J0D01*
G01*
X108320000Y-35975000D01*
G75*
G02*
X108370000Y-36025000I0J-50000D01*
G01*
G37*
G36*
G01*
X108370000Y-35075000D02*
X108370000Y-35725000D01*
G75*
G02*
X108320000Y-35775000I-50000J0D01*
G01*
X107260000Y-35775000D01*
G75*
G02*
X107210000Y-35725000I0J50000D01*
G01*
X107210000Y-35075000D01*
G75*
G02*
X107260000Y-35025000I50000J0D01*
G01*
X108320000Y-35025000D01*
G75*
G02*
X108370000Y-35075000I0J-50000D01*
G01*
G37*
G36*
G01*
X108370000Y-34125000D02*
X108370000Y-34775000D01*
G75*
G02*
X108320000Y-34825000I-50000J0D01*
G01*
X107260000Y-34825000D01*
G75*
G02*
X107210000Y-34775000I0J50000D01*
G01*
X107210000Y-34125000D01*
G75*
G02*
X107260000Y-34075000I50000J0D01*
G01*
X108320000Y-34075000D01*
G75*
G02*
X108370000Y-34125000I0J-50000D01*
G01*
G37*
G36*
G01*
X104275000Y-51060000D02*
X104925000Y-51060000D01*
G75*
G02*
X104975000Y-51110000I0J-50000D01*
G01*
X104975000Y-52170000D01*
G75*
G02*
X104925000Y-52220000I-50000J0D01*
G01*
X104275000Y-52220000D01*
G75*
G02*
X104225000Y-52170000I0J50000D01*
G01*
X104225000Y-51110000D01*
G75*
G02*
X104275000Y-51060000I50000J0D01*
G01*
G37*
G36*
G01*
X106175000Y-51060000D02*
X106825000Y-51060000D01*
G75*
G02*
X106875000Y-51110000I0J-50000D01*
G01*
X106875000Y-52170000D01*
G75*
G02*
X106825000Y-52220000I-50000J0D01*
G01*
X106175000Y-52220000D01*
G75*
G02*
X106125000Y-52170000I0J50000D01*
G01*
X106125000Y-51110000D01*
G75*
G02*
X106175000Y-51060000I50000J0D01*
G01*
G37*
G36*
G01*
X106175000Y-48860000D02*
X106825000Y-48860000D01*
G75*
G02*
X106875000Y-48910000I0J-50000D01*
G01*
X106875000Y-49970000D01*
G75*
G02*
X106825000Y-50020000I-50000J0D01*
G01*
X106175000Y-50020000D01*
G75*
G02*
X106125000Y-49970000I0J50000D01*
G01*
X106125000Y-48910000D01*
G75*
G02*
X106175000Y-48860000I50000J0D01*
G01*
G37*
G36*
G01*
X105225000Y-48860000D02*
X105875000Y-48860000D01*
G75*
G02*
X105925000Y-48910000I0J-50000D01*
G01*
X105925000Y-49970000D01*
G75*
G02*
X105875000Y-50020000I-50000J0D01*
G01*
X105225000Y-50020000D01*
G75*
G02*
X105175000Y-49970000I0J50000D01*
G01*
X105175000Y-48910000D01*
G75*
G02*
X105225000Y-48860000I50000J0D01*
G01*
G37*
G36*
G01*
X104275000Y-48860000D02*
X104925000Y-48860000D01*
G75*
G02*
X104975000Y-48910000I0J-50000D01*
G01*
X104975000Y-49970000D01*
G75*
G02*
X104925000Y-50020000I-50000J0D01*
G01*
X104275000Y-50020000D01*
G75*
G02*
X104225000Y-49970000I0J50000D01*
G01*
X104225000Y-48910000D01*
G75*
G02*
X104275000Y-48860000I50000J0D01*
G01*
G37*
G36*
G01*
X103735000Y-39150000D02*
X103085000Y-39150000D01*
G75*
G02*
X103035000Y-39100000I0J50000D01*
G01*
X103035000Y-38040000D01*
G75*
G02*
X103085000Y-37990000I50000J0D01*
G01*
X103735000Y-37990000D01*
G75*
G02*
X103785000Y-38040000I0J-50000D01*
G01*
X103785000Y-39100000D01*
G75*
G02*
X103735000Y-39150000I-50000J0D01*
G01*
G37*
G36*
G01*
X101835000Y-39150000D02*
X101185000Y-39150000D01*
G75*
G02*
X101135000Y-39100000I0J50000D01*
G01*
X101135000Y-38040000D01*
G75*
G02*
X101185000Y-37990000I50000J0D01*
G01*
X101835000Y-37990000D01*
G75*
G02*
X101885000Y-38040000I0J-50000D01*
G01*
X101885000Y-39100000D01*
G75*
G02*
X101835000Y-39150000I-50000J0D01*
G01*
G37*
G36*
G01*
X101835000Y-41350000D02*
X101185000Y-41350000D01*
G75*
G02*
X101135000Y-41300000I0J50000D01*
G01*
X101135000Y-40240000D01*
G75*
G02*
X101185000Y-40190000I50000J0D01*
G01*
X101835000Y-40190000D01*
G75*
G02*
X101885000Y-40240000I0J-50000D01*
G01*
X101885000Y-41300000D01*
G75*
G02*
X101835000Y-41350000I-50000J0D01*
G01*
G37*
G36*
G01*
X102785000Y-41350000D02*
X102135000Y-41350000D01*
G75*
G02*
X102085000Y-41300000I0J50000D01*
G01*
X102085000Y-40240000D01*
G75*
G02*
X102135000Y-40190000I50000J0D01*
G01*
X102785000Y-40190000D01*
G75*
G02*
X102835000Y-40240000I0J-50000D01*
G01*
X102835000Y-41300000D01*
G75*
G02*
X102785000Y-41350000I-50000J0D01*
G01*
G37*
G36*
G01*
X103735000Y-41350000D02*
X103085000Y-41350000D01*
G75*
G02*
X103035000Y-41300000I0J50000D01*
G01*
X103035000Y-40240000D01*
G75*
G02*
X103085000Y-40190000I50000J0D01*
G01*
X103735000Y-40190000D01*
G75*
G02*
X103785000Y-40240000I0J-50000D01*
G01*
X103785000Y-41300000D01*
G75*
G02*
X103735000Y-41350000I-50000J0D01*
G01*
G37*
D12*
X102870000Y-54610000D03*
G36*
G01*
X102295000Y-55085000D02*
X101445000Y-55085000D01*
G75*
G02*
X101395000Y-55035000I0J50000D01*
G01*
X101395000Y-54185000D01*
G75*
G02*
X101445000Y-54135000I50000J0D01*
G01*
X102295000Y-54135000D01*
G75*
G02*
X102345000Y-54185000I0J-50000D01*
G01*
X102345000Y-55035000D01*
G75*
G02*
X102295000Y-55085000I-50000J0D01*
G01*
G37*
G36*
G01*
X125340000Y-45085000D02*
X125340000Y-44535000D01*
G75*
G02*
X125590000Y-44285000I250000J0D01*
G01*
X126090000Y-44285000D01*
G75*
G02*
X126340000Y-44535000I0J-250000D01*
G01*
X126340000Y-45085000D01*
G75*
G02*
X126090000Y-45335000I-250000J0D01*
G01*
X125590000Y-45335000D01*
G75*
G02*
X125340000Y-45085000I0J250000D01*
G01*
G37*
G36*
G01*
X123790000Y-45085000D02*
X123790000Y-44535000D01*
G75*
G02*
X124040000Y-44285000I250000J0D01*
G01*
X124540000Y-44285000D01*
G75*
G02*
X124790000Y-44535000I0J-250000D01*
G01*
X124790000Y-45085000D01*
G75*
G02*
X124540000Y-45335000I-250000J0D01*
G01*
X124040000Y-45335000D01*
G75*
G02*
X123790000Y-45085000I0J250000D01*
G01*
G37*
G36*
G01*
X124240000Y-46965000D02*
X124240000Y-46415000D01*
G75*
G02*
X124490000Y-46165000I250000J0D01*
G01*
X124990000Y-46165000D01*
G75*
G02*
X125240000Y-46415000I0J-250000D01*
G01*
X125240000Y-46965000D01*
G75*
G02*
X124990000Y-47215000I-250000J0D01*
G01*
X124490000Y-47215000D01*
G75*
G02*
X124240000Y-46965000I0J250000D01*
G01*
G37*
G36*
G01*
X122690000Y-46965000D02*
X122690000Y-46415000D01*
G75*
G02*
X122940000Y-46165000I250000J0D01*
G01*
X123440000Y-46165000D01*
G75*
G02*
X123690000Y-46415000I0J-250000D01*
G01*
X123690000Y-46965000D01*
G75*
G02*
X123440000Y-47215000I-250000J0D01*
G01*
X122940000Y-47215000D01*
G75*
G02*
X122690000Y-46965000I0J250000D01*
G01*
G37*
G36*
G01*
X109045000Y-50440000D02*
X109595000Y-50440000D01*
G75*
G02*
X109845000Y-50690000I0J-250000D01*
G01*
X109845000Y-51190000D01*
G75*
G02*
X109595000Y-51440000I-250000J0D01*
G01*
X109045000Y-51440000D01*
G75*
G02*
X108795000Y-51190000I0J250000D01*
G01*
X108795000Y-50690000D01*
G75*
G02*
X109045000Y-50440000I250000J0D01*
G01*
G37*
G36*
G01*
X109045000Y-48890000D02*
X109595000Y-48890000D01*
G75*
G02*
X109845000Y-49140000I0J-250000D01*
G01*
X109845000Y-49640000D01*
G75*
G02*
X109595000Y-49890000I-250000J0D01*
G01*
X109045000Y-49890000D01*
G75*
G02*
X108795000Y-49640000I0J250000D01*
G01*
X108795000Y-49140000D01*
G75*
G02*
X109045000Y-48890000I250000J0D01*
G01*
G37*
D13*
X101420000Y-34490000D03*
G36*
G01*
X102320000Y-36180000D02*
X102320000Y-37880000D01*
G75*
G02*
X102270000Y-37930000I-50000J0D01*
G01*
X100570000Y-37930000D01*
G75*
G02*
X100520000Y-37880000I0J50000D01*
G01*
X100520000Y-36180000D01*
G75*
G02*
X100570000Y-36130000I50000J0D01*
G01*
X102270000Y-36130000D01*
G75*
G02*
X102320000Y-36180000I0J-50000D01*
G01*
G37*
G36*
G01*
X103865000Y-35790000D02*
X104415000Y-35790000D01*
G75*
G02*
X104665000Y-36040000I0J-250000D01*
G01*
X104665000Y-36540000D01*
G75*
G02*
X104415000Y-36790000I-250000J0D01*
G01*
X103865000Y-36790000D01*
G75*
G02*
X103615000Y-36540000I0J250000D01*
G01*
X103615000Y-36040000D01*
G75*
G02*
X103865000Y-35790000I250000J0D01*
G01*
G37*
G36*
G01*
X103865000Y-34240000D02*
X104415000Y-34240000D01*
G75*
G02*
X104665000Y-34490000I0J-250000D01*
G01*
X104665000Y-34990000D01*
G75*
G02*
X104415000Y-35240000I-250000J0D01*
G01*
X103865000Y-35240000D01*
G75*
G02*
X103615000Y-34990000I0J250000D01*
G01*
X103615000Y-34490000D01*
G75*
G02*
X103865000Y-34240000I250000J0D01*
G01*
G37*
G36*
G01*
X106875000Y-32140000D02*
X106325000Y-32140000D01*
G75*
G02*
X106075000Y-31890000I0J250000D01*
G01*
X106075000Y-31390000D01*
G75*
G02*
X106325000Y-31140000I250000J0D01*
G01*
X106875000Y-31140000D01*
G75*
G02*
X107125000Y-31390000I0J-250000D01*
G01*
X107125000Y-31890000D01*
G75*
G02*
X106875000Y-32140000I-250000J0D01*
G01*
G37*
G36*
G01*
X106875000Y-33690000D02*
X106325000Y-33690000D01*
G75*
G02*
X106075000Y-33440000I0J250000D01*
G01*
X106075000Y-32940000D01*
G75*
G02*
X106325000Y-32690000I250000J0D01*
G01*
X106875000Y-32690000D01*
G75*
G02*
X107125000Y-32940000I0J-250000D01*
G01*
X107125000Y-33440000D01*
G75*
G02*
X106875000Y-33690000I-250000J0D01*
G01*
G37*
G36*
G01*
X103630000Y-47745000D02*
X103630000Y-48295000D01*
G75*
G02*
X103380000Y-48545000I-250000J0D01*
G01*
X102880000Y-48545000D01*
G75*
G02*
X102630000Y-48295000I0J250000D01*
G01*
X102630000Y-47745000D01*
G75*
G02*
X102880000Y-47495000I250000J0D01*
G01*
X103380000Y-47495000D01*
G75*
G02*
X103630000Y-47745000I0J-250000D01*
G01*
G37*
G36*
G01*
X105180000Y-47745000D02*
X105180000Y-48295000D01*
G75*
G02*
X104930000Y-48545000I-250000J0D01*
G01*
X104430000Y-48545000D01*
G75*
G02*
X104180000Y-48295000I0J250000D01*
G01*
X104180000Y-47745000D01*
G75*
G02*
X104430000Y-47495000I250000J0D01*
G01*
X104930000Y-47495000D01*
G75*
G02*
X105180000Y-47745000I0J-250000D01*
G01*
G37*
X101940000Y-52300000D03*
G36*
G01*
X101040000Y-50610000D02*
X101040000Y-48910000D01*
G75*
G02*
X101090000Y-48860000I50000J0D01*
G01*
X102790000Y-48860000D01*
G75*
G02*
X102840000Y-48910000I0J-50000D01*
G01*
X102840000Y-50610000D01*
G75*
G02*
X102790000Y-50660000I-50000J0D01*
G01*
X101090000Y-50660000D01*
G75*
G02*
X101040000Y-50610000I0J50000D01*
G01*
G37*
G36*
G01*
X105920000Y-43855000D02*
X105920000Y-44405000D01*
G75*
G02*
X105670000Y-44655000I-250000J0D01*
G01*
X105170000Y-44655000D01*
G75*
G02*
X104920000Y-44405000I0J250000D01*
G01*
X104920000Y-43855000D01*
G75*
G02*
X105170000Y-43605000I250000J0D01*
G01*
X105670000Y-43605000D01*
G75*
G02*
X105920000Y-43855000I0J-250000D01*
G01*
G37*
G36*
G01*
X107470000Y-43855000D02*
X107470000Y-44405000D01*
G75*
G02*
X107220000Y-44655000I-250000J0D01*
G01*
X106720000Y-44655000D01*
G75*
G02*
X106470000Y-44405000I0J250000D01*
G01*
X106470000Y-43855000D01*
G75*
G02*
X106720000Y-43605000I250000J0D01*
G01*
X107220000Y-43605000D01*
G75*
G02*
X107470000Y-43855000I0J-250000D01*
G01*
G37*
G36*
G01*
X104585000Y-39440000D02*
X105135000Y-39440000D01*
G75*
G02*
X105385000Y-39690000I0J-250000D01*
G01*
X105385000Y-40190000D01*
G75*
G02*
X105135000Y-40440000I-250000J0D01*
G01*
X104585000Y-40440000D01*
G75*
G02*
X104335000Y-40190000I0J250000D01*
G01*
X104335000Y-39690000D01*
G75*
G02*
X104585000Y-39440000I250000J0D01*
G01*
G37*
G36*
G01*
X104585000Y-37890000D02*
X105135000Y-37890000D01*
G75*
G02*
X105385000Y-38140000I0J-250000D01*
G01*
X105385000Y-38640000D01*
G75*
G02*
X105135000Y-38890000I-250000J0D01*
G01*
X104585000Y-38890000D01*
G75*
G02*
X104335000Y-38640000I0J250000D01*
G01*
X104335000Y-38140000D01*
G75*
G02*
X104585000Y-37890000I250000J0D01*
G01*
G37*
G36*
G01*
X104470000Y-42305000D02*
X104470000Y-41755000D01*
G75*
G02*
X104720000Y-41505000I250000J0D01*
G01*
X105220000Y-41505000D01*
G75*
G02*
X105470000Y-41755000I0J-250000D01*
G01*
X105470000Y-42305000D01*
G75*
G02*
X105220000Y-42555000I-250000J0D01*
G01*
X104720000Y-42555000D01*
G75*
G02*
X104470000Y-42305000I0J250000D01*
G01*
G37*
G36*
G01*
X102920000Y-42305000D02*
X102920000Y-41755000D01*
G75*
G02*
X103170000Y-41505000I250000J0D01*
G01*
X103670000Y-41505000D01*
G75*
G02*
X103920000Y-41755000I0J-250000D01*
G01*
X103920000Y-42305000D01*
G75*
G02*
X103670000Y-42555000I-250000J0D01*
G01*
X103170000Y-42555000D01*
G75*
G02*
X102920000Y-42305000I0J250000D01*
G01*
G37*
G36*
G01*
X101490000Y-58345000D02*
X102090000Y-58345000D01*
G75*
G02*
X102315000Y-58570000I0J-225000D01*
G01*
X102315000Y-59020000D01*
G75*
G02*
X102090000Y-59245000I-225000J0D01*
G01*
X101490000Y-59245000D01*
G75*
G02*
X101265000Y-59020000I0J225000D01*
G01*
X101265000Y-58570000D01*
G75*
G02*
X101490000Y-58345000I225000J0D01*
G01*
G37*
G36*
G01*
X101490000Y-56695000D02*
X102090000Y-56695000D01*
G75*
G02*
X102315000Y-56920000I0J-225000D01*
G01*
X102315000Y-57370000D01*
G75*
G02*
X102090000Y-57595000I-225000J0D01*
G01*
X101490000Y-57595000D01*
G75*
G02*
X101265000Y-57370000I0J225000D01*
G01*
X101265000Y-56920000D01*
G75*
G02*
X101490000Y-56695000I225000J0D01*
G01*
G37*
G36*
G01*
X121700000Y-55340000D02*
X121100000Y-55340000D01*
G75*
G02*
X120875000Y-55115000I0J225000D01*
G01*
X120875000Y-54665000D01*
G75*
G02*
X121100000Y-54440000I225000J0D01*
G01*
X121700000Y-54440000D01*
G75*
G02*
X121925000Y-54665000I0J-225000D01*
G01*
X121925000Y-55115000D01*
G75*
G02*
X121700000Y-55340000I-225000J0D01*
G01*
G37*
G36*
G01*
X121700000Y-56990000D02*
X121100000Y-56990000D01*
G75*
G02*
X120875000Y-56765000I0J225000D01*
G01*
X120875000Y-56315000D01*
G75*
G02*
X121100000Y-56090000I225000J0D01*
G01*
X121700000Y-56090000D01*
G75*
G02*
X121925000Y-56315000I0J-225000D01*
G01*
X121925000Y-56765000D01*
G75*
G02*
X121700000Y-56990000I-225000J0D01*
G01*
G37*
G36*
G01*
X113660000Y-54950000D02*
X113060000Y-54950000D01*
G75*
G02*
X112835000Y-54725000I0J225000D01*
G01*
X112835000Y-54275000D01*
G75*
G02*
X113060000Y-54050000I225000J0D01*
G01*
X113660000Y-54050000D01*
G75*
G02*
X113885000Y-54275000I0J-225000D01*
G01*
X113885000Y-54725000D01*
G75*
G02*
X113660000Y-54950000I-225000J0D01*
G01*
G37*
G36*
G01*
X113660000Y-56600000D02*
X113060000Y-56600000D01*
G75*
G02*
X112835000Y-56375000I0J225000D01*
G01*
X112835000Y-55925000D01*
G75*
G02*
X113060000Y-55700000I225000J0D01*
G01*
X113660000Y-55700000D01*
G75*
G02*
X113885000Y-55925000I0J-225000D01*
G01*
X113885000Y-56375000D01*
G75*
G02*
X113660000Y-56600000I-225000J0D01*
G01*
G37*
G36*
G01*
X115190000Y-54950000D02*
X114590000Y-54950000D01*
G75*
G02*
X114365000Y-54725000I0J225000D01*
G01*
X114365000Y-54275000D01*
G75*
G02*
X114590000Y-54050000I225000J0D01*
G01*
X115190000Y-54050000D01*
G75*
G02*
X115415000Y-54275000I0J-225000D01*
G01*
X115415000Y-54725000D01*
G75*
G02*
X115190000Y-54950000I-225000J0D01*
G01*
G37*
G36*
G01*
X115190000Y-56600000D02*
X114590000Y-56600000D01*
G75*
G02*
X114365000Y-56375000I0J225000D01*
G01*
X114365000Y-55925000D01*
G75*
G02*
X114590000Y-55700000I225000J0D01*
G01*
X115190000Y-55700000D01*
G75*
G02*
X115415000Y-55925000I0J-225000D01*
G01*
X115415000Y-56375000D01*
G75*
G02*
X115190000Y-56600000I-225000J0D01*
G01*
G37*
G36*
G01*
X116040000Y-53270000D02*
X116040000Y-52670000D01*
G75*
G02*
X116265000Y-52445000I225000J0D01*
G01*
X116715000Y-52445000D01*
G75*
G02*
X116940000Y-52670000I0J-225000D01*
G01*
X116940000Y-53270000D01*
G75*
G02*
X116715000Y-53495000I-225000J0D01*
G01*
X116265000Y-53495000D01*
G75*
G02*
X116040000Y-53270000I0J225000D01*
G01*
G37*
G36*
G01*
X114390000Y-53270000D02*
X114390000Y-52670000D01*
G75*
G02*
X114615000Y-52445000I225000J0D01*
G01*
X115065000Y-52445000D01*
G75*
G02*
X115290000Y-52670000I0J-225000D01*
G01*
X115290000Y-53270000D01*
G75*
G02*
X115065000Y-53495000I-225000J0D01*
G01*
X114615000Y-53495000D01*
G75*
G02*
X114390000Y-53270000I0J225000D01*
G01*
G37*
G36*
G01*
X116720000Y-54950000D02*
X116120000Y-54950000D01*
G75*
G02*
X115895000Y-54725000I0J225000D01*
G01*
X115895000Y-54275000D01*
G75*
G02*
X116120000Y-54050000I225000J0D01*
G01*
X116720000Y-54050000D01*
G75*
G02*
X116945000Y-54275000I0J-225000D01*
G01*
X116945000Y-54725000D01*
G75*
G02*
X116720000Y-54950000I-225000J0D01*
G01*
G37*
G36*
G01*
X116720000Y-56600000D02*
X116120000Y-56600000D01*
G75*
G02*
X115895000Y-56375000I0J225000D01*
G01*
X115895000Y-55925000D01*
G75*
G02*
X116120000Y-55700000I225000J0D01*
G01*
X116720000Y-55700000D01*
G75*
G02*
X116945000Y-55925000I0J-225000D01*
G01*
X116945000Y-56375000D01*
G75*
G02*
X116720000Y-56600000I-225000J0D01*
G01*
G37*
G36*
G01*
X112225000Y-48430000D02*
X112225000Y-49030000D01*
G75*
G02*
X112000000Y-49255000I-225000J0D01*
G01*
X111550000Y-49255000D01*
G75*
G02*
X111325000Y-49030000I0J225000D01*
G01*
X111325000Y-48430000D01*
G75*
G02*
X111550000Y-48205000I225000J0D01*
G01*
X112000000Y-48205000D01*
G75*
G02*
X112225000Y-48430000I0J-225000D01*
G01*
G37*
G36*
G01*
X113875000Y-48430000D02*
X113875000Y-49030000D01*
G75*
G02*
X113650000Y-49255000I-225000J0D01*
G01*
X113200000Y-49255000D01*
G75*
G02*
X112975000Y-49030000I0J225000D01*
G01*
X112975000Y-48430000D01*
G75*
G02*
X113200000Y-48205000I225000J0D01*
G01*
X113650000Y-48205000D01*
G75*
G02*
X113875000Y-48430000I0J-225000D01*
G01*
G37*
G36*
G01*
X122535000Y-50170000D02*
X122535000Y-49570000D01*
G75*
G02*
X122760000Y-49345000I225000J0D01*
G01*
X123210000Y-49345000D01*
G75*
G02*
X123435000Y-49570000I0J-225000D01*
G01*
X123435000Y-50170000D01*
G75*
G02*
X123210000Y-50395000I-225000J0D01*
G01*
X122760000Y-50395000D01*
G75*
G02*
X122535000Y-50170000I0J225000D01*
G01*
G37*
G36*
G01*
X120885000Y-50170000D02*
X120885000Y-49570000D01*
G75*
G02*
X121110000Y-49345000I225000J0D01*
G01*
X121560000Y-49345000D01*
G75*
G02*
X121785000Y-49570000I0J-225000D01*
G01*
X121785000Y-50170000D01*
G75*
G02*
X121560000Y-50395000I-225000J0D01*
G01*
X121110000Y-50395000D01*
G75*
G02*
X120885000Y-50170000I0J225000D01*
G01*
G37*
G36*
G01*
X106820000Y-41350000D02*
X106220000Y-41350000D01*
G75*
G02*
X105995000Y-41125000I0J225000D01*
G01*
X105995000Y-40675000D01*
G75*
G02*
X106220000Y-40450000I225000J0D01*
G01*
X106820000Y-40450000D01*
G75*
G02*
X107045000Y-40675000I0J-225000D01*
G01*
X107045000Y-41125000D01*
G75*
G02*
X106820000Y-41350000I-225000J0D01*
G01*
G37*
G36*
G01*
X106820000Y-43000000D02*
X106220000Y-43000000D01*
G75*
G02*
X105995000Y-42775000I0J225000D01*
G01*
X105995000Y-42325000D01*
G75*
G02*
X106220000Y-42100000I225000J0D01*
G01*
X106820000Y-42100000D01*
G75*
G02*
X107045000Y-42325000I0J-225000D01*
G01*
X107045000Y-42775000D01*
G75*
G02*
X106820000Y-43000000I-225000J0D01*
G01*
G37*
G36*
G01*
X108908750Y-41842500D02*
X109471250Y-41842500D01*
G75*
G02*
X109715000Y-42086250I0J-243750D01*
G01*
X109715000Y-42573750D01*
G75*
G02*
X109471250Y-42817500I-243750J0D01*
G01*
X108908750Y-42817500D01*
G75*
G02*
X108665000Y-42573750I0J243750D01*
G01*
X108665000Y-42086250D01*
G75*
G02*
X108908750Y-41842500I243750J0D01*
G01*
G37*
G36*
G01*
X108908750Y-40267500D02*
X109471250Y-40267500D01*
G75*
G02*
X109715000Y-40511250I0J-243750D01*
G01*
X109715000Y-40998750D01*
G75*
G02*
X109471250Y-41242500I-243750J0D01*
G01*
X108908750Y-41242500D01*
G75*
G02*
X108665000Y-40998750I0J243750D01*
G01*
X108665000Y-40511250D01*
G75*
G02*
X108908750Y-40267500I243750J0D01*
G01*
G37*
G36*
G01*
X117377500Y-42018750D02*
X117377500Y-42581250D01*
G75*
G02*
X117133750Y-42825000I-243750J0D01*
G01*
X116646250Y-42825000D01*
G75*
G02*
X116402500Y-42581250I0J243750D01*
G01*
X116402500Y-42018750D01*
G75*
G02*
X116646250Y-41775000I243750J0D01*
G01*
X117133750Y-41775000D01*
G75*
G02*
X117377500Y-42018750I0J-243750D01*
G01*
G37*
G36*
G01*
X118952500Y-42018750D02*
X118952500Y-42581250D01*
G75*
G02*
X118708750Y-42825000I-243750J0D01*
G01*
X118221250Y-42825000D01*
G75*
G02*
X117977500Y-42581250I0J243750D01*
G01*
X117977500Y-42018750D01*
G75*
G02*
X118221250Y-41775000I243750J0D01*
G01*
X118708750Y-41775000D01*
G75*
G02*
X118952500Y-42018750I0J-243750D01*
G01*
G37*
G36*
G01*
X117982500Y-41031250D02*
X117982500Y-40468750D01*
G75*
G02*
X118226250Y-40225000I243750J0D01*
G01*
X118713750Y-40225000D01*
G75*
G02*
X118957500Y-40468750I0J-243750D01*
G01*
X118957500Y-41031250D01*
G75*
G02*
X118713750Y-41275000I-243750J0D01*
G01*
X118226250Y-41275000D01*
G75*
G02*
X117982500Y-41031250I0J243750D01*
G01*
G37*
G36*
G01*
X116407500Y-41031250D02*
X116407500Y-40468750D01*
G75*
G02*
X116651250Y-40225000I243750J0D01*
G01*
X117138750Y-40225000D01*
G75*
G02*
X117382500Y-40468750I0J-243750D01*
G01*
X117382500Y-41031250D01*
G75*
G02*
X117138750Y-41275000I-243750J0D01*
G01*
X116651250Y-41275000D01*
G75*
G02*
X116407500Y-41031250I0J243750D01*
G01*
G37*
X123960000Y-31940000D03*
G36*
G01*
X122270000Y-32840000D02*
X120570000Y-32840000D01*
G75*
G02*
X120520000Y-32790000I0J50000D01*
G01*
X120520000Y-31090000D01*
G75*
G02*
X120570000Y-31040000I50000J0D01*
G01*
X122270000Y-31040000D01*
G75*
G02*
X122320000Y-31090000I0J-50000D01*
G01*
X122320000Y-32790000D01*
G75*
G02*
X122270000Y-32840000I-50000J0D01*
G01*
G37*
X128100000Y-39000000D03*
G36*
G01*
X127200000Y-37310000D02*
X127200000Y-35610000D01*
G75*
G02*
X127250000Y-35560000I50000J0D01*
G01*
X128950000Y-35560000D01*
G75*
G02*
X129000000Y-35610000I0J-50000D01*
G01*
X129000000Y-37310000D01*
G75*
G02*
X128950000Y-37360000I-50000J0D01*
G01*
X127250000Y-37360000D01*
G75*
G02*
X127200000Y-37310000I0J50000D01*
G01*
G37*
X101940000Y-43460000D03*
G36*
G01*
X102840000Y-45150000D02*
X102840000Y-46850000D01*
G75*
G02*
X102790000Y-46900000I-50000J0D01*
G01*
X101090000Y-46900000D01*
G75*
G02*
X101040000Y-46850000I0J50000D01*
G01*
X101040000Y-45150000D01*
G75*
G02*
X101090000Y-45100000I50000J0D01*
G01*
X102790000Y-45100000D01*
G75*
G02*
X102840000Y-45150000I0J-50000D01*
G01*
G37*
G36*
G01*
X123215000Y-55450000D02*
X122665000Y-55450000D01*
G75*
G02*
X122415000Y-55200000I0J250000D01*
G01*
X122415000Y-54700000D01*
G75*
G02*
X122665000Y-54450000I250000J0D01*
G01*
X123215000Y-54450000D01*
G75*
G02*
X123465000Y-54700000I0J-250000D01*
G01*
X123465000Y-55200000D01*
G75*
G02*
X123215000Y-55450000I-250000J0D01*
G01*
G37*
G36*
G01*
X123215000Y-57000000D02*
X122665000Y-57000000D01*
G75*
G02*
X122415000Y-56750000I0J250000D01*
G01*
X122415000Y-56250000D01*
G75*
G02*
X122665000Y-56000000I250000J0D01*
G01*
X123215000Y-56000000D01*
G75*
G02*
X123465000Y-56250000I0J-250000D01*
G01*
X123465000Y-56750000D01*
G75*
G02*
X123215000Y-57000000I-250000J0D01*
G01*
G37*
G36*
G01*
X111525000Y-55090000D02*
X110975000Y-55090000D01*
G75*
G02*
X110725000Y-54840000I0J250000D01*
G01*
X110725000Y-54340000D01*
G75*
G02*
X110975000Y-54090000I250000J0D01*
G01*
X111525000Y-54090000D01*
G75*
G02*
X111775000Y-54340000I0J-250000D01*
G01*
X111775000Y-54840000D01*
G75*
G02*
X111525000Y-55090000I-250000J0D01*
G01*
G37*
G36*
G01*
X111525000Y-56640000D02*
X110975000Y-56640000D01*
G75*
G02*
X110725000Y-56390000I0J250000D01*
G01*
X110725000Y-55890000D01*
G75*
G02*
X110975000Y-55640000I250000J0D01*
G01*
X111525000Y-55640000D01*
G75*
G02*
X111775000Y-55890000I0J-250000D01*
G01*
X111775000Y-56390000D01*
G75*
G02*
X111525000Y-56640000I-250000J0D01*
G01*
G37*
G36*
G01*
X109555000Y-55080000D02*
X109005000Y-55080000D01*
G75*
G02*
X108755000Y-54830000I0J250000D01*
G01*
X108755000Y-54330000D01*
G75*
G02*
X109005000Y-54080000I250000J0D01*
G01*
X109555000Y-54080000D01*
G75*
G02*
X109805000Y-54330000I0J-250000D01*
G01*
X109805000Y-54830000D01*
G75*
G02*
X109555000Y-55080000I-250000J0D01*
G01*
G37*
G36*
G01*
X109555000Y-56630000D02*
X109005000Y-56630000D01*
G75*
G02*
X108755000Y-56380000I0J250000D01*
G01*
X108755000Y-55880000D01*
G75*
G02*
X109005000Y-55630000I250000J0D01*
G01*
X109555000Y-55630000D01*
G75*
G02*
X109805000Y-55880000I0J-250000D01*
G01*
X109805000Y-56380000D01*
G75*
G02*
X109555000Y-56630000I-250000J0D01*
G01*
G37*
G36*
G01*
X107435000Y-55360000D02*
X106885000Y-55360000D01*
G75*
G02*
X106635000Y-55110000I0J250000D01*
G01*
X106635000Y-54610000D01*
G75*
G02*
X106885000Y-54360000I250000J0D01*
G01*
X107435000Y-54360000D01*
G75*
G02*
X107685000Y-54610000I0J-250000D01*
G01*
X107685000Y-55110000D01*
G75*
G02*
X107435000Y-55360000I-250000J0D01*
G01*
G37*
G36*
G01*
X107435000Y-56910000D02*
X106885000Y-56910000D01*
G75*
G02*
X106635000Y-56660000I0J250000D01*
G01*
X106635000Y-56160000D01*
G75*
G02*
X106885000Y-55910000I250000J0D01*
G01*
X107435000Y-55910000D01*
G75*
G02*
X107685000Y-56160000I0J-250000D01*
G01*
X107685000Y-56660000D01*
G75*
G02*
X107435000Y-56910000I-250000J0D01*
G01*
G37*
G36*
G01*
X105160000Y-56655000D02*
X105160000Y-56105000D01*
G75*
G02*
X105410000Y-55855000I250000J0D01*
G01*
X105910000Y-55855000D01*
G75*
G02*
X106160000Y-56105000I0J-250000D01*
G01*
X106160000Y-56655000D01*
G75*
G02*
X105910000Y-56905000I-250000J0D01*
G01*
X105410000Y-56905000D01*
G75*
G02*
X105160000Y-56655000I0J250000D01*
G01*
G37*
G36*
G01*
X103610000Y-56655000D02*
X103610000Y-56105000D01*
G75*
G02*
X103860000Y-55855000I250000J0D01*
G01*
X104360000Y-55855000D01*
G75*
G02*
X104610000Y-56105000I0J-250000D01*
G01*
X104610000Y-56655000D01*
G75*
G02*
X104360000Y-56905000I-250000J0D01*
G01*
X103860000Y-56905000D01*
G75*
G02*
X103610000Y-56655000I0J250000D01*
G01*
G37*
G36*
G01*
X124745000Y-55450000D02*
X124195000Y-55450000D01*
G75*
G02*
X123945000Y-55200000I0J250000D01*
G01*
X123945000Y-54700000D01*
G75*
G02*
X124195000Y-54450000I250000J0D01*
G01*
X124745000Y-54450000D01*
G75*
G02*
X124995000Y-54700000I0J-250000D01*
G01*
X124995000Y-55200000D01*
G75*
G02*
X124745000Y-55450000I-250000J0D01*
G01*
G37*
G36*
G01*
X124745000Y-57000000D02*
X124195000Y-57000000D01*
G75*
G02*
X123945000Y-56750000I0J250000D01*
G01*
X123945000Y-56250000D01*
G75*
G02*
X124195000Y-56000000I250000J0D01*
G01*
X124745000Y-56000000D01*
G75*
G02*
X124995000Y-56250000I0J-250000D01*
G01*
X124995000Y-56750000D01*
G75*
G02*
X124745000Y-57000000I-250000J0D01*
G01*
G37*
G36*
G01*
X108925000Y-44875000D02*
X109475000Y-44875000D01*
G75*
G02*
X109725000Y-45125000I0J-250000D01*
G01*
X109725000Y-45625000D01*
G75*
G02*
X109475000Y-45875000I-250000J0D01*
G01*
X108925000Y-45875000D01*
G75*
G02*
X108675000Y-45625000I0J250000D01*
G01*
X108675000Y-45125000D01*
G75*
G02*
X108925000Y-44875000I250000J0D01*
G01*
G37*
G36*
G01*
X108925000Y-43325000D02*
X109475000Y-43325000D01*
G75*
G02*
X109725000Y-43575000I0J-250000D01*
G01*
X109725000Y-44075000D01*
G75*
G02*
X109475000Y-44325000I-250000J0D01*
G01*
X108925000Y-44325000D01*
G75*
G02*
X108675000Y-44075000I0J250000D01*
G01*
X108675000Y-43575000D01*
G75*
G02*
X108925000Y-43325000I250000J0D01*
G01*
G37*
G36*
G01*
X116525000Y-35415000D02*
X115975000Y-35415000D01*
G75*
G02*
X115725000Y-35165000I0J250000D01*
G01*
X115725000Y-34665000D01*
G75*
G02*
X115975000Y-34415000I250000J0D01*
G01*
X116525000Y-34415000D01*
G75*
G02*
X116775000Y-34665000I0J-250000D01*
G01*
X116775000Y-35165000D01*
G75*
G02*
X116525000Y-35415000I-250000J0D01*
G01*
G37*
G36*
G01*
X116525000Y-36965000D02*
X115975000Y-36965000D01*
G75*
G02*
X115725000Y-36715000I0J250000D01*
G01*
X115725000Y-36215000D01*
G75*
G02*
X115975000Y-35965000I250000J0D01*
G01*
X116525000Y-35965000D01*
G75*
G02*
X116775000Y-36215000I0J-250000D01*
G01*
X116775000Y-36715000D01*
G75*
G02*
X116525000Y-36965000I-250000J0D01*
G01*
G37*
G36*
G01*
X104010000Y-52855000D02*
X104010000Y-53405000D01*
G75*
G02*
X103760000Y-53655000I-250000J0D01*
G01*
X103260000Y-53655000D01*
G75*
G02*
X103010000Y-53405000I0J250000D01*
G01*
X103010000Y-52855000D01*
G75*
G02*
X103260000Y-52605000I250000J0D01*
G01*
X103760000Y-52605000D01*
G75*
G02*
X104010000Y-52855000I0J-250000D01*
G01*
G37*
G36*
G01*
X105560000Y-52855000D02*
X105560000Y-53405000D01*
G75*
G02*
X105310000Y-53655000I-250000J0D01*
G01*
X104810000Y-53655000D01*
G75*
G02*
X104560000Y-53405000I0J250000D01*
G01*
X104560000Y-52855000D01*
G75*
G02*
X104810000Y-52605000I250000J0D01*
G01*
X105310000Y-52605000D01*
G75*
G02*
X105560000Y-52855000I0J-250000D01*
G01*
G37*
G36*
G01*
X122370000Y-42675000D02*
X122370000Y-42125000D01*
G75*
G02*
X122620000Y-41875000I250000J0D01*
G01*
X123120000Y-41875000D01*
G75*
G02*
X123370000Y-42125000I0J-250000D01*
G01*
X123370000Y-42675000D01*
G75*
G02*
X123120000Y-42925000I-250000J0D01*
G01*
X122620000Y-42925000D01*
G75*
G02*
X122370000Y-42675000I0J250000D01*
G01*
G37*
G36*
G01*
X120820000Y-42675000D02*
X120820000Y-42125000D01*
G75*
G02*
X121070000Y-41875000I250000J0D01*
G01*
X121570000Y-41875000D01*
G75*
G02*
X121820000Y-42125000I0J-250000D01*
G01*
X121820000Y-42675000D01*
G75*
G02*
X121570000Y-42925000I-250000J0D01*
G01*
X121070000Y-42925000D01*
G75*
G02*
X120820000Y-42675000I0J250000D01*
G01*
G37*
G36*
G01*
X122370000Y-41135000D02*
X122370000Y-40585000D01*
G75*
G02*
X122620000Y-40335000I250000J0D01*
G01*
X123120000Y-40335000D01*
G75*
G02*
X123370000Y-40585000I0J-250000D01*
G01*
X123370000Y-41135000D01*
G75*
G02*
X123120000Y-41385000I-250000J0D01*
G01*
X122620000Y-41385000D01*
G75*
G02*
X122370000Y-41135000I0J250000D01*
G01*
G37*
G36*
G01*
X120820000Y-41135000D02*
X120820000Y-40585000D01*
G75*
G02*
X121070000Y-40335000I250000J0D01*
G01*
X121570000Y-40335000D01*
G75*
G02*
X121820000Y-40585000I0J-250000D01*
G01*
X121820000Y-41135000D01*
G75*
G02*
X121570000Y-41385000I-250000J0D01*
G01*
X121070000Y-41385000D01*
G75*
G02*
X120820000Y-41135000I0J250000D01*
G01*
G37*
G36*
G01*
X119165000Y-48380000D02*
X119715000Y-48380000D01*
G75*
G02*
X119965000Y-48630000I0J-250000D01*
G01*
X119965000Y-49130000D01*
G75*
G02*
X119715000Y-49380000I-250000J0D01*
G01*
X119165000Y-49380000D01*
G75*
G02*
X118915000Y-49130000I0J250000D01*
G01*
X118915000Y-48630000D01*
G75*
G02*
X119165000Y-48380000I250000J0D01*
G01*
G37*
G36*
G01*
X119165000Y-46830000D02*
X119715000Y-46830000D01*
G75*
G02*
X119965000Y-47080000I0J-250000D01*
G01*
X119965000Y-47580000D01*
G75*
G02*
X119715000Y-47830000I-250000J0D01*
G01*
X119165000Y-47830000D01*
G75*
G02*
X118915000Y-47580000I0J250000D01*
G01*
X118915000Y-47080000D01*
G75*
G02*
X119165000Y-46830000I250000J0D01*
G01*
G37*
G36*
G01*
X117400000Y-43555000D02*
X117400000Y-44105000D01*
G75*
G02*
X117150000Y-44355000I-250000J0D01*
G01*
X116650000Y-44355000D01*
G75*
G02*
X116400000Y-44105000I0J250000D01*
G01*
X116400000Y-43555000D01*
G75*
G02*
X116650000Y-43305000I250000J0D01*
G01*
X117150000Y-43305000D01*
G75*
G02*
X117400000Y-43555000I0J-250000D01*
G01*
G37*
G36*
G01*
X118950000Y-43555000D02*
X118950000Y-44105000D01*
G75*
G02*
X118700000Y-44355000I-250000J0D01*
G01*
X118200000Y-44355000D01*
G75*
G02*
X117950000Y-44105000I0J250000D01*
G01*
X117950000Y-43555000D01*
G75*
G02*
X118200000Y-43305000I250000J0D01*
G01*
X118700000Y-43305000D01*
G75*
G02*
X118950000Y-43555000I0J-250000D01*
G01*
G37*
G36*
G01*
X117595000Y-48370000D02*
X118145000Y-48370000D01*
G75*
G02*
X118395000Y-48620000I0J-250000D01*
G01*
X118395000Y-49120000D01*
G75*
G02*
X118145000Y-49370000I-250000J0D01*
G01*
X117595000Y-49370000D01*
G75*
G02*
X117345000Y-49120000I0J250000D01*
G01*
X117345000Y-48620000D01*
G75*
G02*
X117595000Y-48370000I250000J0D01*
G01*
G37*
G36*
G01*
X117595000Y-46820000D02*
X118145000Y-46820000D01*
G75*
G02*
X118395000Y-47070000I0J-250000D01*
G01*
X118395000Y-47570000D01*
G75*
G02*
X118145000Y-47820000I-250000J0D01*
G01*
X117595000Y-47820000D01*
G75*
G02*
X117345000Y-47570000I0J250000D01*
G01*
X117345000Y-47070000D01*
G75*
G02*
X117595000Y-46820000I250000J0D01*
G01*
G37*
G36*
G01*
X114875000Y-48390000D02*
X115425000Y-48390000D01*
G75*
G02*
X115675000Y-48640000I0J-250000D01*
G01*
X115675000Y-49140000D01*
G75*
G02*
X115425000Y-49390000I-250000J0D01*
G01*
X114875000Y-49390000D01*
G75*
G02*
X114625000Y-49140000I0J250000D01*
G01*
X114625000Y-48640000D01*
G75*
G02*
X114875000Y-48390000I250000J0D01*
G01*
G37*
G36*
G01*
X114875000Y-46840000D02*
X115425000Y-46840000D01*
G75*
G02*
X115675000Y-47090000I0J-250000D01*
G01*
X115675000Y-47590000D01*
G75*
G02*
X115425000Y-47840000I-250000J0D01*
G01*
X114875000Y-47840000D01*
G75*
G02*
X114625000Y-47590000I0J250000D01*
G01*
X114625000Y-47090000D01*
G75*
G02*
X114875000Y-46840000I250000J0D01*
G01*
G37*
G36*
G01*
X122350000Y-39555000D02*
X122350000Y-39005000D01*
G75*
G02*
X122600000Y-38755000I250000J0D01*
G01*
X123100000Y-38755000D01*
G75*
G02*
X123350000Y-39005000I0J-250000D01*
G01*
X123350000Y-39555000D01*
G75*
G02*
X123100000Y-39805000I-250000J0D01*
G01*
X122600000Y-39805000D01*
G75*
G02*
X122350000Y-39555000I0J250000D01*
G01*
G37*
G36*
G01*
X120800000Y-39555000D02*
X120800000Y-39005000D01*
G75*
G02*
X121050000Y-38755000I250000J0D01*
G01*
X121550000Y-38755000D01*
G75*
G02*
X121800000Y-39005000I0J-250000D01*
G01*
X121800000Y-39555000D01*
G75*
G02*
X121550000Y-39805000I-250000J0D01*
G01*
X121050000Y-39805000D01*
G75*
G02*
X120800000Y-39555000I0J250000D01*
G01*
G37*
G36*
G01*
X112525000Y-35440000D02*
X111975000Y-35440000D01*
G75*
G02*
X111725000Y-35190000I0J250000D01*
G01*
X111725000Y-34690000D01*
G75*
G02*
X111975000Y-34440000I250000J0D01*
G01*
X112525000Y-34440000D01*
G75*
G02*
X112775000Y-34690000I0J-250000D01*
G01*
X112775000Y-35190000D01*
G75*
G02*
X112525000Y-35440000I-250000J0D01*
G01*
G37*
G36*
G01*
X112525000Y-36990000D02*
X111975000Y-36990000D01*
G75*
G02*
X111725000Y-36740000I0J250000D01*
G01*
X111725000Y-36240000D01*
G75*
G02*
X111975000Y-35990000I250000J0D01*
G01*
X112525000Y-35990000D01*
G75*
G02*
X112775000Y-36240000I0J-250000D01*
G01*
X112775000Y-36740000D01*
G75*
G02*
X112525000Y-36990000I-250000J0D01*
G01*
G37*
G36*
G01*
X108170000Y-38905000D02*
X108170000Y-39455000D01*
G75*
G02*
X107920000Y-39705000I-250000J0D01*
G01*
X107420000Y-39705000D01*
G75*
G02*
X107170000Y-39455000I0J250000D01*
G01*
X107170000Y-38905000D01*
G75*
G02*
X107420000Y-38655000I250000J0D01*
G01*
X107920000Y-38655000D01*
G75*
G02*
X108170000Y-38905000I0J-250000D01*
G01*
G37*
G36*
G01*
X109720000Y-38905000D02*
X109720000Y-39455000D01*
G75*
G02*
X109470000Y-39705000I-250000J0D01*
G01*
X108970000Y-39705000D01*
G75*
G02*
X108720000Y-39455000I0J250000D01*
G01*
X108720000Y-38905000D01*
G75*
G02*
X108970000Y-38655000I250000J0D01*
G01*
X109470000Y-38655000D01*
G75*
G02*
X109720000Y-38905000I0J-250000D01*
G01*
G37*
M02*
