%FSLAX45Y45*%
G04 Gerber Fmt 4.5, Leading zero omitted, Abs format (unit mm)*
G04 Created by KiCad (PCBNEW (5.1.12)-1) date 2022-01-26 09:34:39*
%MOMM*%
%LPD*%
G01*
G04 APERTURE LIST*
%TA.AperFunction,Profile*%
%ADD10C,0.038100*%
%TD*%
%ADD11C,0.200000*%
%ADD12C,0.300000*%
G04 APERTURE END LIST*
D10*
X10000000Y-6000000D02*
X10000000Y-3000000D01*
X10000000Y-6000000D02*
X13000000Y-6000000D01*
X13000000Y-3000000D02*
X13000000Y-6000000D01*
X10000000Y-3000000D02*
X13000000Y-3000000D01*
D11*
D12*
X10284523Y-6467619D02*
X10284523Y-6167619D01*
X10355952Y-6167619D01*
X10398809Y-6181905D01*
X10427381Y-6210476D01*
X10441666Y-6239048D01*
X10455952Y-6296191D01*
X10455952Y-6339048D01*
X10441666Y-6396191D01*
X10427381Y-6424762D01*
X10398809Y-6453334D01*
X10355952Y-6467619D01*
X10284523Y-6467619D01*
X10584523Y-6467619D02*
X10584523Y-6267619D01*
X10584523Y-6324762D02*
X10598809Y-6296191D01*
X10613095Y-6281905D01*
X10641666Y-6267619D01*
X10670238Y-6267619D01*
X10770238Y-6467619D02*
X10770238Y-6267619D01*
X10770238Y-6167619D02*
X10755952Y-6181905D01*
X10770238Y-6196191D01*
X10784523Y-6181905D01*
X10770238Y-6167619D01*
X10770238Y-6196191D01*
X10955952Y-6467619D02*
X10927381Y-6453334D01*
X10913095Y-6424762D01*
X10913095Y-6167619D01*
X11113095Y-6467619D02*
X11084523Y-6453334D01*
X11070238Y-6424762D01*
X11070238Y-6167619D01*
X11455952Y-6467619D02*
X11455952Y-6167619D01*
X11555952Y-6381905D01*
X11655952Y-6167619D01*
X11655952Y-6467619D01*
X11927381Y-6467619D02*
X11927381Y-6310476D01*
X11913095Y-6281905D01*
X11884523Y-6267619D01*
X11827381Y-6267619D01*
X11798809Y-6281905D01*
X11927381Y-6453334D02*
X11898809Y-6467619D01*
X11827381Y-6467619D01*
X11798809Y-6453334D01*
X11784523Y-6424762D01*
X11784523Y-6396191D01*
X11798809Y-6367619D01*
X11827381Y-6353334D01*
X11898809Y-6353334D01*
X11927381Y-6339048D01*
X12070238Y-6267619D02*
X12070238Y-6567619D01*
X12070238Y-6281905D02*
X12098809Y-6267619D01*
X12155952Y-6267619D01*
X12184523Y-6281905D01*
X12198809Y-6296191D01*
X12213095Y-6324762D01*
X12213095Y-6410476D01*
X12198809Y-6439048D01*
X12184523Y-6453334D01*
X12155952Y-6467619D01*
X12098809Y-6467619D01*
X12070238Y-6453334D01*
X12341666Y-6439048D02*
X12355952Y-6453334D01*
X12341666Y-6467619D01*
X12327381Y-6453334D01*
X12341666Y-6439048D01*
X12341666Y-6467619D01*
X12341666Y-6281905D02*
X12355952Y-6296191D01*
X12341666Y-6310476D01*
X12327381Y-6296191D01*
X12341666Y-6281905D01*
X12341666Y-6310476D01*
M02*
