M48
; DRILL file {KiCad (5.1.12)-1} date 01/26/22 09:34:32
; FORMAT={-:-/ absolute / metric / decimal}
; #@! TF.CreationDate,2022-01-26T09:34:32+03:00
; #@! TF.GenerationSoftware,Kicad,Pcbnew,(5.1.12)-1
; #@! TF.FileFunction,Plated,1,2,PTH
FMAT,2
METRIC
T1C0.300
T2C0.500
T3C0.600
T4C1.000
%
G90
G05
T1
X100.62Y-40.05
X100.63Y-38.58
X101.78Y-55.91
X102.16Y-39.76
X102.8Y-35.78
X103.16Y-59.48
X103.57Y-53.95
X104.03Y-57.72
X104.06Y-38.59
X104.16Y-58.77
X104.21Y-33.75
X104.25Y-44.38
X104.89Y-45.19
X105.5Y-40.91
X106.22Y-54.53
X107.31Y-47.76
X107.49Y-30.98
X107.84Y-42.55
X107.94Y-45.39
X107.98Y-37.21
X108.12Y-44.26
X108.68Y-48.27
X108.82Y-32.65
X109.14Y-34.45
X109.27Y-30.88
X109.41Y-52.21
X109.42Y-46.71
X110.29Y-55.14
X110.38Y-42.81
X110.41Y-39.18
X110.44Y-43.7
X110.73Y-51.37
X111.34Y-57.34
X111.39Y-35.69
X112.16Y-49.9
X112.17Y-37.47
X112.37Y-33.85
X112.55Y-57.34
X114.38Y-46.54
X114.41Y-34.22
X115.0Y-37.3
X115.3Y-46.31
X116.13Y-48.62
X116.25Y-37.51
X117.26Y-51.78
X117.27Y-46.29
X117.63Y-33.75
X117.94Y-34.68
X118.27Y-57.56
X118.57Y-46.51
X118.75Y-38.21
X118.91Y-49.94
X119.04Y-51.32
X119.48Y-45.29
X119.69Y-40.742
X119.89Y-55.25
X119.95Y-42.78
X120.06Y-39.29
X120.28Y-40.11
X120.29Y-36.73
X120.59Y-35.6
X121.55Y-35.59
X122.1Y-46.84
X122.18Y-50.62
X122.29Y-52.13
X122.42Y-53.83
X122.47Y-35.28
X122.88Y-36.63
X123.06Y-44.89
X124.02Y-50.12
X124.09Y-48.14
X124.38Y-52.12
X124.42Y-41.28
X124.73Y-38.78
X125.4Y-55.08
X125.5Y-37.27
X125.63Y-43.34
X125.87Y-56.1
X125.87Y-58.71
X126.0Y-42.53
X126.24Y-40.11
X126.39Y-30.66
X127.71Y-47.53
X128.35Y-48.59
X128.71Y-44.82
X128.89Y-42.91
X129.24Y-41.11
X129.41Y-43.55
T2
X101.87Y-54.61
X102.87Y-54.61
T3
X101.94Y-47.85
X120.19Y-41.639
X121.35Y-53.35
T4
X101.42Y-34.49
X101.42Y-37.03
X101.94Y-43.46
X101.94Y-46.0
X101.94Y-49.76
X101.94Y-52.3
X121.42Y-31.94
X123.96Y-31.94
X128.1Y-36.46
X128.1Y-39.0
T0
M30
